<svg width="20" height="21" viewBox="0 0 20 21" fill="none" xmlns="http://www.w3.org/2000/svg">
<path d="M16.7964 2.67508C16.7387 2.60551 16.6674 2.54103 16.5809 2.48163C15.5644 1.59072 14.3663 0.901734 13.0495 0.480881C13.024 0.472396 12.9968 0.46052 12.9714 0.452035C12.9442 0.44355 12.9171 0.435061 12.8899 0.426576C12.7881 0.392637 12.6846 0.360394 12.5811 0.331545C12.5132 0.312879 12.4436 0.297608 12.3758 0.280638C12.313 0.265365 12.2502 0.246704 12.1874 0.233128C12.1076 0.216158 12.0279 0.202579 11.9481 0.187306C11.9294 0.183912 11.9091 0.17882 11.8904 0.175426C11.8853 0.173729 11.8819 0.172028 11.8768 0.172028C11.7173 0.134695 11.5324 0.109238 11.3304 0.0956618C10.896 0.0379643 10.4514 0.00402832 10.0017 0.00402832C9.78276 0.00402832 9.56555 0.0142127 9.34833 0.0277886C9.12942 0.0243946 8.9122 0.0447593 8.69838 0.0922749C8.27753 0.146578 7.86516 0.226332 7.46298 0.331545C7.45279 0.328151 7.44262 0.324763 7.43413 0.32646C7.41716 0.328157 7.40188 0.338334 7.38831 0.353607C6.94879 0.472396 6.52115 0.618343 6.10709 0.79483C6.10369 0.796527 6.0986 0.798217 6.09521 0.798217C6.06296 0.810095 6.02733 0.818582 5.99508 0.832158C5.93569 0.857613 5.87799 0.888161 5.82199 0.918706C5.80333 0.928888 5.78466 0.935673 5.76599 0.947552C5.76429 0.949249 5.7609 0.950951 5.7592 0.952648C5.20938 1.21059 4.68841 1.51774 4.19968 1.86901C3.94343 2.04041 3.69906 2.22878 3.46997 2.43581C3.34609 2.53424 3.24257 2.63266 3.15433 2.72769C2.74027 3.118 2.36014 3.54394 2.01735 3.99873C1.99868 4.02249 1.98171 4.04795 1.96304 4.07171C1.90704 4.14807 1.84935 4.22444 1.79504 4.3042C1.78486 4.31947 1.77298 4.33473 1.7611 4.35001C1.62874 4.54007 1.50316 4.73522 1.38437 4.93377C1.38437 4.93547 1.38607 4.93887 1.38607 4.94057C0.50703 6.42713 -0.000366211 8.15805 -0.000366211 10.0078C-0.000366211 15.523 4.48646 20.0081 9.99997 20.0081C15.5152 20.0081 20.0003 15.5213 20.0003 10.0078C20.002 7.11101 18.7666 4.50274 16.7964 2.67508ZM19.4895 6.98373C19.4878 6.98204 19.4878 6.98035 19.4861 6.97865C19.4759 6.9515 19.4658 6.92434 19.4556 6.89718C19.4318 6.82082 19.4047 6.74616 19.3792 6.6698C19.4149 6.77331 19.4556 6.87682 19.4895 6.98373ZM19.3436 12.8791C19.3996 12.8332 19.4539 12.7908 19.5065 12.745C19.4827 12.818 19.459 12.8892 19.4335 12.9622C19.2689 13.2388 18.994 13.5341 18.619 13.8413C18.6767 13.5901 18.7174 13.3339 18.7513 13.0742C18.8701 12.9402 18.9872 12.8061 19.1094 12.6686C19.1892 12.7416 19.2655 12.8112 19.3436 12.8791ZM19.386 13.0963C19.2112 13.5697 18.9991 14.0347 18.7462 14.4844C18.5036 14.9138 18.2304 15.3193 17.9317 15.7011C18.2321 15.1394 18.4594 14.5319 18.6105 13.8905C18.9499 13.6173 19.2112 13.3491 19.386 13.0963ZM18.4323 13.8175C18.434 13.7836 18.4425 13.7462 18.4611 13.7174C18.5613 13.5663 18.619 13.4 18.6478 13.2219C18.6512 13.2015 18.6597 13.1794 18.6733 13.1642C18.6868 13.1489 18.7004 13.1319 18.714 13.1166C18.6801 13.3729 18.6376 13.6274 18.5799 13.8752C18.529 13.9159 18.473 13.9567 18.4187 13.9974C18.4272 13.9567 18.4289 13.9023 18.4323 13.8175ZM17.3276 15.6978C17.3377 15.7181 17.3649 15.7317 17.387 15.7419C17.4956 15.786 17.5702 15.7521 17.6398 15.6553C17.6941 15.5807 17.7128 15.5145 17.6975 15.4279C17.6839 15.3516 17.6771 15.2752 17.6687 15.1988C17.667 15.1836 17.672 15.1683 17.6754 15.153C17.6822 15.131 17.6941 15.1089 17.6992 15.0868C17.7908 14.7525 17.9979 14.4929 18.2337 14.2502C18.2405 14.2434 18.2473 14.2367 18.2541 14.2282C18.3373 14.1433 18.3797 14.1009 18.4001 14.0483C18.4544 14.0076 18.5104 13.9651 18.563 13.9244C18.4001 14.6066 18.1489 15.2498 17.8146 15.8386C17.6059 16.0949 17.3836 16.3392 17.1511 16.5734C17.1256 16.3341 16.8948 16.1525 16.4842 16.0507C16.5283 15.9913 16.5707 15.9285 16.6148 15.8675C16.6556 15.8098 16.6946 15.7521 16.7353 15.6944C16.7913 15.6112 16.8456 15.5264 16.8999 15.4415C16.9373 15.3838 16.9746 15.3244 17.0102 15.265C17.0323 15.2294 17.0526 15.1937 17.073 15.1581C17.1596 15.338 17.2427 15.5179 17.3276 15.6978ZM12.3384 19.3225C12.3367 19.3191 12.335 19.3157 12.3316 19.3123C12.4046 19.2835 12.4759 19.2529 12.5471 19.2224C12.5149 19.2462 12.4844 19.2699 12.4521 19.292C12.4148 19.3022 12.3758 19.3123 12.3384 19.3225ZM12.369 19.3497C12.3656 19.3514 12.3622 19.3548 12.3571 19.3565C12.3571 19.3548 12.3554 19.3531 12.3554 19.3531C12.3605 19.3514 12.3639 19.3497 12.369 19.3497ZM9.647 9.09139C9.60966 9.09139 9.591 9.10497 9.57573 9.14061C9.5367 9.23564 9.49427 9.32897 9.44845 9.4206C9.43827 9.44097 9.41112 9.46472 9.39076 9.47151C9.32457 9.49357 9.25669 9.51394 9.18881 9.53091C9.07342 9.08969 8.96142 8.65357 8.85281 8.22253C8.88505 8.20556 8.92069 8.19199 8.95124 8.17672C9.03609 8.1343 9.09717 8.0732 9.14299 7.99004C9.1956 7.89671 9.25499 7.80677 9.31269 7.71683C9.32287 7.70156 9.33984 7.68289 9.35511 7.68119C9.479 7.67101 9.60457 7.66593 9.73864 7.65744C9.72506 7.77284 9.71318 7.87974 9.69791 7.98665C9.69621 7.99683 9.67754 8.01041 9.66397 8.01381C9.5316 8.05623 9.45693 8.15295 9.39754 8.27344C9.35342 8.36508 9.32287 8.45163 9.32796 8.55514C9.33475 8.66036 9.32966 8.76387 9.32966 8.87926C9.44506 8.85042 9.55197 8.82496 9.66057 8.79781C9.70639 8.78593 9.75561 8.77745 9.79803 8.75709C9.91003 8.70278 10.0135 8.72485 10.1137 8.78085C10.1306 8.79103 10.1493 8.81309 10.151 8.83175C10.1595 8.90812 10.1629 8.98617 10.168 9.06933C10.0729 9.07442 9.97961 9.07951 9.88797 9.0829C9.80652 9.08969 9.72676 9.08969 9.647 9.09139ZM9.67415 12.9028C9.52142 12.9419 9.37039 12.9792 9.21936 13.0148C9.23293 12.8909 9.32966 12.8231 9.39924 12.7365C9.40942 12.7246 9.43997 12.728 9.46033 12.728C9.54688 12.728 9.61645 12.7501 9.6453 12.8468C9.65039 12.8655 9.66057 12.8842 9.67415 12.9028ZM9.0819 9.90764C8.98348 9.92461 8.88675 9.94498 8.78832 9.95686C8.6322 9.97552 8.47438 9.98401 8.31996 10.0095C8.1825 10.0315 8.04844 10.0722 7.91268 10.1028C7.89231 10.1079 7.86007 10.1062 7.83971 10.0977C7.73789 10.0621 7.63776 10.023 7.53595 9.9874C7.5071 9.97722 7.49182 9.96534 7.49861 9.9348C7.5071 9.89237 7.51389 9.84995 7.51728 9.80752C7.52237 9.73285 7.54443 9.67007 7.60552 9.61916C7.6734 9.56146 7.68528 9.44267 7.64286 9.36461V9.36291C7.60722 9.29843 7.51728 9.28824 7.46637 9.34255C7.42565 9.38667 7.38662 9.42909 7.34928 9.47491C7.33061 9.49697 7.334 9.53939 7.32891 9.57164C7.32382 9.60727 7.31704 9.64291 7.31195 9.68025C7.29837 9.77188 7.21521 9.83807 7.12188 9.83128C7.0523 9.82619 6.99291 9.83976 6.94031 9.88558C6.8894 9.9297 6.83 9.95176 6.75873 9.94498C6.73497 9.94328 6.70612 9.95855 6.68576 9.97552C6.61788 10.0298 6.5466 10.0841 6.48721 10.1469C6.41933 10.2199 6.33278 10.2097 6.24963 10.2199C6.16478 10.2318 6.07823 10.2352 5.99339 10.247C5.97302 10.2504 5.95096 10.2674 5.93739 10.2827C5.8746 10.3523 5.8135 10.4218 5.74902 10.4965C5.72187 10.4829 5.69472 10.4693 5.66757 10.4558C5.65908 10.432 5.6506 10.4099 5.64211 10.3862C5.62005 10.3285 5.59799 10.2725 5.57763 10.2148C5.57084 10.1944 5.56405 10.1741 5.55557 10.1537C5.69811 10.0807 5.82199 9.9857 5.92042 9.85333C5.83726 9.7006 5.75072 9.54279 5.66587 9.38497C5.65229 9.36121 5.64381 9.33406 5.63702 9.30861C5.61326 9.21867 5.58951 9.12872 5.57254 9.03708C5.54708 8.89793 5.52163 8.75878 5.55726 8.62302C5.66078 8.5789 5.76599 8.53648 5.8712 8.49236C5.90514 8.47878 5.93908 8.46351 5.97472 8.44993C6.04599 8.42108 6.11896 8.39393 6.19024 8.36508C6.50588 8.31078 6.8283 8.24799 7.15412 8.18011C7.14224 8.36847 7.12697 8.55514 7.1134 8.74351C7.1134 8.75199 7.11509 8.76048 7.1134 8.76727C7.07267 8.89793 7.11849 8.98618 7.20164 9.05746C7.25255 9.09988 7.32382 9.11006 7.38492 9.0829C7.50031 9.0303 7.6191 8.97769 7.7345 8.92169C7.77013 8.90472 7.7871 8.9149 7.81595 8.93697C7.92286 9.01333 7.94662 9.10836 7.92116 9.23394C7.89741 9.35103 7.89401 9.47321 7.88213 9.5937C7.88043 9.61237 7.88213 9.63273 7.88213 9.65649C8.00262 9.67515 8.11971 9.69043 8.2385 9.71079C8.27923 9.71758 8.28602 9.69212 8.2962 9.66667C8.37596 9.49018 8.45741 9.31369 8.53547 9.13551C8.55244 9.09648 8.5745 9.0812 8.61523 9.07951C8.71875 9.07611 8.82226 9.06933 8.93087 9.06254C8.93087 8.98278 8.93257 8.90812 8.92918 8.83345C8.92918 8.81988 8.9156 8.8063 8.90541 8.79611C8.86129 8.75539 8.81887 8.71297 8.77305 8.67563C8.73741 8.64679 8.72214 8.61454 8.72553 8.56872C8.73063 8.48218 8.70178 8.37866 8.73911 8.31248C8.75608 8.28193 8.78663 8.25987 8.82226 8.23951C8.93087 8.66715 9.04118 9.10157 9.15657 9.54109C9.15487 9.54109 9.15148 9.54279 9.14978 9.54279C9.09887 9.55467 9.07851 9.57673 9.0819 9.63273C9.08699 9.71927 9.0819 9.80921 9.0819 9.90764ZM6.78418 0.872884C6.90297 0.850824 7.02346 0.833852 7.14564 0.81858C6.54321 0.991672 5.96623 1.21907 5.41641 1.49229C5.33156 1.52114 5.24671 1.54659 5.16016 1.56866C5.16526 1.56187 5.16865 1.55338 5.17374 1.54659C5.17544 1.5432 5.17714 1.54149 5.18053 1.5381C5.20259 1.50755 5.22974 1.48041 5.2535 1.45156C5.73884 1.23605 6.25812 1.04258 6.78418 0.872884ZM5.29762 1.39556C5.32477 1.36332 5.35023 1.32768 5.37738 1.29883C5.39095 1.28525 5.40623 1.27338 5.4198 1.2598C5.77278 1.11895 6.14102 1.00525 6.52284 0.923792C6.10369 1.06634 5.69132 1.22416 5.29762 1.39556ZM7.66662 0.611552C7.66831 0.614946 7.67001 0.61834 7.6734 0.621734C7.63946 0.63531 7.60553 0.650583 7.57159 0.664158C7.53425 0.679431 7.49522 0.694699 7.45789 0.711669C7.49013 0.687911 7.52067 0.664158 7.55292 0.642097C7.59025 0.631915 7.62928 0.621734 7.66662 0.611552ZM7.63267 0.586093C7.63777 0.582699 7.64116 0.579307 7.64625 0.57761C7.64795 0.579307 7.64795 0.581009 7.64965 0.582706C7.64455 0.584403 7.63946 0.584396 7.63267 0.586093ZM10.056 0.160148C10.1035 0.172027 10.151 0.185612 10.1985 0.200885C10.3801 0.258582 10.5617 0.336638 10.7416 0.428275C9.74373 0.360395 8.73062 0.440158 7.7328 0.665857C7.72771 0.657372 7.72431 0.648883 7.71922 0.640398C7.73619 0.63361 7.75316 0.625126 7.77183 0.620035C7.8431 0.592883 7.91438 0.569124 7.98565 0.543669C8.02808 0.528396 8.0705 0.513121 8.11123 0.499545C8.79342 0.334938 9.45524 0.219543 10.056 0.160148ZM8.54396 0.367186C8.55244 0.365489 8.56093 0.362099 8.56942 0.360402C8.64578 0.340038 8.72045 0.323065 8.79681 0.304398C8.85451 0.290822 8.9139 0.275549 8.9716 0.261974C9.04796 0.245004 9.12602 0.233123 9.20409 0.21785C9.26178 0.207668 9.31948 0.195789 9.37548 0.185607C9.45354 0.173728 9.5316 0.163546 9.60966 0.153364C9.66736 0.146576 9.72336 0.136393 9.78106 0.131302C9.82179 0.126211 9.86082 0.124515 9.90155 0.121121C9.92191 0.126212 9.94397 0.129609 9.96433 0.1347C9.51633 0.185609 9.03778 0.261973 8.54396 0.367186ZM12.8798 19.0799C12.8679 19.0833 12.856 19.0866 12.8441 19.09C12.9188 19.0544 12.9935 19.0205 13.0681 18.9831C13.0851 18.9746 13.1038 18.9645 13.1207 18.956C13.2293 18.9 13.3362 18.844 13.4415 18.7829C13.4839 18.7591 13.5263 18.732 13.5687 18.7082C13.6485 18.6607 13.7283 18.6132 13.8063 18.564C13.8538 18.5351 13.8996 18.5029 13.9472 18.4723C14.0201 18.4248 14.0931 18.3756 14.1644 18.3264C14.2119 18.2942 14.2577 18.2602 14.3052 18.2263C14.3765 18.1754 14.4461 18.1228 14.5157 18.0701C14.5598 18.0362 14.6056 18.0023 14.6497 17.9666C14.7227 17.9089 14.794 17.8478 14.8669 17.7884C14.906 17.7562 14.945 17.724 14.9823 17.6917C15.0791 17.6069 15.1741 17.522 15.2674 17.4338C15.2776 17.4236 15.2895 17.4134 15.3014 17.4032C15.2997 17.41 15.298 17.4185 15.2946 17.4253C15.2912 17.4372 15.2878 17.4473 15.2827 17.4592C15.2471 17.5712 15.208 17.6798 15.1639 17.7817C15.1605 17.7901 15.1571 17.7969 15.1537 17.8054C15.1096 17.9089 15.0621 18.0091 15.0095 18.1024C15.0061 18.1075 15.0044 18.1126 15.001 18.1177C14.9772 18.1584 14.9518 18.1957 14.9263 18.2348C14.2866 18.5843 13.6027 18.8694 12.8798 19.0799ZM14.8941 18.2874C14.872 18.3196 14.8534 18.3552 14.8313 18.3875C14.8296 18.3892 14.8279 18.3926 14.8262 18.3943C14.8024 18.4265 14.777 18.452 14.7532 18.4825C14.2662 18.698 13.7469 18.8915 13.2208 19.0612C13.1072 19.0815 12.9935 19.0985 12.8798 19.1138C12.8832 19.1121 12.8865 19.1121 12.8899 19.1104C13.5925 18.9068 14.2628 18.6301 14.8941 18.2874ZM12.24 16.4546C12.1042 16.4902 11.9668 16.5293 11.831 16.57C11.7886 16.5123 11.7547 16.4461 11.7224 16.3816C11.6732 16.2815 11.6359 16.1729 11.6036 16.0643C11.5612 15.915 11.4577 15.8064 11.3643 15.6927C11.2456 15.5467 11.1149 15.411 10.9893 15.2701C10.9706 15.2498 10.9486 15.2311 10.9316 15.2107C10.8468 15.1106 10.8451 14.9952 10.8688 14.8696C10.974 14.8747 11.0759 14.8798 11.1794 14.8883C11.1946 14.89 11.2099 14.9036 11.2235 14.9154C11.3542 15.0444 11.4848 15.1717 11.6121 15.3024C11.641 15.3329 11.6562 15.377 11.68 15.4127C11.7937 15.5841 11.8225 15.7792 11.8412 15.9761C11.8429 15.9896 11.8429 16.0032 11.8463 16.0168C11.848 16.0304 11.8531 16.0439 11.8582 16.0609C11.9532 16.0253 12.0533 16.0032 12.1297 15.9184C12.1687 16.1016 12.2061 16.2815 12.24 16.4546ZM12.1585 15.8878C12.1585 15.8861 12.1585 15.8861 12.1585 15.8878C12.1602 15.8929 12.1619 15.8997 12.1619 15.9065C12.1602 15.8997 12.1602 15.8929 12.1585 15.8878ZM11.6308 19.1749C11.6308 19.1698 11.6308 19.1664 11.6308 19.163C11.6291 19.1562 11.6342 19.1477 11.6325 19.1392C11.6087 18.9967 11.6647 18.9017 11.7462 18.8236C11.7818 18.8423 11.8191 18.8626 11.8548 18.8796C11.8955 18.9 11.9379 18.9169 11.9787 18.9356C12.0245 18.956 12.0703 18.978 12.1161 18.9967C12.1246 19.0001 12.1331 19.0035 12.1416 19.0069C12.1687 19.0663 12.1959 19.1206 12.2213 19.1715C12.0245 19.1817 11.8276 19.18 11.6308 19.1749ZM12.2383 19.2054C12.2434 19.2173 12.2502 19.2275 12.2553 19.2394C12.0313 19.2903 11.8073 19.331 11.5816 19.3666C11.6121 19.3208 11.6291 19.2682 11.6291 19.2088C11.8344 19.2139 12.0364 19.2139 12.2383 19.2054ZM12.0941 18.9509C12.0245 18.922 11.9532 18.8915 11.8836 18.8559C11.8684 18.8491 11.8548 18.8406 11.8395 18.8321C11.8174 18.8219 11.7954 18.8083 11.7733 18.7982C11.814 18.7625 11.8599 18.7303 11.9023 18.698C11.9277 18.6794 11.9549 18.6624 11.9804 18.6437C12.0296 18.7591 12.0754 18.8677 12.1195 18.9628C12.1127 18.9594 12.1025 18.956 12.0941 18.9509ZM11.9006 16.6515C11.8836 16.6345 11.8667 16.6175 11.8514 16.5972C11.9838 16.5581 12.1144 16.5208 12.2468 16.4852C12.2671 16.5904 12.2875 16.6922 12.3062 16.7923C12.2434 16.811 12.1806 16.8279 12.1178 16.8449C12.0448 16.7821 11.9719 16.7177 11.9006 16.6515ZM12.223 16.2068C12.2621 16.2815 12.3028 16.3545 12.3452 16.4258C12.3198 16.4326 12.296 16.4376 12.2705 16.4444C12.257 16.3681 12.24 16.2866 12.223 16.2068ZM11.3389 19.5923C11.3762 19.5839 11.4136 19.5771 11.4526 19.5703C11.4458 19.572 11.439 19.5737 11.4322 19.5771C11.3983 19.5856 11.3627 19.594 11.3287 19.6025C11.3304 19.5974 11.3338 19.594 11.3389 19.5923ZM11.3983 19.5465C11.4254 19.5245 11.4543 19.5007 11.4814 19.4769C11.5086 19.4532 11.534 19.4294 11.5544 19.4057C11.7937 19.3683 12.033 19.3225 12.2722 19.2682C12.2773 19.2767 12.2807 19.2852 12.2858 19.292C12.2671 19.2988 12.2502 19.3072 12.2315 19.314C12.1687 19.3378 12.1059 19.3582 12.0448 19.3802C11.9939 19.3989 11.943 19.4159 11.8921 19.4328C11.7258 19.4752 11.5612 19.5126 11.3983 19.5465ZM12.3028 19.3225C12.3045 19.3242 12.3062 19.3276 12.3062 19.3293C12.2841 19.3361 12.2604 19.3412 12.2383 19.3463C12.2604 19.3395 12.2824 19.331 12.3028 19.3225ZM12.3045 19.2614C12.3554 19.2495 12.4046 19.2377 12.4555 19.2241C12.4487 19.2275 12.4402 19.2309 12.4335 19.2326C12.3944 19.2479 12.3554 19.2648 12.3164 19.2801C12.3113 19.275 12.3079 19.2682 12.3045 19.2614ZM12.2875 19.2309C12.2824 19.2207 12.2773 19.2122 12.2722 19.2037C12.335 19.2003 12.3961 19.1952 12.4589 19.1902C12.4029 19.2037 12.3452 19.2173 12.2875 19.2309ZM12.257 19.1698C12.2349 19.1257 12.2094 19.0765 12.1857 19.0239C12.2044 19.0306 12.223 19.0374 12.2417 19.0442C12.2875 19.0612 12.3316 19.0782 12.3774 19.0934C12.4182 19.107 12.4589 19.1172 12.4996 19.1291C12.52 19.1359 12.5404 19.1426 12.5607 19.1477C12.4589 19.1579 12.3571 19.1647 12.257 19.1698ZM12.5879 19.1206C12.5268 19.1053 12.4657 19.0883 12.4046 19.068C12.3842 19.0612 12.3639 19.0527 12.3418 19.0459C12.2824 19.0256 12.2247 19.0052 12.1653 18.9814C12.1161 18.8779 12.0652 18.7591 12.0092 18.6268C12.1857 18.5063 12.3707 18.4028 12.5607 18.3043C12.6065 18.6403 12.6354 18.9237 12.6422 19.1358C12.6235 19.1325 12.6048 19.1257 12.5879 19.1206ZM12.6422 19.1902C12.6422 19.2071 12.6422 19.2224 12.6422 19.2377C12.6065 19.2479 12.5709 19.258 12.5353 19.2682C12.5709 19.2428 12.6065 19.219 12.6422 19.1902ZM12.1484 16.8755C12.2027 16.8585 12.257 16.8415 12.3113 16.8246C12.3265 16.9077 12.3418 16.9875 12.3571 17.0672C12.2892 17.001 12.2196 16.9383 12.1484 16.8755ZM12.279 16.4784C12.3062 16.4716 12.3333 16.4648 12.3622 16.458C12.4097 16.5513 12.4318 16.6498 12.4436 16.7516C12.408 16.7618 12.3741 16.7753 12.3384 16.7855C12.3181 16.6854 12.2994 16.5819 12.279 16.4784ZM12.3469 7.13647C12.3299 7.13986 12.3113 7.15343 12.2977 7.16531C11.977 7.45719 11.6562 7.74907 11.3355 8.04265C11.3083 8.06641 11.2863 8.07829 11.2473 8.06981C11.1353 8.04435 11.0199 8.03078 10.9079 8.00362C10.8654 7.99344 10.8281 7.95441 10.7891 7.92896C10.7076 7.87635 10.6754 7.80678 10.6889 7.70835C10.6974 7.64896 10.6906 7.58617 10.6906 7.51659C11.0233 7.47586 11.3525 7.43513 11.6936 7.3944C11.6342 7.32992 11.5833 7.27052 11.529 7.21452C11.456 7.13985 11.383 7.06519 11.31 6.98883C11.6681 6.85816 12.0211 6.7207 12.3673 6.57815C12.5641 6.54082 12.7593 6.50688 12.9544 6.47464C12.9595 6.48482 12.9663 6.495 12.9714 6.50518C12.9935 6.54421 13.0155 6.58324 13.0359 6.62227C13.0766 6.69694 13.1156 6.77161 13.1547 6.84628C12.8899 6.95658 12.6286 7.07537 12.3469 7.13647ZM11.1573 6.831C11.5137 6.74955 11.8684 6.67489 12.2179 6.60701C11.9125 6.73089 11.6019 6.84967 11.288 6.96507C11.2439 6.91925 11.1997 6.87512 11.1573 6.831ZM12.1687 4.48577C12.167 4.44674 12.1738 4.41959 12.2094 4.39753C12.2638 4.36359 12.3147 4.32625 12.3639 4.28552C12.3774 4.27534 12.391 4.24989 12.3876 4.23461C12.3758 4.17013 12.3588 4.10735 12.3418 4.02928C12.2553 4.11583 12.184 4.19728 12.1008 4.26856C12.0279 4.33134 11.9956 4.40092 12.0041 4.49934C12.0126 4.60625 12.0109 4.71316 11.9804 4.81668C11.9447 4.76407 11.9091 4.70977 11.8717 4.65716C11.8259 4.59098 11.7784 4.5248 11.7309 4.46032C11.6936 4.40771 11.6545 4.35341 11.6172 4.3008C11.5714 4.23801 11.5239 4.17692 11.478 4.11413C11.439 4.06153 11.3983 4.00722 11.3593 3.95462C11.3134 3.89522 11.2676 3.83922 11.2235 3.78152C11.1828 3.72891 11.1403 3.67461 11.0996 3.6237C11.0538 3.5677 11.0097 3.51339 10.9639 3.45909C10.9214 3.40818 10.879 3.35558 10.8366 3.30637C10.7925 3.25376 10.7466 3.20454 10.7025 3.15363C10.6584 3.10442 10.6143 3.05351 10.5702 3.0043C10.526 2.95509 10.4819 2.90927 10.4378 2.86176C10.392 2.81424 10.3479 2.76502 10.302 2.71751C10.2732 2.68696 10.2443 2.65812 10.2138 2.62927C10.375 2.558 10.5294 2.48502 10.6771 2.41205C11.0453 2.34248 11.4051 2.28138 11.758 2.23047C11.7665 2.24914 11.775 2.26611 11.7801 2.28478C11.8157 2.41375 11.8904 2.47654 12.0313 2.45448C12.1263 2.4409 12.2128 2.47145 12.2841 2.54272C12.313 2.57157 12.3656 2.57666 12.408 2.59363C12.4606 2.61569 12.4945 2.60721 12.5115 2.54951C12.52 2.51896 12.537 2.50708 12.5743 2.51557C12.6524 2.53254 12.7321 2.53932 12.8102 2.55629C12.8288 2.55969 12.8492 2.58006 12.8577 2.59703C12.8815 2.65133 12.8984 2.70902 12.9205 2.77181C12.9646 2.72769 13.0121 2.68696 13.0444 2.64114C13.5043 3.3403 13.9132 4.15825 14.2526 5.06274C14.2357 5.0848 14.2187 5.10857 14.2 5.13063C14.1746 5.16287 14.1644 5.18832 14.1864 5.22396C14.1966 5.23923 14.2034 5.2562 14.2085 5.27317C14.2441 5.39535 14.3086 5.49717 14.3901 5.58372C14.312 5.62614 14.2323 5.67027 14.1508 5.71269C14.0948 5.66348 14.0371 5.61597 13.9811 5.56506C13.9624 5.54978 13.9506 5.52772 13.9438 5.50397C13.9166 5.38857 13.8912 5.27147 13.8657 5.14759C13.7469 5.17305 13.6315 5.19681 13.5161 5.22566C13.5042 5.22905 13.4924 5.2545 13.4924 5.27147C13.4941 5.33426 13.4975 5.39875 13.5076 5.46154C13.511 5.4853 13.528 5.51244 13.5467 5.52942C13.6638 5.63463 13.7809 5.73815 13.898 5.84166C13.5874 5.99949 13.2599 6.1573 12.9086 6.31342C12.8882 6.27609 12.8679 6.23876 12.8458 6.20143C12.7966 6.11488 12.7457 6.03003 12.6965 5.94518C12.6676 5.89597 12.6405 5.84676 12.6116 5.79924C12.5624 5.71778 12.5132 5.63802 12.464 5.55826C12.4334 5.50735 12.4029 5.45645 12.3707 5.40724C12.3231 5.33087 12.2739 5.2562 12.2264 5.18154C12.1925 5.12893 12.1585 5.07632 12.1246 5.02541C12.1212 5.02202 12.1195 5.01693 12.1161 5.01354C12.1229 5.00505 12.1314 4.99656 12.1467 4.98977C12.1874 4.97281 12.1976 4.94226 12.1942 4.89984C12.1806 4.76238 12.1772 4.62323 12.1687 4.48577ZM8.13838 7.62859C8.11632 7.63537 8.09426 7.64386 8.0705 7.65065C7.75486 7.75416 7.44262 7.86108 7.13207 7.97138C7.10152 7.98156 7.07097 7.99344 7.04043 8.00532C6.74855 8.11054 6.45836 8.22084 6.17157 8.33454C5.98151 8.36678 5.79484 8.39732 5.60987 8.42447C5.50126 8.38375 5.39774 8.34302 5.29253 8.43466C5.27217 8.45332 5.24162 8.45841 5.21956 8.47538L5.21787 8.47708C5.15508 8.48556 5.09059 8.49405 5.0295 8.50254C5.00404 8.40751 4.97689 8.31248 4.95313 8.21745C4.93956 8.16314 4.92598 8.10883 4.91241 8.05453C4.87677 7.91029 4.84283 7.76775 4.81059 7.6252C4.8004 7.57938 4.79022 7.53356 4.78004 7.48774C4.76137 7.3978 4.74441 7.31126 4.72744 7.22132C4.74271 7.03125 4.76307 6.84289 4.78513 6.65622C4.83604 6.67828 4.89204 6.69524 4.95483 6.69524C5.04816 6.69524 5.1415 6.71731 5.23823 6.72919C5.22635 6.59003 5.21447 6.45767 5.2009 6.3253C5.1992 6.30494 5.18223 6.28119 5.16526 6.26761C5.09738 6.20652 5.02611 6.14881 4.95653 6.09112C4.94295 6.08094 4.92598 6.06736 4.91071 6.06736C4.89713 6.06736 4.88186 6.06736 4.86828 6.06736C4.91071 5.79754 4.95992 5.53281 5.01592 5.27317C5.04138 5.30032 5.06513 5.32578 5.09229 5.35463C5.12453 5.28675 5.15508 5.22566 5.17883 5.16287C5.18732 5.13911 5.18562 5.10517 5.17374 5.08141C5.14999 5.0305 5.12114 4.9796 5.09399 4.93038C5.10926 4.86929 5.12283 4.8082 5.1398 4.74711C5.17714 4.69789 5.21447 4.64868 5.2552 4.59777C5.32647 4.74541 5.39265 4.88117 5.46393 5.0322C5.48429 4.93377 5.50635 4.85232 5.51484 4.76917C5.5369 4.56383 5.62174 4.38735 5.7592 4.22783C5.82878 4.26007 5.89836 4.29571 5.97302 4.32456C6.00017 4.33474 6.03921 4.33474 6.06636 4.32456C6.29715 4.24141 6.48212 4.08698 6.68067 3.94952C6.69934 3.93595 6.71461 3.91049 6.72309 3.88843C6.74515 3.83073 6.76552 3.77134 6.78418 3.71195C7.09643 3.64746 7.41207 3.57618 7.7328 3.49133C7.94322 4.55365 8.22662 5.8196 8.55923 7.18907C8.45401 7.32483 8.34881 7.46059 8.24529 7.59804C8.20965 7.60653 8.17402 7.61671 8.13838 7.62859ZM8.20796 7.64386C8.19608 7.66083 8.1825 7.6761 8.17062 7.69307C8.14008 7.7338 8.10443 7.76265 8.05522 7.77962C7.77522 7.87805 7.49692 7.97987 7.21861 8.07829C7.18297 8.09187 7.16091 8.10714 7.15582 8.14448C6.87921 8.20217 6.6043 8.25647 6.33448 8.30568C6.34127 8.30229 6.34976 8.2989 6.35654 8.2972C6.37521 8.29041 6.39557 8.28192 6.41424 8.27344C6.55679 8.21914 6.69933 8.16484 6.84188 8.11223C6.84867 8.11054 6.85545 8.10714 6.86224 8.10544C7.30515 7.94083 7.75656 7.7898 8.20796 7.64386ZM6.02733 8.39053C5.8712 8.45332 5.72017 8.5195 5.56745 8.58399C5.57763 8.55514 5.5895 8.52629 5.60647 8.49914C5.61496 8.48557 5.62005 8.46859 5.62514 8.45332C5.75751 8.43295 5.88987 8.41259 6.02733 8.39053ZM6.68915 12.9215C6.24284 12.9113 5.79484 12.9045 5.34853 12.8977C5.33326 12.8977 5.3129 12.9011 5.30102 12.8943C5.2518 12.8655 5.20089 12.8536 5.14998 12.8468C5.11944 12.7145 5.08889 12.5838 5.06004 12.4514C5.07362 12.4497 5.0872 12.4497 5.09908 12.448C5.21617 12.4294 5.35023 12.4158 5.41132 12.2885C5.50635 12.0951 5.69302 12.0034 5.84745 11.8761C5.93739 11.8015 6.04769 11.7709 6.1546 11.7319C6.25642 11.961 6.35994 12.1884 6.46854 12.4107C6.47703 12.4294 6.48721 12.4497 6.4957 12.4684C6.54491 12.5702 6.59582 12.6703 6.64673 12.7705C6.66879 12.8129 6.68915 12.8553 6.71121 12.8977C6.718 12.9096 6.72309 12.9215 6.72988 12.9334C6.718 12.9266 6.70273 12.9215 6.68915 12.9215ZM6.82661 17.539C6.84867 17.5424 6.86733 17.5695 6.8843 17.5882C6.95218 17.6629 6.98613 17.7019 7.00479 17.746C6.86903 17.6646 6.73497 17.5814 6.60091 17.4932C6.67727 17.5 6.75194 17.5254 6.82661 17.539ZM3.1136 16.458C3.10851 16.4495 3.10342 16.4427 3.09663 16.4342C3.04912 16.3647 2.99821 16.2968 2.95239 16.2255C2.91506 16.1678 2.87942 16.1067 2.84209 16.049C2.79796 15.9761 2.75045 15.9065 2.70802 15.8318C2.67239 15.7707 2.64014 15.7079 2.6062 15.6468C2.56547 15.5722 2.52305 15.4975 2.48232 15.4228C2.44838 15.3584 2.41953 15.2922 2.38729 15.226C2.34996 15.1496 2.31092 15.075 2.27529 14.9969C2.24474 14.929 2.2159 14.8594 2.18705 14.7899C2.15311 14.7118 2.11917 14.6354 2.08862 14.5557C2.05977 14.4827 2.03432 14.408 2.00717 14.3351C1.97832 14.257 1.94777 14.179 1.92062 14.0992C1.89516 14.0228 1.87141 13.9448 1.84765 13.8667C1.82389 13.792 1.79843 13.7174 1.77637 13.6427C1.87989 13.6665 1.9885 13.6868 2.1005 13.7055C2.12935 13.7106 2.15989 13.714 2.19044 13.7191C2.29056 13.7343 2.39408 13.7479 2.49929 13.7598C2.52644 13.7632 2.5519 13.7666 2.57905 13.7683C2.69444 13.7802 2.81154 13.7903 2.93203 13.7971C2.95578 13.8362 2.98123 13.8735 3.00669 13.9108C2.99142 14.05 2.98293 14.1908 2.98633 14.3317C2.99311 14.6524 2.98463 14.9748 2.99651 15.2956C2.9999 15.3957 3.05081 15.4958 3.08136 15.5942C3.08475 15.6044 3.10172 15.6129 3.11191 15.6214C3.13227 15.6367 3.15263 15.6536 3.17639 15.6655C3.29348 15.7266 3.38512 15.8081 3.46318 15.9048C3.30027 16.0982 3.18148 16.2832 3.1136 16.458ZM3.12039 16.5191C3.13227 16.5361 3.14584 16.5547 3.15772 16.5717C3.17809 16.5989 3.19506 16.6277 3.21542 16.6549C3.30875 16.7804 3.40548 16.9043 3.5056 17.0248C3.66512 17.2166 3.83143 17.3964 4.00282 17.5695C3.677 17.3354 3.36645 17.0808 3.07287 16.8076C3.07457 16.716 3.08645 16.6209 3.12039 16.5191ZM2.97784 13.8005C2.97954 13.8005 2.97954 13.8005 2.98123 13.8005C2.99311 13.8005 3.00669 13.8022 3.02027 13.8022C3.01857 13.8192 3.01687 13.8379 3.01518 13.8548C3.0016 13.8362 2.98802 13.8192 2.97784 13.8005ZM3.33251 13.3457C3.27142 13.4102 3.20863 13.4713 3.13906 13.5256C3.06609 13.5833 3.03893 13.6546 3.02536 13.7428C3.02366 13.753 3.02366 13.7615 3.02197 13.7717C2.99991 13.77 2.97784 13.77 2.95578 13.7683C2.3839 12.857 1.92741 11.8643 1.62195 10.8121C1.63213 10.8036 1.64062 10.7969 1.6508 10.7884C1.67286 10.7714 1.69492 10.7544 1.71698 10.7358C1.75092 10.7086 1.78486 10.6832 1.8205 10.656C1.84425 10.639 1.86632 10.6204 1.89007 10.6034C1.92741 10.5763 1.96474 10.5491 2.00208 10.5219C2.02583 10.505 2.04789 10.488 2.07165 10.471C2.11238 10.4422 2.1548 10.4133 2.19893 10.3828C2.22099 10.3675 2.24135 10.354 2.26341 10.3387C2.31602 10.303 2.37032 10.2674 2.42632 10.2318C2.4399 10.2233 2.45178 10.2148 2.46366 10.2063C2.53323 10.1622 2.60451 10.1164 2.67748 10.0723C2.68936 10.0655 2.70123 10.0587 2.71311 10.0502C2.7742 10.0129 2.8353 9.97552 2.89808 9.93818C2.92184 9.92461 2.9456 9.90933 2.97105 9.89576C3.02366 9.86521 3.07627 9.83467 3.12887 9.80412C3.15602 9.78885 3.18488 9.77189 3.21203 9.75661C3.26294 9.72776 3.31554 9.69891 3.36815 9.67007C3.39869 9.6531 3.42924 9.63612 3.45979 9.62085C3.51239 9.592 3.565 9.56315 3.6193 9.536C3.64985 9.51903 3.68209 9.50206 3.71264 9.48679C3.76694 9.45794 3.82294 9.42909 3.87724 9.40024C3.90949 9.38327 3.94003 9.368 3.97227 9.35103C4.03167 9.32049 4.09106 9.29163 4.15215 9.26109C4.181 9.24581 4.21155 9.23224 4.2404 9.21696C4.30828 9.18472 4.37616 9.15079 4.44573 9.11855C4.46949 9.10667 4.49325 9.09648 4.51701 9.0846C4.55774 9.06594 4.60016 9.04557 4.64259 9.0269C4.64259 9.03539 4.64259 9.04557 4.64428 9.05406C4.62392 9.06424 4.60186 9.07612 4.5815 9.0863C4.56283 9.09648 4.54077 9.11345 4.53228 9.13381C4.48986 9.24242 4.45082 9.35103 4.40161 9.48C4.49155 9.48 4.56961 9.47661 4.64598 9.4817C4.64937 9.4817 4.65277 9.48 4.65786 9.48C4.68162 10.0196 4.72913 10.5644 4.8021 11.1108C4.71047 11.0361 4.62052 10.9615 4.52889 10.8885C4.5204 10.8919 4.51701 10.8953 4.51192 10.897C4.41859 10.936 4.36089 11.0293 4.36598 11.1295C4.37276 11.2669 4.36088 11.4078 4.34391 11.5452C4.33543 11.6131 4.30149 11.681 4.27264 11.7455C4.2387 11.8167 4.24719 11.8897 4.2421 11.9644C4.23531 12.0883 4.2981 12.1511 4.39652 12.2071C4.50682 12.2699 4.60695 12.3462 4.71386 12.4141C4.74101 12.4311 4.77156 12.4412 4.8038 12.4429C4.87847 12.448 4.95483 12.4565 5.0295 12.4548C5.05665 12.5838 5.0872 12.7128 5.11605 12.8434C5.04817 12.8383 4.98029 12.8417 4.91241 12.8366C4.87677 12.8349 4.84114 12.8197 4.80889 12.801C4.70029 12.7382 4.59677 12.6686 4.48816 12.6075C4.42367 12.5719 4.33883 12.5991 4.32016 12.6686C4.25737 12.8842 4.12501 13.0301 3.91797 13.1183C3.85179 13.1472 3.789 13.1913 3.733 13.2371C3.65494 13.2999 3.57009 13.3254 3.47336 13.2982C3.41057 13.2813 3.37324 13.3033 3.33251 13.3457ZM4.75459 6.64094C4.73592 6.79536 4.71895 6.9498 4.70537 7.10592C4.69519 7.05332 4.68331 7.0007 4.67313 6.94809C4.66634 6.91415 4.66125 6.88192 4.65616 6.84798C4.63919 6.74785 4.62392 6.64943 4.60695 6.54931C4.65447 6.58325 4.70368 6.61379 4.75459 6.64094ZM4.53907 6.06397C4.53059 5.99439 4.5204 5.92312 4.51361 5.85355C4.51022 5.81961 4.50513 5.78566 4.50174 5.75172C4.48477 5.58711 4.47119 5.4259 4.46101 5.26638C4.45931 5.22735 4.45762 5.18832 4.45422 5.14929C4.45422 5.13741 4.45422 5.12554 4.45252 5.11196C4.45592 5.11705 4.45931 5.12214 4.46101 5.12723C4.47798 5.16117 4.50004 5.16456 4.53398 5.15777C4.61883 5.13741 4.70537 5.12044 4.78852 5.09669C4.82586 5.0865 4.84623 5.09329 4.87168 5.12045C4.90901 5.16117 4.94804 5.2019 4.98707 5.24262C4.92938 5.51075 4.87677 5.78567 4.83265 6.06567C4.73762 6.06397 4.64089 6.06397 4.53907 6.06397ZM4.71725 7.34349C4.72913 7.3978 4.73932 7.45041 4.7512 7.50471C4.76138 7.54883 4.77156 7.59295 4.78174 7.63707C4.81398 7.78301 4.84962 7.92896 4.88695 8.07829C4.89883 8.1292 4.91241 8.17842 4.92429 8.22933C4.94804 8.32096 4.9718 8.4126 4.99726 8.50424C4.88695 8.51781 4.77665 8.52969 4.66804 8.53987C4.67143 8.13598 4.6884 7.7355 4.71725 7.34349ZM5.00574 8.53478C5.0295 8.61963 5.05156 8.70448 5.07701 8.78933C5.05665 8.79951 5.03629 8.80799 5.01423 8.81818C4.93956 8.85211 4.86659 8.88436 4.79362 8.9183C4.75629 8.93527 4.72065 8.95224 4.68501 8.96921C4.67992 8.97091 4.67483 8.9743 4.67144 8.97599C4.66974 8.84023 4.66804 8.70617 4.66974 8.57211C4.78004 8.56023 4.89205 8.54836 5.00574 8.53478ZM5.19241 8.5229C5.19241 8.59587 5.19411 8.66714 5.19581 8.74011C5.16865 8.75199 5.1415 8.76217 5.11435 8.77405C5.11265 8.77575 5.10926 8.77575 5.10756 8.77745C5.10416 8.76557 5.10077 8.75369 5.09738 8.74181C5.07701 8.67054 5.06004 8.60096 5.03968 8.53138C5.09059 8.5246 5.1449 8.51781 5.19581 8.51102C5.19581 8.51441 5.19241 8.51951 5.19241 8.5229ZM5.1992 9.0286C5.1992 9.04727 5.22126 9.06933 5.23823 9.0829C5.26029 9.09987 5.30441 9.10327 5.30781 9.12024C5.32647 9.2 5.37059 9.27806 5.33156 9.3663C5.32308 9.38497 5.31459 9.40533 5.30611 9.424C5.28914 9.37479 5.27387 9.32558 5.25859 9.27636C5.22974 9.18473 5.20259 9.09479 5.17544 9.00315C5.15678 8.93867 5.13641 8.87418 5.11774 8.80969C5.1432 8.79781 5.17035 8.78763 5.1975 8.77575C5.1958 8.8589 5.1958 8.94375 5.1992 9.0286ZM5.21617 10.4422C5.22126 10.4473 5.22465 10.4541 5.22974 10.4592C5.32308 10.5678 5.4232 10.6696 5.51993 10.7765C5.53181 10.7901 5.54369 10.8172 5.54369 10.8359C5.54369 10.9462 5.54199 11.0565 5.5369 11.1668C5.5352 11.1906 5.52502 11.216 5.51484 11.2381C5.47751 11.3212 5.41471 11.3552 5.31968 11.3399C5.24501 11.328 5.16865 11.3314 5.09229 11.3246C5.06853 11.3229 5.04307 11.3094 5.02441 11.2941C4.96162 11.2432 4.89883 11.1923 4.83604 11.1397C4.76138 10.583 4.71047 10.0264 4.68671 9.47491C4.71725 9.46982 4.74441 9.45964 4.76986 9.43418C4.82756 9.37479 4.89374 9.32218 4.95313 9.26278C4.9718 9.24412 4.98877 9.21527 4.99386 9.18812C5.02271 9.03709 5.02101 9.03709 4.88695 8.97091C4.85641 8.95564 4.83095 8.95224 4.79871 8.97091C4.75629 8.99467 4.71386 9.01672 4.67144 9.03708C4.67144 9.0286 4.67144 9.02012 4.66974 9.01163C4.70877 8.99297 4.7478 8.9743 4.78852 8.95563C4.79192 8.95393 4.79362 8.95393 4.79701 8.95223C4.89204 8.90811 4.98707 8.86569 5.0855 8.82327C5.10586 8.89285 5.12793 8.96242 5.14829 9.0337C5.17374 9.11855 5.1992 9.20339 5.22635 9.28824C5.24502 9.34933 5.26538 9.40873 5.28575 9.46982C5.22126 9.61746 5.15677 9.76849 5.08889 9.92461C5.24162 9.98061 5.32477 10.1028 5.40623 10.2182C5.44696 10.2029 5.48429 10.1842 5.52162 10.1656C5.52841 10.1842 5.5352 10.2046 5.54199 10.2233C5.55726 10.2674 5.57593 10.3115 5.5912 10.3556C5.60138 10.3811 5.61157 10.4066 5.62005 10.432C5.52672 10.3862 5.43338 10.3404 5.34174 10.2878C5.34174 10.2878 5.34004 10.2878 5.34004 10.2861C5.24671 10.2335 5.14829 10.3539 5.21617 10.4422ZM5.06344 4.84384C5.07193 4.83196 5.08211 4.82008 5.09059 4.80989C5.0838 4.83535 5.07871 4.86081 5.07192 4.88626C5.06514 4.87438 5.05835 4.85232 5.06344 4.84384ZM7.74807 0.764275C7.77013 0.808396 7.79559 0.857617 7.81934 0.910224C7.80068 0.903436 7.78201 0.896648 7.76335 0.889861C7.71753 0.872891 7.6734 0.855914 7.62758 0.840641C7.58686 0.827065 7.54613 0.815191 7.5037 0.803313C7.48334 0.798222 7.46298 0.791436 7.44261 0.784648C7.54613 0.776163 7.64795 0.767669 7.74807 0.764275ZM7.54443 0.743912C7.60213 0.730336 7.65982 0.715065 7.71583 0.703186C7.72092 0.713368 7.72601 0.721858 7.7311 0.730343C7.67001 0.733737 7.60722 0.740518 7.54443 0.743912ZM12.4945 1.89956C12.5438 1.95895 12.593 2.02175 12.6422 2.08454C12.425 2.1066 12.2027 2.13374 11.977 2.16429C11.8955 2.16089 11.8141 2.1626 11.7224 2.1626C11.7275 2.17618 11.7326 2.18465 11.7394 2.19653C11.4254 2.24235 11.1047 2.29496 10.7789 2.35605C11.2557 2.11338 11.6494 1.86732 11.9464 1.62974C12.1297 1.71459 12.313 1.80283 12.4945 1.89956ZM11.9787 1.60259C12.0296 1.56016 12.0788 1.51944 12.1229 1.47701C12.2298 1.58732 12.3333 1.70271 12.4368 1.82489C12.2858 1.74683 12.1314 1.67386 11.9787 1.60259ZM14.4987 5.68723C14.5241 5.7076 14.5479 5.72797 14.5767 5.74494C14.6327 5.78057 14.6565 5.82639 14.648 5.89257C14.6395 5.96045 14.6361 6.03172 14.631 6.10978C14.5886 5.96723 14.5445 5.82639 14.4987 5.68723ZM14.5937 6.09791C14.5598 6.06906 14.5258 6.0419 14.4936 6.01475C14.385 5.92142 14.2781 5.82809 14.1712 5.73475C14.2509 5.69233 14.3307 5.6499 14.4087 5.60748C14.424 5.62275 14.4376 5.63972 14.4546 5.65329C14.5021 5.79923 14.5479 5.94858 14.5937 6.09791ZM14.6412 2.8397C14.553 2.77351 14.4681 2.70054 14.3799 2.63266C14.3646 2.62078 14.3375 2.6123 14.3222 2.61909C14.1983 2.67 14.0744 2.7209 13.9522 2.77351C13.6129 2.52405 13.2667 2.29665 12.9154 2.08962C13.8963 2.00477 14.7651 2.01156 15.4507 2.12356C15.4388 2.24914 15.4252 2.37642 15.4117 2.502C15.4083 2.52406 15.3896 2.55121 15.3692 2.56139C15.152 2.65981 14.9331 2.75654 14.7142 2.84988C14.6955 2.85836 14.6599 2.85327 14.6412 2.8397ZM13.9098 2.79048C13.8487 2.81593 13.7876 2.84139 13.7283 2.86684C13.7249 2.86854 13.7232 2.87363 13.7181 2.88042C13.7316 2.89569 13.7452 2.91097 13.7605 2.92624C13.8759 3.04164 13.993 3.15533 14.1067 3.27243C14.1236 3.2894 14.1372 3.32503 14.1355 3.34879C14.1203 3.60334 14.0999 3.85788 14.0812 4.11922C14.1864 4.13958 14.29 4.15995 14.4036 4.18201C14.3001 4.29231 14.2017 4.39583 14.0999 4.50444C14.2289 4.58589 14.3578 4.66735 14.4885 4.74881C14.4155 4.84384 14.3443 4.93717 14.2713 5.0305C13.9302 4.12601 13.5212 3.30637 13.0596 2.60721C13.0834 2.56139 13.0919 2.51048 13.0664 2.4426C13.0664 2.4409 13.0664 2.43921 13.0664 2.43751C13.063 2.40527 13.0512 2.3866 13.0104 2.38491C12.9748 2.38321 12.9392 2.3815 12.9035 2.37811C12.8543 2.30853 12.8068 2.23727 12.7559 2.17108C12.7406 2.15072 12.7236 2.13205 12.7084 2.11168C12.7576 2.10659 12.8051 2.10151 12.8543 2.09811C13.2141 2.30684 13.567 2.53932 13.9098 2.79048ZM12.8577 2.37641C12.7118 2.36623 12.5658 2.35436 12.4216 2.35945C12.2587 2.36454 12.1314 2.32212 12.0313 2.19314L12.0296 2.19145C12.2451 2.1626 12.4589 2.13714 12.6659 2.11508C12.6863 2.14053 12.7067 2.16429 12.7253 2.19145C12.7712 2.25084 12.8136 2.31362 12.8577 2.37641ZM12.6812 2.08114C12.6439 2.03362 12.6082 1.9878 12.5709 1.94198C12.6473 1.98271 12.7253 2.02683 12.8017 2.06926C12.761 2.07265 12.7202 2.07605 12.6812 2.08114ZM10.6601 2.37811C10.4683 2.41544 10.2749 2.45448 10.0797 2.4952C10.0628 2.47823 10.0458 2.46127 10.0271 2.4443C9.9847 2.40187 9.94058 2.36284 9.89815 2.32212C9.85064 2.278 9.80482 2.23217 9.75731 2.18975C9.71488 2.15072 9.67076 2.11339 9.62833 2.07605C9.58082 2.03532 9.535 1.99289 9.48748 1.95386C9.44506 1.91823 9.40263 1.88429 9.35851 1.84865C9.311 1.80962 9.26348 1.77059 9.21597 1.73496C9.17354 1.70102 9.13112 1.67047 9.08869 1.63993C9.04118 1.60429 8.99366 1.56865 8.94784 1.53641C8.90541 1.50587 8.86299 1.47871 8.82057 1.44986C8.77305 1.41762 8.72554 1.38538 8.67972 1.35483C8.63729 1.32768 8.59656 1.30392 8.55414 1.27847C8.50662 1.24962 8.45911 1.22077 8.41329 1.19362C8.37086 1.16986 8.33014 1.14949 8.28941 1.12743C8.24189 1.10198 8.19608 1.07652 8.15026 1.05446C8.10783 1.0341 8.0671 1.01544 8.02638 0.996771C7.98056 0.976408 7.93474 0.954339 7.88892 0.935672C7.88044 0.932278 7.87195 0.928885 7.86347 0.925491C7.83632 0.866096 7.80916 0.811797 7.78371 0.760888C9.17524 0.701493 10.5854 1.01374 11.9125 1.61617C11.5985 1.86393 11.176 2.12356 10.6601 2.37811ZM8.59147 2.88721C8.62371 2.97884 8.65596 3.07388 8.6899 3.17061C8.38105 3.27073 8.0705 3.36406 7.75995 3.44721C7.73958 3.342 7.71922 3.24018 7.70055 3.14006C7.99583 3.05012 8.2945 2.96527 8.59147 2.88721ZM7.69207 3.10781C7.67849 3.03314 7.66492 2.96188 7.65134 2.8906C7.68019 2.87194 7.71243 2.86345 7.75316 2.87194C7.81086 2.88551 7.87195 2.88381 7.93135 2.88551C7.95001 2.88551 7.97377 2.87702 7.98904 2.86514C8.07729 2.79557 8.16044 2.7226 8.24868 2.65642C8.30299 2.61569 8.33862 2.56817 8.35389 2.50369C8.36408 2.45617 8.38444 2.41544 8.4082 2.37811C8.4625 2.52914 8.5202 2.68696 8.5779 2.85666C8.28432 2.93472 7.98904 3.01787 7.69207 3.10781ZM8.43195 2.34417C8.46929 2.30005 8.5185 2.26441 8.58129 2.24235C8.6899 2.20332 8.7442 2.12526 8.75269 2.01157C8.75438 1.98611 8.75948 1.95896 8.76966 1.9369C8.78493 1.90126 8.76966 1.88939 8.73911 1.87581C8.61693 1.8232 8.49644 1.7655 8.37426 1.71289C8.34032 1.69932 8.30299 1.68913 8.26565 1.68913C8.2385 1.68913 8.21305 1.68913 8.18589 1.68744C8.07559 1.40743 7.97546 1.16477 7.88552 0.971313C7.9008 0.9781 7.91437 0.984888 7.92965 0.991676C7.99413 1.01883 8.05862 1.04598 8.12311 1.07822C8.14517 1.08841 8.16892 1.10197 8.19098 1.11385C8.25547 1.1461 8.32165 1.18004 8.38784 1.21738C8.4099 1.22926 8.43026 1.24283 8.45232 1.2564C8.5202 1.29544 8.58638 1.33447 8.65426 1.37689C8.67463 1.39047 8.69669 1.40574 8.71705 1.41932C8.78493 1.46344 8.85281 1.50756 8.92069 1.55677C8.93766 1.56865 8.95632 1.58392 8.97329 1.5958C9.04457 1.64671 9.11754 1.69932 9.18881 1.75532C9.20578 1.7689 9.22445 1.78417 9.24142 1.79774C9.31439 1.85544 9.38566 1.91145 9.45863 1.97254C9.46712 1.97933 9.4773 1.9878 9.48579 1.99629C9.65718 2.14053 9.82688 2.29496 9.99827 2.46126C10.0051 2.46805 10.0102 2.47315 10.0169 2.47994C10.0254 2.48842 10.0356 2.4986 10.0441 2.50708C9.57233 2.6089 9.09378 2.72261 8.61184 2.85158C8.54905 2.6717 8.48965 2.50538 8.43195 2.34417ZM7.60213 0.864402C7.62419 0.87119 7.64795 0.881376 7.67171 0.889861C7.72771 0.910224 7.78541 0.92889 7.84141 0.952648C7.93135 1.1478 8.03486 1.39217 8.15026 1.68575C7.91777 1.68235 7.68358 1.68066 7.4511 1.67557C7.40188 1.3175 7.37134 1.02052 7.36455 0.798217C7.38322 0.803308 7.40188 0.808403 7.41885 0.813494C7.47994 0.828767 7.54104 0.845735 7.60213 0.864402ZM7.6157 2.91606C7.6174 2.91437 7.6208 2.91266 7.62249 2.91097C7.63437 2.97885 7.64795 3.04673 7.66153 3.11631C7.52407 3.15703 7.38661 3.20116 7.24915 3.24528C7.25594 3.2351 7.26104 3.22491 7.26952 3.21642C7.38152 3.1146 7.50031 3.01618 7.6157 2.91606ZM7.66662 3.14855C7.68528 3.24867 7.70565 3.35049 7.72601 3.4557C7.41207 3.53886 7.10322 3.61012 6.79776 3.67291C6.80285 3.65934 6.80794 3.64746 6.81133 3.63388C6.82321 3.59655 6.84358 3.58128 6.8843 3.57958C6.98103 3.57619 7.07946 3.56939 7.18297 3.5643C7.19485 3.47776 7.20334 3.3946 7.22031 3.31145C7.22201 3.30466 7.2254 3.29788 7.2271 3.29109C7.37304 3.24357 7.51898 3.19267 7.66662 3.14855ZM7.76504 3.48115C7.89062 3.44721 8.01619 3.41327 8.14177 3.37594C8.32844 3.32164 8.51341 3.26395 8.69838 3.20285C8.8002 3.50152 8.90711 3.82564 9.01912 4.17352C9.02081 4.2465 9.01911 4.31946 9.02081 4.39413C9.02081 4.41449 9.0242 4.43656 9.0259 4.45862C9.05645 4.45862 9.0836 4.45862 9.11075 4.45862C9.30251 5.06105 9.50784 5.73476 9.72676 6.47973C9.64869 6.47804 9.57063 6.47464 9.49257 6.47294C9.45354 6.47124 9.423 6.48143 9.39076 6.50688C9.16845 6.67997 8.94105 6.84968 8.71705 7.02107C8.67802 7.05162 8.63899 7.08386 8.61014 7.12289C8.60166 7.13307 8.59317 7.14495 8.58638 7.15513C8.25547 5.79245 7.97377 4.53498 7.76504 3.48115ZM8.62202 2.87872C9.10906 2.74975 9.59269 2.63266 10.0712 2.53084C10.0984 2.558 10.1272 2.58684 10.1544 2.61399C9.69621 2.81594 9.21257 2.99752 8.71875 3.16043C8.6865 3.0654 8.65426 2.97036 8.62202 2.87872ZM10.1069 2.52236C10.2545 2.49181 10.4005 2.46126 10.5447 2.43242C10.4276 2.48842 10.3088 2.54441 10.1832 2.60042C10.1765 2.59363 10.1714 2.58854 10.1646 2.58175C10.1459 2.56308 10.1272 2.54272 10.1069 2.52236ZM14.0592 6.22687C13.9183 6.2099 13.7876 6.19973 13.657 6.17767C13.5823 6.16579 13.5382 6.18276 13.489 6.24555C13.4584 6.28458 13.4313 6.3253 13.4075 6.36773C13.3142 6.3813 13.2208 6.39488 13.1258 6.41015C13.0783 6.41864 13.0308 6.42543 12.9833 6.43391C12.9782 6.43391 12.9731 6.43561 12.9697 6.43561C12.9527 6.40506 12.9358 6.37452 12.9188 6.34228C13.2735 6.18446 13.6061 6.02493 13.9183 5.86542C13.9523 5.89596 13.9862 5.92481 14.0184 5.95536C14.0371 5.97233 14.0541 6.00627 14.0575 6.03173C14.0626 6.09452 14.0592 6.1556 14.0592 6.22687ZM12.9358 6.44239C12.7932 6.46615 12.649 6.49161 12.5047 6.51876C12.632 6.46446 12.7627 6.41355 12.8882 6.35755C12.9052 6.38639 12.9205 6.41355 12.9358 6.44239ZM13.1326 6.73597C13.1105 6.69524 13.0902 6.65452 13.0681 6.61549C13.041 6.56458 13.0138 6.51706 12.985 6.46615C13.1207 6.44409 13.2548 6.42543 13.3889 6.40337C13.3379 6.50688 13.304 6.61549 13.2786 6.72919C13.2684 6.7784 13.2429 6.80555 13.1954 6.82591C13.1903 6.82761 13.1869 6.8293 13.1818 6.831C13.1665 6.80045 13.1496 6.76821 13.1326 6.73597ZM13.6366 14.089C13.6756 14.123 13.7079 14.145 13.7333 14.1756C13.8521 14.3113 14.0083 14.3877 14.1712 14.4539C14.1881 14.4607 14.2051 14.4641 14.2238 14.4658C14.3816 14.4725 14.5394 14.4793 14.6972 14.4827C14.7142 14.4827 14.7363 14.4759 14.7498 14.4641C14.7855 14.4386 14.8177 14.4097 14.8517 14.3826C14.8584 14.386 14.8635 14.386 14.8635 14.3894C14.8924 14.4725 14.9535 14.4827 15.0264 14.4895C14.9959 14.6422 14.962 14.7933 14.9263 14.9426C14.8907 14.9188 14.8517 14.8951 14.816 14.8713C14.76 14.834 14.7074 14.7678 14.6497 14.7627C14.5971 14.7593 14.5428 14.8255 14.4851 14.8544C14.402 14.8968 14.3188 14.9375 14.2306 14.9681C14.1542 14.9952 14.0914 15.0546 14.0676 15.131C14.0507 15.1853 14.0167 15.1938 13.959 15.1751C13.8861 15.1496 13.8097 15.1361 13.7333 15.1208C13.6943 15.1123 13.674 15.0936 13.6604 15.0546C13.6163 14.9188 13.5687 14.7848 13.5212 14.6507C13.5076 14.6134 13.4873 14.5794 13.4737 14.5421C13.4601 14.5082 13.4381 14.4895 13.3973 14.4861C13.3583 14.4844 13.3345 14.4674 13.3329 14.4199C13.3312 14.3453 13.3176 14.2723 13.3074 14.1823C13.4449 14.2231 13.5636 14.2231 13.6366 14.089ZM14.2475 16.0813C14.3256 16.0711 14.4053 16.0575 14.4817 16.049C14.3612 16.0949 14.2373 16.1373 14.1152 16.1831C14.161 16.1492 14.2051 16.1152 14.2475 16.0813ZM14.2984 16.0422C14.3409 16.01 14.3833 15.9778 14.424 15.9455C14.5258 15.8658 14.626 15.7843 14.721 15.6978C14.6904 15.7962 14.6599 15.8963 14.6277 15.9913C14.6175 15.9947 14.6073 15.9998 14.5971 16.0032C14.5004 16.0151 14.3986 16.0304 14.2984 16.0422ZM14.648 16.0321C14.967 15.9998 15.2691 15.9828 15.544 15.9845C15.5406 16.0405 15.5389 16.0983 15.5338 16.1526C15.5304 16.1899 15.5271 16.2272 15.522 16.2646C15.5118 16.3681 15.4982 16.4699 15.4846 16.5683C15.4795 16.6056 15.4745 16.6413 15.4677 16.6769C15.4473 16.8042 15.4235 16.9281 15.3964 17.0486C15.3947 17.0587 15.3913 17.0672 15.3896 17.0774C15.3692 17.1656 15.3438 17.2488 15.32 17.332C15.3064 17.3455 15.2912 17.3591 15.2759 17.3727C15.186 17.4575 15.096 17.5424 15.0027 17.6238C14.9637 17.6578 14.9246 17.69 14.8856 17.724C14.8143 17.785 14.7414 17.8461 14.6684 17.9055C14.6243 17.9412 14.5784 17.9768 14.5326 18.0107C14.463 18.0651 14.3918 18.1194 14.3205 18.172C14.273 18.2076 14.2255 18.2415 14.1763 18.2755C14.105 18.3264 14.032 18.3756 13.959 18.4248C13.9098 18.4571 13.8606 18.4893 13.8114 18.5215C13.735 18.5691 13.6587 18.6166 13.5806 18.6624C13.5331 18.6912 13.4839 18.7201 13.4364 18.7472C13.3515 18.7965 13.265 18.8423 13.1767 18.8881C13.1343 18.9102 13.0919 18.9339 13.0495 18.9543C12.9544 19.0018 12.856 19.0476 12.7593 19.0917C13.5687 18.4011 14.2068 17.332 14.648 16.0321ZM14.721 15.9913C15.0061 15.8776 15.2861 15.7605 15.5627 15.6384C15.5627 15.6536 15.5627 15.6706 15.5627 15.6859C15.5627 15.6995 15.5627 15.713 15.5627 15.7283C15.5593 15.8047 15.5525 15.8776 15.5491 15.9506C15.2912 15.9506 15.0146 15.9642 14.721 15.9913ZM15.0231 18.1465C15.0298 18.1346 15.0366 18.1245 15.0434 18.1126C15.0926 18.0226 15.1384 17.9293 15.1809 17.8309C15.1877 17.8156 15.1944 17.8003 15.2012 17.7851C15.242 17.6866 15.2793 17.5831 15.3149 17.4762C15.32 17.4575 15.3268 17.4406 15.3319 17.4219C15.3387 17.3998 15.3472 17.3778 15.354 17.354C15.3862 17.3218 15.4185 17.2878 15.4507 17.2556C15.5271 17.1809 15.6017 17.1046 15.6764 17.0265C15.7205 16.9807 15.7629 16.9315 15.8071 16.884C15.8749 16.8093 15.9411 16.7346 16.0073 16.6583C16.0514 16.6073 16.0938 16.5547 16.138 16.5021C16.2008 16.4258 16.2618 16.3494 16.3229 16.2713C16.3654 16.217 16.4078 16.161 16.4502 16.105C16.457 16.0949 16.4638 16.0864 16.4723 16.0762C16.8796 16.1746 17.1069 16.3494 17.129 16.5785C17.129 16.587 17.129 16.5955 17.129 16.6023C16.4977 17.225 15.7833 17.7613 14.9976 18.1957C15.0027 18.1821 15.0129 18.1652 15.0231 18.1465ZM16.4044 16.0965C16.3314 16.1933 16.2568 16.29 16.1821 16.385C16.1431 16.4343 16.104 16.4818 16.0633 16.5293C15.9886 16.6192 15.9123 16.7058 15.8359 16.7923C15.7952 16.8381 15.7561 16.8823 15.7137 16.9264C15.6272 17.0214 15.5372 17.1131 15.4456 17.203C15.4201 17.2284 15.3964 17.2539 15.3709 17.2776C15.3845 17.2267 15.3964 17.1724 15.41 17.1198C15.4168 17.091 15.4252 17.0621 15.432 17.0333C15.4592 16.9128 15.4829 16.7906 15.5033 16.6616C15.5067 16.6345 15.5101 16.6073 15.5152 16.5819C15.5305 16.4767 15.544 16.3681 15.5559 16.2561C15.5593 16.217 15.5644 16.178 15.5678 16.1373C15.5729 16.0864 15.5763 16.0338 15.5797 15.9829C15.9004 15.9862 16.1872 16.0134 16.4248 16.0677C16.418 16.0796 16.4112 16.0881 16.4044 16.0965ZM15.5627 15.6027C15.2708 15.7317 14.9704 15.8573 14.6667 15.9761C14.7023 15.8692 14.7363 15.7605 14.7702 15.6502C14.8601 15.5637 14.9433 15.4704 15.0129 15.3652C15.0706 15.2786 15.1062 15.1785 15.1503 15.0885C15.0824 15.0444 15.0197 15.0037 14.9552 14.9613C14.9925 14.8068 15.0281 14.6507 15.0587 14.4929C15.1707 14.5031 15.2521 14.4708 15.3217 14.386C15.3709 14.3249 15.432 14.2723 15.4914 14.2129C15.4965 14.2163 15.5016 14.218 15.5067 14.2214C15.522 14.3724 15.5338 14.5234 15.544 14.6694C15.5457 14.7067 15.5474 14.7441 15.5491 14.7814C15.5559 14.9053 15.561 15.0291 15.5627 15.1496C15.5644 15.1938 15.5644 15.2379 15.5644 15.282C15.5661 15.3906 15.5644 15.4975 15.5627 15.6027ZM15.4541 2.09472C14.7549 1.98102 13.8691 1.97423 12.8679 2.06247C12.7491 1.99459 12.6303 1.92842 12.5098 1.86563C12.391 1.72138 12.2705 1.58392 12.1467 1.45495C12.4131 1.2038 12.5607 0.967922 12.5675 0.762587C13.5993 1.02562 14.575 1.44647 15.4626 2.00308C15.4609 2.03363 15.4575 2.06417 15.4541 2.09472ZM12.1246 1.43289C11.7377 1.0341 11.3321 0.713368 10.9163 0.480881C11.4662 0.528397 12.0075 0.621728 12.5353 0.754093C12.5319 0.954338 12.3876 1.18513 12.1246 1.43289ZM12.1008 1.45665C12.0533 1.50077 12.0024 1.5449 11.9464 1.58902C10.5769 0.964527 9.14978 0.665856 7.76674 0.728645C7.76165 0.716766 7.75486 0.706582 7.74977 0.694703C8.78493 0.460519 9.82348 0.390943 10.8349 0.472398C11.2693 0.706582 11.6953 1.03749 12.1008 1.45665ZM7.74128 0.594576C7.72771 0.599667 7.71583 0.604763 7.70225 0.609854C7.70055 0.608157 7.69886 0.604766 7.69886 0.603069C7.72262 0.596281 7.74468 0.591183 7.76844 0.584395C7.75825 0.589486 7.74977 0.591182 7.74128 0.594576ZM7.70055 0.672641C7.64964 0.68452 7.60043 0.696404 7.54952 0.70998C7.55971 0.706586 7.56989 0.701494 7.58007 0.6981C7.6174 0.682827 7.65304 0.667553 7.69037 0.653977C7.69377 0.659068 7.69716 0.665853 7.70055 0.672641ZM7.36285 0.742224C7.36285 0.725254 7.36285 0.709977 7.36285 0.696402C7.3951 0.68622 7.42904 0.677738 7.46128 0.667556C7.42734 0.691314 7.3951 0.716769 7.36285 0.742224ZM7.41716 1.67387C7.17788 1.66708 6.93861 1.6552 6.70103 1.64841C6.67727 1.64841 6.64673 1.6586 6.62806 1.67557C6.54321 1.74345 6.46006 1.81641 6.37351 1.89108C6.37182 1.89108 6.37181 1.88938 6.37012 1.88938C6.6586 1.46683 6.97764 1.10028 7.33231 0.810097C7.3391 1.0307 7.36964 1.32429 7.41716 1.67387ZM7.23897 0.772768C7.16091 0.781253 7.08116 0.791432 7.00309 0.801614C7.05231 0.786341 7.10322 0.771065 7.15243 0.755792C7.16091 0.757489 7.1677 0.757492 7.17619 0.759189C7.19655 0.76428 7.21861 0.767677 7.23897 0.772768ZM7.2237 0.737128C7.25934 0.726946 7.29328 0.716765 7.32891 0.706583C7.32891 0.723553 7.32891 0.738822 7.32891 0.755792C7.29328 0.747307 7.25934 0.743916 7.2237 0.737128ZM5.50465 1.55338C5.5318 1.5398 5.55726 1.52453 5.58441 1.51435C5.63702 1.49568 5.65059 1.45665 5.65908 1.40744C6.12745 1.18853 6.61618 1.00186 7.12528 0.85422C7.13716 0.850826 7.14903 0.847433 7.16091 0.844039C7.08625 0.879675 7.01158 0.913616 6.93691 0.950949C6.91994 0.959435 6.90127 0.969612 6.8843 0.978097C6.7757 1.0341 6.66879 1.0901 6.56358 1.15119C6.52115 1.17495 6.47873 1.20041 6.4363 1.22586C6.35654 1.27338 6.27678 1.32089 6.19703 1.3701C6.14951 1.39895 6.10369 1.4295 6.05787 1.46005C5.9849 1.50756 5.91193 1.55677 5.83896 1.60768C5.79144 1.63993 5.74563 1.67387 5.69981 1.70611C5.62854 1.75702 5.55726 1.81132 5.48769 1.86393C5.44357 1.89787 5.39944 1.9318 5.35532 1.96574C5.28065 2.02514 5.20768 2.08623 5.13471 2.14732C5.09738 2.17787 5.06004 2.20841 5.02271 2.24065C4.92259 2.3289 4.82247 2.41884 4.72404 2.51048C4.71726 2.51727 4.71046 2.52236 4.70367 2.52914C4.70537 2.52236 4.70707 2.51387 4.71046 2.50538C4.71386 2.49351 4.71725 2.48332 4.72234 2.47144C4.75798 2.35944 4.79701 2.25254 4.84114 2.14902C4.84453 2.14054 4.84792 2.13205 4.85301 2.12356C4.89713 2.02005 4.94465 1.92162 4.99726 1.82659C5.00065 1.8215 5.00404 1.81641 5.00744 1.80962C5.01083 1.80284 5.01423 1.79774 5.01932 1.79265C5.17374 1.7095 5.34174 1.63483 5.50465 1.55338ZM5.00235 2.30854C5.03798 2.2763 5.07532 2.24575 5.11265 2.21351C5.18562 2.15072 5.26029 2.08792 5.33665 2.02683C5.38077 1.9912 5.4249 1.95726 5.46902 1.92332C5.54029 1.86902 5.61157 1.81302 5.68284 1.76042C5.73035 1.72648 5.77787 1.69253 5.82539 1.65859C5.89836 1.60768 5.97133 1.55847 6.0443 1.50925C6.09351 1.47701 6.14103 1.44477 6.19194 1.41422C6.2683 1.36671 6.34466 1.31919 6.42272 1.27337C6.47024 1.24452 6.51945 1.21567 6.56697 1.18852C6.65182 1.14101 6.73836 1.0935 6.82491 1.04938C6.86733 1.02732 6.90976 1.00355 6.95218 0.981494C7.04721 0.933978 7.14564 0.88816 7.24237 0.844039C6.91146 1.12744 6.61109 1.47532 6.33957 1.87411C6.28018 1.84017 6.22418 1.80623 6.16478 1.7706C6.15121 1.78757 6.13933 1.80284 6.12745 1.81981C6.02733 1.96235 5.9289 2.10659 5.82708 2.24914C5.80163 2.28477 5.76599 2.31702 5.72866 2.33908C5.41132 2.52575 5.09229 2.70902 4.77495 2.89569C4.72404 2.92623 4.67652 2.96866 4.6358 3.01278C4.61034 3.03993 4.58998 3.07048 4.56622 3.09763C4.5798 3.02636 4.59168 2.95509 4.60695 2.88721C4.60865 2.87872 4.61034 2.87194 4.61373 2.86346C4.6341 2.77352 4.65956 2.68866 4.68501 2.60381C4.6901 2.59872 4.69689 2.59363 4.70367 2.58685C4.8004 2.49012 4.90053 2.39848 5.00235 2.30854ZM4.59337 2.81424C4.58658 2.84139 4.5798 2.86854 4.57301 2.89739C4.55434 2.97884 4.54077 3.0637 4.52549 3.14855C4.49834 3.18249 4.4678 3.21473 4.44064 3.25036C4.35579 3.36406 4.25228 3.44892 4.12161 3.51001C3.97058 3.57958 3.82803 3.66612 3.6787 3.7374C3.72621 3.67461 3.77373 3.61183 3.82294 3.55073C3.86197 3.50152 3.9027 3.454 3.94173 3.40648C4.0164 3.31824 4.09107 3.2317 4.16743 3.14515C4.20816 3.09933 4.24888 3.05351 4.29131 3.0077C4.37616 2.91606 4.4627 2.82611 4.55095 2.73787C4.5781 2.71072 4.60355 2.68357 4.63071 2.65642C4.61883 2.70563 4.60695 2.76163 4.59337 2.81424ZM3.98415 5.17305C3.99603 5.16966 4.00791 5.17475 4.01979 5.17135C4.05203 5.16287 4.08598 5.15778 4.11313 5.14081C4.19798 5.08481 4.27943 5.02541 4.36428 4.96432C4.38294 4.99486 4.39992 5.02541 4.41858 5.05596C4.42028 5.0916 4.42028 5.12554 4.42198 5.16117C4.42368 5.2019 4.42537 5.24093 4.42876 5.28166C4.43895 5.44288 4.45253 5.60578 4.4695 5.77208C4.47119 5.79414 4.47458 5.81621 4.47798 5.83827C4.48646 5.91633 4.49834 5.99779 4.50683 6.07585C4.50683 6.20652 4.50683 6.33039 4.50852 6.45427C4.50852 6.46955 4.5204 6.48821 4.53398 6.4967C4.54586 6.50518 4.55774 6.51367 4.56962 6.52216C4.58828 6.63755 4.60525 6.75464 4.62731 6.87174C4.6324 6.90228 4.63749 6.93113 4.64259 6.96167C4.65956 7.04991 4.67653 7.13816 4.69519 7.2281C4.65955 7.65913 4.63919 8.09696 4.6358 8.54326C3.40718 8.66545 2.33638 8.65018 1.56425 8.47029C1.58292 8.37526 1.60159 8.28193 1.62195 8.1869C1.63553 8.12411 1.6508 8.05963 1.66607 7.99684C1.69322 7.87975 1.72377 7.76265 1.75601 7.64725C1.77128 7.58955 1.78656 7.53016 1.80353 7.47247C1.84425 7.33162 1.88838 7.19246 1.9342 7.05331C1.94438 7.02276 1.95286 6.99222 1.96304 6.96167C2.02074 6.79197 2.08184 6.62566 2.14632 6.45936C2.16329 6.41694 2.18196 6.37452 2.19893 6.3304C2.24814 6.20822 2.29905 6.08603 2.35335 5.96554C2.37881 5.90954 2.40426 5.85354 2.42971 5.79924C2.47893 5.69233 2.52984 5.58711 2.58244 5.48359C2.59941 5.50396 2.62317 5.52093 2.65542 5.5379C2.75554 5.5905 2.84039 5.5939 2.93712 5.5379C3.00669 5.49717 3.08645 5.4802 3.14415 5.41402C3.25106 5.29354 3.36645 5.18153 3.47506 5.06274C3.5073 5.02711 3.53276 5.02372 3.5684 5.05426C3.68718 5.16117 3.82294 5.21378 3.98415 5.17305ZM4.6358 8.57551C4.6358 8.71296 4.6358 8.85212 4.6375 8.99127C4.59507 9.01163 4.55265 9.0303 4.51022 9.05066C4.47119 9.06933 4.43216 9.088 4.39313 9.10667C4.34052 9.13212 4.28792 9.15758 4.23531 9.18303C4.19628 9.2017 4.15725 9.22206 4.11822 9.24072C4.06731 9.26618 4.0181 9.28994 3.96888 9.31539C3.92985 9.33575 3.89082 9.35443 3.85179 9.37479C3.80427 9.39855 3.75676 9.424 3.71094 9.44776C3.67191 9.46812 3.63457 9.48849 3.59554 9.50885C3.54972 9.53261 3.50391 9.55806 3.45979 9.58182C3.42245 9.60218 3.38512 9.62254 3.34948 9.64291C3.30536 9.66836 3.26124 9.69212 3.21712 9.71758C3.18148 9.73794 3.14754 9.75661 3.1136 9.77698C3.06778 9.80243 3.02366 9.82788 2.97954 9.85503C2.9473 9.8737 2.91675 9.89237 2.88451 9.91103C2.83699 9.93819 2.79117 9.96703 2.74705 9.99419C2.7199 10.0112 2.69275 10.0281 2.6656 10.0434C2.6079 10.079 2.5502 10.1164 2.4942 10.152C2.48232 10.1605 2.46875 10.1673 2.45687 10.1758C2.38899 10.2199 2.32111 10.264 2.25662 10.3081C2.23626 10.3217 2.21759 10.3353 2.19723 10.3489C2.15311 10.3794 2.10729 10.4099 2.06486 10.4405C2.04111 10.4575 2.01904 10.4744 1.99529 10.4897C1.95795 10.5169 1.91892 10.544 1.88328 10.5712C1.85953 10.5881 1.83577 10.6068 1.81201 10.6238C1.77807 10.6492 1.74413 10.6764 1.71019 10.7018C1.68644 10.7205 1.66437 10.7375 1.64062 10.7561C1.63213 10.7629 1.62365 10.7697 1.61346 10.7765C1.52013 10.4541 1.44377 10.1316 1.38268 9.80922C1.38268 9.80243 1.38267 9.79564 1.38437 9.78886C1.39795 9.60898 1.41492 9.43079 1.43698 9.2526C1.44207 9.21697 1.44716 9.18133 1.45225 9.14739C1.47092 9.00484 1.49298 8.86229 1.51673 8.71975C1.52692 8.65866 1.5388 8.59926 1.55068 8.53987C1.55237 8.52629 1.55577 8.51442 1.55916 8.50084C2.33299 8.68242 3.40548 8.69769 4.6358 8.57551ZM1.49807 8.61115C1.47262 8.7503 1.45056 8.89115 1.43019 9.0303C1.42171 9.09139 1.41322 9.15079 1.40474 9.21188C1.38607 9.36121 1.3708 9.51055 1.35722 9.65988C1.28425 9.23733 1.23674 8.81818 1.21807 8.40581C1.3114 8.43805 1.40813 8.4669 1.51504 8.49406C1.50995 8.53309 1.50486 8.57212 1.49807 8.61115ZM1.35722 10.3319C1.36062 10.1995 1.3674 10.0672 1.37589 9.9348C1.43358 10.2216 1.50147 10.5101 1.58462 10.7986C1.57104 10.8087 1.55916 10.8206 1.54559 10.8308C1.52352 10.8495 1.50146 10.8664 1.4811 10.8851C1.45055 10.9106 1.42171 10.936 1.39286 10.9615C1.38268 10.97 1.3708 10.9801 1.36062 10.9886C1.35892 10.953 1.35892 10.9174 1.35722 10.8817C1.35383 10.7612 1.35383 10.6407 1.35552 10.5219C1.35552 10.4592 1.35553 10.3964 1.35722 10.3319ZM1.39795 10.9971C1.42849 10.97 1.45904 10.9445 1.49128 10.9173C1.51164 10.9004 1.53201 10.8834 1.55238 10.8664C1.56595 10.8546 1.57953 10.8444 1.5931 10.8325C1.89347 11.8609 2.33978 12.8485 2.90996 13.7632C2.84718 13.7598 2.78608 13.753 2.72329 13.7479C2.68257 13.7445 2.64014 13.7428 2.60111 13.7377C2.54681 13.7326 2.4942 13.7259 2.4399 13.7191C2.39408 13.714 2.34656 13.7089 2.30244 13.7021C2.25492 13.6953 2.21081 13.6868 2.16329 13.68C2.11578 13.6733 2.06656 13.6665 2.02074 13.658C1.97832 13.6495 1.93928 13.641 1.89856 13.6325C1.85274 13.6223 1.80692 13.6139 1.7628 13.6037C1.7611 13.5969 1.75941 13.5918 1.75771 13.585C1.71868 13.451 1.68474 13.3169 1.6525 13.1828C1.64401 13.1472 1.63553 13.1099 1.62704 13.0742C1.5948 12.9334 1.56256 12.7908 1.5371 12.65C1.5371 12.6483 1.5371 12.6466 1.5354 12.6449C1.50825 12.504 1.48619 12.3632 1.46583 12.2206C1.46074 12.185 1.45565 12.1477 1.45056 12.112C1.43189 11.9729 1.41492 11.8337 1.40134 11.6929C1.40134 11.6895 1.39965 11.6861 1.39965 11.681C1.38607 11.5384 1.37589 11.3959 1.3674 11.2533C1.36571 11.216 1.36401 11.1787 1.36231 11.1413C1.36062 11.104 1.36061 11.065 1.35892 11.0277C1.37249 11.0192 1.38607 11.009 1.39795 10.9971ZM1.73904 13.6342C1.7628 13.714 1.78825 13.792 1.81371 13.8718C1.83916 13.9499 1.86122 14.0296 1.88838 14.106C1.91553 14.1874 1.94777 14.2655 1.97662 14.3453C2.00377 14.4199 2.02923 14.4946 2.05977 14.5676C2.09202 14.6473 2.12595 14.7254 2.15989 14.8034C2.19044 14.8747 2.21929 14.946 2.25153 15.0156C2.28887 15.097 2.32959 15.1751 2.36863 15.2531C2.40087 15.3176 2.43141 15.3838 2.46366 15.4483C2.50778 15.5315 2.55529 15.6129 2.60111 15.6944C2.63335 15.7521 2.6622 15.8098 2.69614 15.8658C2.74705 15.9523 2.80136 16.0355 2.85566 16.1203C2.88621 16.1695 2.91675 16.2204 2.9473 16.268C2.99651 16.3426 3.05081 16.4156 3.10172 16.4886C3.06609 16.5887 3.04742 16.6854 3.04402 16.7787C1.95795 15.7639 1.10098 14.4997 0.58679 13.0437C0.596972 13.0556 0.605454 13.0657 0.615635 13.0776L0.617334 13.0793C0.661456 13.1268 0.710669 13.171 0.76667 13.2151C0.768367 13.2168 0.768365 13.2168 0.770062 13.2185C0.826062 13.2609 0.887153 13.3016 0.955033 13.3406C0.95673 13.3423 0.958427 13.3423 0.960124 13.344C1.028 13.3831 1.10097 13.4187 1.17904 13.4526C1.18073 13.4543 1.18413 13.4543 1.18583 13.456C1.26389 13.49 1.34873 13.5205 1.43867 13.5494C1.44207 13.5511 1.44546 13.5511 1.44886 13.5528C1.5388 13.5816 1.63383 13.6088 1.73565 13.6325C1.73395 13.6325 1.73735 13.6325 1.73904 13.6342ZM3.07287 16.8636C3.41057 17.1741 3.77373 17.4626 4.15894 17.7274C3.48524 17.5543 3.10851 17.259 3.07287 16.8704C3.07287 16.867 3.07287 16.8653 3.07287 16.8636ZM4.13688 17.6646C4.12331 17.6527 4.10973 17.6408 4.09616 17.6272C4.05034 17.5814 4.00622 17.5339 3.9604 17.4864C3.901 17.4253 3.84161 17.3659 3.78561 17.3048C3.74149 17.2556 3.69906 17.2047 3.65494 17.1538C3.60064 17.091 3.54294 17.0282 3.49033 16.9637C3.44791 16.9111 3.40718 16.8568 3.36645 16.8025C3.31554 16.7363 3.26294 16.6718 3.21203 16.6039C3.18488 16.5666 3.15942 16.5276 3.13227 16.4903C3.19845 16.3138 3.31554 16.1254 3.48185 15.9303C3.51918 15.9778 3.55312 16.0287 3.58367 16.083C3.70415 16.2985 3.89761 16.4512 4.09276 16.5955C4.2998 16.7482 4.51871 16.889 4.73932 17.0231C4.81398 17.0689 4.91241 17.0757 4.99895 17.1046C5.1432 17.1504 5.28914 17.169 5.44017 17.147C5.51823 17.1368 5.59968 17.1419 5.67944 17.1453C5.71338 17.147 5.74732 17.1623 5.78126 17.1741C5.79823 17.1792 5.81181 17.1911 5.82878 17.1996C5.98829 17.2692 6.12915 17.3642 6.23436 17.5033C6.25812 17.5356 6.28696 17.5424 6.3226 17.5339C6.3786 17.522 6.4363 17.5169 6.4923 17.5016C6.50588 17.4983 6.51946 17.4983 6.53303 17.4966C6.69424 17.6035 6.85715 17.7036 7.02007 17.8003C7.02176 17.8139 7.02346 17.8292 7.02516 17.8461C5.9289 17.9378 4.9718 17.9123 4.26246 17.7511C4.22004 17.724 4.17931 17.6934 4.13688 17.6646ZM7.84989 19.6738C7.83971 19.6721 7.82783 19.6704 7.81765 19.667C7.76165 19.6551 7.70734 19.6399 7.65304 19.6263C7.57837 19.6076 7.50201 19.5906 7.42734 19.5703C7.36964 19.5533 7.31025 19.5346 7.25255 19.516C7.18128 19.4939 7.11001 19.4736 7.04043 19.4498C6.97255 19.426 6.90637 19.4006 6.83849 19.3751C6.77909 19.3531 6.718 19.3327 6.65861 19.3089C6.53303 19.258 6.40745 19.2037 6.28188 19.146C6.14612 19.0832 6.01205 19.0154 5.88138 18.9458C5.83387 18.9203 5.78805 18.8915 5.74223 18.866C5.65908 18.8202 5.57593 18.7744 5.49617 18.7235C5.44017 18.6895 5.38587 18.6505 5.33156 18.6149C5.26199 18.5708 5.19241 18.5266 5.12453 18.4791C5.07023 18.4418 5.01932 18.4011 4.96671 18.3637C4.90053 18.3145 4.83265 18.267 4.76647 18.2161C4.71556 18.1754 4.66634 18.1329 4.61713 18.0922C4.55265 18.0396 4.48816 17.987 4.42537 17.9327C4.39143 17.9021 4.35919 17.8716 4.32695 17.841C4.57131 18.0023 4.82416 18.155 5.0872 18.2975C5.83726 18.7031 6.62636 19.0086 7.43922 19.2156C7.43922 19.2207 7.43922 19.2258 7.43922 19.2326C7.4528 19.4159 7.59534 19.5669 7.84989 19.6738ZM7.46807 19.2258C7.46807 19.2241 7.46807 19.2224 7.46807 19.2207C7.70734 19.2801 7.94831 19.3293 8.18929 19.3734C8.19777 19.3785 8.20625 19.3836 8.21474 19.387C8.22662 19.3921 8.2385 19.4057 8.24189 19.4159C8.26056 19.5007 8.27753 19.5856 8.2945 19.6721C8.37935 19.7162 8.46759 19.7552 8.55414 19.7926C8.5202 19.7875 8.48626 19.7824 8.45232 19.779C8.37087 19.7688 8.29111 19.7586 8.20965 19.7451C8.1791 19.74 8.14856 19.7332 8.11802 19.7281C7.71583 19.628 7.49013 19.4549 7.46807 19.2258ZM7.46977 19.18C7.47146 19.0849 7.5054 18.9848 7.5665 18.8779C7.61571 18.9543 7.68189 19.0171 7.76165 19.0714C7.87365 19.146 7.97377 19.2394 8.08577 19.314C7.88044 19.275 7.6734 19.2309 7.46977 19.18ZM7.43752 19.1715C6.326 18.8881 5.27556 18.4231 4.33543 17.8003C5.03968 17.948 5.96623 17.9683 7.02855 17.8801C7.02855 17.9038 7.03025 17.9293 7.03025 17.9598C7.03194 18.0566 7.03364 18.155 7.04043 18.2517C7.04213 18.2738 7.0557 18.3009 7.07097 18.3162C7.11679 18.362 7.166 18.4078 7.21861 18.4469C7.25764 18.4757 7.30516 18.4927 7.34588 18.5182C7.36964 18.5317 7.39679 18.5487 7.41037 18.5708C7.4494 18.6369 7.48843 18.7048 7.51728 18.7761C7.52746 18.7998 7.53934 18.8219 7.55122 18.844C7.47825 18.9611 7.44092 19.0697 7.43752 19.1715ZM7.08115 13.5799C7.08285 13.5833 7.08455 13.5867 7.08625 13.5884C7.08455 13.5884 7.08455 13.5901 7.08285 13.5901C7.08285 13.5884 7.08115 13.585 7.08115 13.5799ZM7.14903 13.7547C7.11509 13.7428 7.09643 13.7293 7.09303 13.6902C7.09134 13.6682 7.08794 13.6478 7.08625 13.6257C7.09134 13.624 7.09643 13.6206 7.10152 13.6189C7.12188 13.6563 7.14224 13.6936 7.16431 13.731C7.17109 13.7428 7.17958 13.7564 7.18637 13.7683C7.17449 13.7649 7.16261 13.7598 7.14903 13.7547ZM7.07267 13.4968C7.07267 13.4951 7.07267 13.4934 7.07267 13.4917C7.20504 13.4696 7.3391 13.4459 7.47486 13.4204C7.47825 13.4204 7.47995 13.4187 7.48334 13.4187C7.36116 13.4713 7.23897 13.5222 7.11849 13.5765C7.10152 13.5494 7.08625 13.5239 7.07267 13.4968ZM7.06758 13.4577C7.06079 13.4 7.0557 13.3423 7.04722 13.2846C7.04382 13.2575 7.03194 13.232 7.01328 13.2117C6.9437 13.1353 6.87073 13.0623 6.79776 12.9894C6.79606 12.9843 6.79267 12.9809 6.79097 12.9758C6.7757 12.9469 6.76042 12.9198 6.74685 12.8909C6.69424 12.7874 6.64164 12.6822 6.58903 12.5787C6.57036 12.5397 6.55 12.5006 6.52963 12.4616C6.47872 12.3598 6.43121 12.2546 6.382 12.1511C6.36163 12.1086 6.34127 12.0662 6.32091 12.0238C6.27509 11.9254 6.23097 11.8269 6.18684 11.7285C6.18515 11.7251 6.18345 11.7217 6.18175 11.7166C6.19363 11.7115 6.20551 11.7081 6.21739 11.7031C6.22927 11.698 6.24454 11.6997 6.25811 11.6997C6.52794 11.7014 6.79776 11.7048 7.06758 11.7048C7.11679 11.7048 7.14055 11.7217 7.15921 11.7675C7.19825 11.8643 7.24916 11.9576 7.28479 12.056C7.3391 12.2054 7.45958 12.3038 7.55801 12.4192C7.57498 12.4395 7.60892 12.4463 7.62758 12.4616C7.68189 12.504 7.74128 12.5431 7.80746 12.5634C7.93813 12.6025 7.98735 12.6126 7.98395 12.6924C7.98056 12.801 7.98225 12.9096 7.98225 13.0267C8.04504 13.0131 8.10274 13.0012 8.15874 12.986C8.17062 12.9826 8.1791 12.9605 8.1842 12.9452C8.20117 12.8706 8.21644 12.7942 8.23341 12.7178H8.3488C8.35729 12.6534 8.36747 12.5974 8.30129 12.5498C8.17232 12.4565 8.05014 12.3547 7.92116 12.2631C7.89062 12.241 7.83801 12.2461 7.79558 12.2461C7.75486 12.2461 7.73619 12.2359 7.72601 12.1935C7.68868 12.0323 7.64625 11.8728 7.60213 11.7031C7.68359 11.7031 7.75147 11.7014 7.81934 11.7048C7.82953 11.7048 7.84819 11.7217 7.84989 11.7319C7.86516 11.8846 7.98735 11.9627 8.08577 12.0543C8.21644 12.1782 8.36068 12.2902 8.49305 12.4141C8.55414 12.4701 8.61184 12.5329 8.65596 12.6042C8.68311 12.6483 8.67802 12.7111 8.69159 12.7654C8.69668 12.7891 8.70856 12.8214 8.72553 12.8282C8.76626 12.8468 8.79511 12.8723 8.81887 12.8994C8.41329 13.0454 8.0128 13.1998 7.62079 13.3627C7.43752 13.395 7.25255 13.4272 7.06758 13.4577ZM8.84263 12.9249C8.87317 12.9741 8.88845 13.0318 8.89184 13.0946C8.5202 13.1794 8.15196 13.2575 7.7888 13.3288C8.13329 13.1862 8.48626 13.0522 8.84263 12.9249ZM9.7607 6.47973C9.54857 5.75851 9.34154 5.08141 9.14299 4.45862C9.14808 4.45862 9.15318 4.45862 9.15657 4.45862C9.16845 4.3551 9.17863 4.25498 9.19221 4.15656C9.1956 4.1362 9.20748 4.11243 9.22275 4.09886C9.3059 4.02419 9.38736 3.94953 9.47391 3.87995C9.51463 3.84771 9.52142 3.81206 9.51124 3.76624C9.49257 3.68649 9.4773 3.60673 9.46033 3.53037C9.51124 3.53376 9.56554 3.55413 9.60966 3.53885C9.65888 3.52188 9.69791 3.47267 9.74203 3.43873C9.74882 3.43364 9.7573 3.43025 9.7607 3.42516C9.76748 3.41667 9.77597 3.40479 9.77597 3.3946C9.78106 3.30297 9.78446 3.21303 9.71827 3.13667C9.68094 3.09424 9.55875 3.08067 9.51972 3.12309C9.46203 3.18588 9.40433 3.24867 9.34833 3.31315C9.32627 3.33861 9.3059 3.3471 9.27196 3.34031C9.20239 3.32504 9.13112 3.31825 9.05136 3.30637C9.02251 3.43025 8.99366 3.54734 8.96651 3.66443C8.96312 3.678 8.9682 3.69667 8.97499 3.71025C9.01063 3.79001 9.01572 3.87316 9.01572 3.9597C9.01572 3.99704 9.01572 4.03438 9.01742 4.07171C8.91899 3.76625 8.82226 3.47437 8.72893 3.19776C9.22784 3.03485 9.71657 2.84987 10.1782 2.64454C10.7399 3.21473 11.2948 3.89182 11.8225 4.65038C11.8259 4.65547 11.831 4.66056 11.8344 4.66734C11.8785 4.73013 11.921 4.79632 11.9651 4.8591C11.9634 4.8608 11.9634 4.8642 11.9634 4.8659C11.9481 4.90493 11.943 4.95075 11.9413 4.99317C11.9379 5.21887 11.9379 5.44457 11.9328 5.67027C11.9294 5.78227 11.9922 5.87051 12.0652 5.9299C12.1619 6.00796 12.2858 6.05209 12.4012 6.11318C12.4301 6.05718 12.4521 6.00457 12.4827 5.95536C12.5047 5.91972 12.503 5.89427 12.4759 5.86203C12.3842 5.75342 12.3011 5.64142 12.2077 5.53621C12.1433 5.46494 12.1144 5.38856 12.1178 5.29523C12.1195 5.22565 12.1127 5.15608 12.1025 5.0882C12.1008 5.07802 12.1008 5.06783 12.1008 5.05935C12.1704 5.16456 12.24 5.27147 12.3079 5.38008C12.3164 5.39366 12.3248 5.40554 12.3333 5.41912C12.3944 5.51415 12.4521 5.61257 12.5115 5.71099C12.5319 5.74493 12.5522 5.77717 12.5743 5.81281C12.6337 5.91293 12.6931 6.01476 12.7508 6.11488C12.7695 6.14882 12.7898 6.18106 12.8085 6.215C12.8305 6.25403 12.8526 6.29476 12.8747 6.33548C12.7084 6.40845 12.5404 6.47973 12.3724 6.551C12.1942 6.58494 12.0143 6.62058 11.8344 6.65791C11.792 6.6664 11.7496 6.67658 11.7071 6.68506C11.5459 6.719 11.383 6.75464 11.2201 6.79197C11.1896 6.79876 11.1607 6.80555 11.1302 6.81234C11.0487 6.72918 10.9673 6.64434 10.8858 6.55949C10.8654 6.53743 10.823 6.52046 10.7925 6.51876C10.448 6.4984 10.1052 6.48822 9.7607 6.47973ZM10.3326 13.4696C10.3784 13.4611 10.4242 13.4357 10.4649 13.4119C10.504 13.3882 10.5345 13.3865 10.5769 13.4204C10.6686 13.4951 10.7891 13.5273 10.9028 13.4917C11.0589 13.4425 11.2252 13.4679 11.31 13.6325C11.3677 13.7445 11.3745 13.7445 11.288 13.8311C11.2388 13.8803 11.2269 13.9431 11.2252 13.9991C11.2201 14.1773 11.0793 14.2502 10.969 14.3487C10.9588 14.3571 10.9384 14.3588 10.9231 14.3588C10.7993 14.3605 10.6737 14.3639 10.5498 14.3673C10.4632 14.0805 10.3733 13.7836 10.2817 13.4713C10.2986 13.4713 10.3156 13.4713 10.3326 13.4696ZM10.8315 19.8214C10.8756 19.8096 10.918 19.7994 10.9622 19.7909C10.9605 19.7909 10.9571 19.7892 10.9554 19.7892C11.0199 19.7603 11.0809 19.7264 11.1471 19.7009C11.1811 19.6874 11.2133 19.6721 11.2422 19.6551C11.2897 19.6432 11.3389 19.6331 11.3864 19.6195C11.4288 19.6093 11.4696 19.5974 11.512 19.5856C11.5425 19.5771 11.5731 19.5703 11.6036 19.5618C11.6342 19.5533 11.6664 19.5397 11.697 19.5312C11.7665 19.5109 11.8361 19.4888 11.9057 19.4668C12.0448 19.4328 12.184 19.3989 12.3248 19.3616C12.3282 19.3666 12.3299 19.37 12.3333 19.3751C11.8056 19.7179 11.2422 19.8825 10.6652 19.874C10.7195 19.8537 10.7755 19.8367 10.8315 19.8214ZM12.4606 19.3242C12.5217 19.3073 12.5811 19.2903 12.6422 19.2733C12.6388 19.5126 12.5981 19.5669 12.5692 19.5754C12.5675 19.5754 12.5658 19.5754 12.5658 19.5771C12.5234 19.5839 12.4589 19.5194 12.3758 19.387C12.4046 19.3666 12.4335 19.3429 12.4606 19.3242ZM12.5913 18.2891C12.6167 18.2755 12.6422 18.2619 12.6693 18.25C12.6948 18.2381 12.7236 18.2178 12.7355 18.194C12.8458 17.987 13.0325 17.8512 13.2005 17.6968C13.4126 17.5034 13.5959 17.2844 13.6773 16.9909C13.6027 16.9824 13.5314 16.9739 13.4584 16.9688C13.4482 16.9671 13.4347 16.979 13.4245 16.9858C13.4194 16.9909 13.4143 16.9993 13.4126 17.0061C13.3753 17.1368 13.287 17.1775 13.1581 17.1572C12.9697 17.1266 12.8085 17.2132 12.6473 17.2912C12.6048 17.3116 12.5811 17.3082 12.5522 17.2726C12.503 17.2149 12.4521 17.1589 12.3978 17.1063C12.3808 17.0112 12.3622 16.9145 12.3435 16.8144C12.3774 16.8042 12.4114 16.7923 12.447 16.7821C12.4504 16.8059 12.4521 16.8296 12.4555 16.8534C12.4572 16.8636 12.4589 16.8721 12.4606 16.8873C12.5709 16.9043 12.6931 16.8653 12.7847 16.9705C12.8628 16.8839 12.9358 16.8042 13.007 16.721C13.0393 16.6837 13.0732 16.6701 13.1241 16.665C13.2836 16.6481 13.4432 16.6243 13.6027 16.6006C13.6196 16.5989 13.6434 16.587 13.6553 16.5751C13.7724 16.4614 13.8963 16.3579 14.0235 16.2578C14.217 16.1865 14.4104 16.1135 14.6005 16.0389C14.6039 16.0389 14.609 16.0372 14.6124 16.0372C14.161 17.3608 13.5059 18.4418 12.6727 19.124C12.6659 18.9085 12.6371 18.6251 12.5913 18.2891ZM12.7813 19.1969C12.7457 19.2071 12.7118 19.2173 12.6761 19.2275C12.6761 19.2122 12.6761 19.1952 12.6761 19.1783C12.7118 19.1868 12.7457 19.1902 12.7813 19.1969ZM12.7678 19.1613C12.8441 19.1528 12.9205 19.1443 12.9952 19.1342C12.9476 19.1494 12.8984 19.163 12.8509 19.1783C12.8475 19.1783 12.8441 19.1766 12.8407 19.1766C12.8153 19.1715 12.7915 19.1664 12.7678 19.1613ZM13.231 19.0934C13.4822 19.0493 13.7299 18.9916 13.9709 18.922C14.1559 18.8677 14.3358 18.8083 14.5123 18.7405C14.4851 18.7642 14.4597 18.7914 14.4325 18.8134C14.4053 18.8355 14.3782 18.8525 14.3493 18.8711C14.3086 18.9017 14.2662 18.9322 14.2238 18.9594C14.1915 18.9797 14.1559 18.995 14.1219 19.012C14.0829 19.0323 14.0439 19.0561 14.0015 19.0731C13.9658 19.0883 13.9268 19.0985 13.8895 19.1121C13.8487 19.1257 13.808 19.1426 13.7656 19.1545C13.7266 19.1647 13.6858 19.1698 13.6468 19.1783C13.6027 19.1868 13.5603 19.1969 13.5161 19.202C13.4754 19.2071 13.433 19.2071 13.3905 19.2105C13.3447 19.2139 13.3006 19.2173 13.2531 19.2173C13.2107 19.2173 13.1649 19.2122 13.1224 19.2088C13.0749 19.2054 13.0257 19.2037 12.9765 19.1986C12.9595 19.1969 12.9409 19.1919 12.9222 19.1902C13.0257 19.1579 13.1292 19.1274 13.231 19.0934ZM13.4652 19.0154C13.8912 18.8711 14.3086 18.7116 14.7074 18.5385C14.6803 18.5708 14.6548 18.6064 14.6277 18.6352C14.6141 18.6505 14.5988 18.6607 14.5852 18.676C14.2255 18.8185 13.8521 18.9322 13.4652 19.0154ZM14.7804 18.5063C15.3251 18.2653 15.7918 18.0141 16.1634 17.7681C15.7086 18.1244 15.2046 18.4163 14.6633 18.642C14.704 18.5979 14.743 18.5538 14.7804 18.5063ZM14.8245 18.4503C14.8313 18.4418 14.8381 18.4316 14.8449 18.4231C14.85 18.4163 14.8551 18.4112 14.8584 18.4044C14.8941 18.3552 14.928 18.3043 14.9603 18.2517C15.4184 18.0006 15.8563 17.7138 16.2703 17.3931C16.5707 17.1606 16.8524 16.9111 17.1205 16.6481C17.112 16.7635 17.0594 16.889 16.9661 17.0214C16.8151 17.1877 16.6572 17.3455 16.4909 17.4932C16.0955 17.8054 15.5271 18.1346 14.8245 18.4503ZM17.1545 16.6141C17.3513 16.4207 17.5397 16.2187 17.7179 16.01C17.6585 16.1067 17.5991 16.2035 17.5363 16.2985C17.3954 16.5055 17.2444 16.7041 17.0832 16.8907C17.1341 16.794 17.1562 16.7024 17.1545 16.6141ZM16.8049 15.5298C16.8032 15.5315 16.8032 15.5332 16.8015 15.5348C16.7048 15.6808 16.6046 15.825 16.5028 15.9659C16.4842 15.9913 16.4655 16.0151 16.4468 16.0405C16.2042 15.9845 15.9106 15.9557 15.5814 15.9523C15.5848 15.8895 15.5881 15.825 15.5915 15.7606C15.5915 15.7453 15.5932 15.73 15.5932 15.713C15.5949 15.6842 15.5949 15.6536 15.5949 15.6248C16.1227 15.3906 16.6046 15.1513 17.0408 14.9121C17.0391 14.9528 17.0357 14.9952 17.034 15.0359C17.034 15.0563 17.0374 15.0767 17.0459 15.0953C17.0493 15.1038 17.0543 15.1123 17.0577 15.1208C16.9763 15.2565 16.8931 15.394 16.8049 15.5298ZM15.7867 14.291C15.8936 14.2214 16.0107 14.201 16.1363 14.2163C16.1566 14.218 16.1821 14.235 16.1923 14.2519C16.2211 14.296 16.2449 14.3453 16.2703 14.3945C16.2788 14.3894 16.2873 14.3877 16.2924 14.3826C16.3688 14.2825 16.4706 14.2994 16.5724 14.3215C16.586 14.3249 16.6046 14.3317 16.6114 14.3436C16.6929 14.4691 16.8219 14.5167 16.9593 14.5506C17.0611 14.5761 17.0594 14.5794 17.0543 14.6864C17.051 14.7491 17.0476 14.8102 17.0442 14.873C16.608 15.1123 16.1261 15.3516 15.5966 15.5875C15.5983 15.4822 15.6 15.3736 15.5983 15.265C15.5983 15.2243 15.5966 15.1836 15.5966 15.1445C15.5932 15.0241 15.5898 14.9002 15.5831 14.7746C15.5814 14.7339 15.5797 14.6931 15.5763 14.6524C15.5678 14.5167 15.5559 14.3792 15.5423 14.24C15.5966 14.2706 15.6492 14.3011 15.7052 14.3317C15.7307 14.3181 15.7595 14.3079 15.7867 14.291ZM15.5542 1.74514C15.5406 1.79265 15.5169 1.84696 15.4948 1.89787C15.0349 1.50417 14.5394 1.16476 14.0066 0.891549C14.5496 1.13082 15.0672 1.41592 15.5542 1.74514ZM13.3651 0.633614C13.4856 0.682827 13.6044 0.733732 13.7215 0.788035C13.8572 0.850824 13.9913 0.918702 14.1219 0.988278C14.161 1.00864 14.1983 1.0324 14.2373 1.05446C14.329 1.10537 14.4206 1.15628 14.5089 1.21058C14.5547 1.23773 14.5971 1.26998 14.6429 1.29883C14.7227 1.34974 14.8041 1.40065 14.8822 1.45495C14.928 1.4855 14.9704 1.52113 15.0146 1.55338C15.0892 1.60768 15.1656 1.66198 15.2403 1.71968C15.2861 1.75532 15.3302 1.79435 15.376 1.83169C15.4134 1.86223 15.449 1.89277 15.4863 1.92332C15.4812 1.9369 15.4744 1.95047 15.4711 1.96235C15.2929 1.85035 15.1113 1.74174 14.9229 1.63993C14.1729 1.23435 13.3838 0.928882 12.5709 0.72185C12.5709 0.716759 12.5709 0.711672 12.5709 0.704884C12.5556 0.543671 12.4487 0.409613 12.257 0.306097C12.6337 0.396037 13.0036 0.502946 13.3651 0.633614ZM11.1743 0.117723C11.4797 0.15336 11.7818 0.202572 12.0788 0.26536C12.3605 0.368877 12.52 0.518218 12.537 0.706583C12.537 0.70828 12.537 0.709972 12.537 0.711669C11.9787 0.570819 11.4085 0.479189 10.8349 0.433371C10.6279 0.323067 10.4191 0.231427 10.2087 0.165244C10.1866 0.158456 10.1663 0.153368 10.1442 0.14658C10.5193 0.116034 10.8637 0.105845 11.1743 0.117723ZM10.0594 0.126217C10.0441 0.122823 10.0288 0.117731 10.0135 0.114337C10.0712 0.109246 10.1289 0.104152 10.1849 0.100758C10.2613 0.0973638 10.3377 0.0956706 10.4123 0.0939736C10.4395 0.0939736 10.4683 0.0922749 10.4955 0.0922749C10.3563 0.10076 10.2104 0.110944 10.0594 0.126217ZM10.0017 0.046453C10.1646 0.046453 10.3258 0.0515452 10.4853 0.0583331C10.3971 0.0600301 10.3105 0.0617234 10.2223 0.0651173C10.207 0.0651173 10.19 0.065119 10.1748 0.066816C10.0848 0.0719069 9.99318 0.0803927 9.90324 0.0888776C9.83197 0.0736048 9.759 0.0634208 9.68773 0.0549358C9.79294 0.0515419 9.89645 0.046453 10.0017 0.046453ZM9.43827 0.0634291C9.55197 0.06852 9.66736 0.0786953 9.78106 0.0990591C9.77597 0.0990591 9.77258 0.0990608 9.76749 0.100758C9.65549 0.112637 9.54348 0.12961 9.43148 0.14658C9.40772 0.149974 9.38397 0.15167 9.35851 0.156761C9.255 0.173731 9.15318 0.194089 9.05136 0.214453C9.01912 0.221241 8.98517 0.22634 8.95293 0.233128C8.8579 0.253492 8.76117 0.278942 8.66614 0.3027C8.62711 0.312881 8.58638 0.321363 8.54735 0.331545C8.4659 0.353606 8.38444 0.37906 8.30299 0.404515C8.24868 0.421484 8.19607 0.435065 8.14177 0.452035C8.1265 0.457126 8.10953 0.46391 8.09426 0.469001C7.9568 0.501244 7.81934 0.536879 7.68019 0.574213C7.6768 0.569122 7.6751 0.564039 7.67171 0.560645C7.97377 0.363794 8.28771 0.228035 8.61014 0.14658C8.88336 0.107549 9.15827 0.0803989 9.43827 0.0634291ZM8.37426 0.18221C8.12819 0.265362 7.88722 0.380757 7.65474 0.531789C7.60213 0.450333 7.55631 0.394341 7.51728 0.360402C7.79728 0.289128 8.08407 0.229725 8.37426 0.18221ZM7.40019 0.394333C7.42734 0.387545 7.4528 0.379059 7.47995 0.372271C7.51898 0.396029 7.56819 0.453735 7.62758 0.550463C7.59704 0.570827 7.56649 0.59119 7.53595 0.613251C7.47655 0.628524 7.41886 0.647189 7.35946 0.664158C7.36455 0.509733 7.38152 0.433364 7.40019 0.394333ZM7.36116 0.406213C7.34079 0.463911 7.33061 0.550458 7.32891 0.672641C7.26952 0.689611 7.21013 0.706579 7.15243 0.723549C7.12019 0.718458 7.08624 0.709975 7.054 0.704884C7.00309 0.698097 6.95388 0.698097 6.90467 0.694703C6.85885 0.691309 6.81303 0.68622 6.76891 0.68622C6.72309 0.68622 6.67897 0.691307 6.63485 0.693004C6.58903 0.694701 6.54321 0.694708 6.49739 0.699799C6.47363 0.703193 6.44988 0.708276 6.42612 0.713367C6.73158 0.596275 7.04382 0.49276 7.36116 0.406213ZM5.63532 1.07652C5.66248 1.05616 5.69132 1.0375 5.71847 1.01713C5.90005 0.930588 6.08502 0.850821 6.27339 0.774456C6.29884 0.769365 6.3243 0.762582 6.35145 0.757491C6.39388 0.749006 6.4346 0.740518 6.47703 0.73373C6.52115 0.728639 6.56697 0.726943 6.61278 0.723549C6.65691 0.720155 6.69934 0.716765 6.74515 0.716765C6.79267 0.716765 6.84018 0.721852 6.8877 0.723549C6.93352 0.726943 6.97934 0.728639 7.02516 0.73373C7.04213 0.735427 7.06079 0.740526 7.07946 0.742224C6.97764 0.772769 6.87751 0.805003 6.77739 0.838943C6.33109 0.918701 5.90175 1.0358 5.49278 1.19362C5.51823 1.16986 5.54369 1.14271 5.57084 1.12065C5.5912 1.10538 5.61326 1.0918 5.63532 1.07652ZM5.5369 1.10877C5.49108 1.1461 5.44696 1.18852 5.40453 1.23095C5.23144 1.30052 5.06344 1.37689 4.89713 1.46005C5.10586 1.33447 5.31968 1.21738 5.5369 1.10877ZM4.37616 1.79435C4.68162 1.60259 5.00234 1.4329 5.34004 1.29205C5.29932 1.33447 5.26199 1.38029 5.22296 1.4261C4.7495 1.63653 4.34052 1.85205 3.99603 2.06587C4.12161 1.97423 4.24719 1.88259 4.37616 1.79435ZM5.18053 1.48381C5.17375 1.49399 5.16526 1.50247 5.15847 1.51265C5.15338 1.51944 5.14998 1.52453 5.14489 1.53132C5.13301 1.54829 5.12114 1.56695 5.10926 1.58392C5.10417 1.58562 5.10077 1.58562 5.09568 1.58732C5.06344 1.5958 5.01423 1.61956 4.98707 1.63993C4.82077 1.76211 4.65616 1.88429 4.49325 2.00987C4.44573 2.04041 4.39822 2.06927 4.3524 2.09981C4.30149 2.11509 4.24889 2.11338 4.19798 2.12526C4.1301 2.14053 4.06052 2.14563 3.98585 2.14224C4.00452 2.12866 4.02319 2.11508 4.04016 2.1015C4.01979 2.10489 3.99943 2.10999 3.97906 2.11338C4.31676 1.90295 4.71895 1.69084 5.18053 1.48381ZM3.35118 2.74805C3.35458 2.74296 3.35966 2.73957 3.36985 2.73109C3.37663 2.76333 3.38342 2.79387 3.39021 2.82442C3.31215 2.8906 3.23748 2.95848 3.16112 3.02636C3.2256 2.93472 3.28839 2.84139 3.35118 2.74805ZM3.08306 3.14175C3.18657 3.04503 3.28839 2.9483 3.397 2.85496C3.40548 2.8906 3.41397 2.92624 3.42075 2.96018C3.42415 2.97884 3.41736 3.00261 3.40888 3.02127C3.35797 3.14515 3.29518 3.26055 3.20524 3.36067C3.19675 3.36916 3.19166 3.38104 3.18318 3.39292C3.20863 3.42855 3.23578 3.46588 3.26124 3.50321C3.36984 3.46418 3.42924 3.38952 3.43094 3.27412C3.43263 3.20455 3.46827 3.15533 3.51409 3.10443C3.75167 2.84139 4.06222 2.69545 4.38125 2.56479C4.44573 2.53763 4.50852 2.50878 4.57471 2.48502C4.60865 2.47145 4.61883 2.45278 4.61543 2.41884C4.61034 2.3272 4.61034 2.23726 4.60525 2.14562C4.60356 2.11168 4.61543 2.08963 4.64089 2.06587C4.73762 1.97254 4.84622 1.89617 4.95822 1.82999C4.91071 1.91653 4.86659 2.00987 4.82416 2.1049C4.81738 2.12017 4.81059 2.13375 4.80549 2.14902C4.76477 2.24745 4.72744 2.35096 4.6918 2.45787C4.68671 2.47484 4.67992 2.49351 4.67483 2.51048C4.66804 2.53424 4.65955 2.55629 4.65277 2.57835C4.61883 2.61229 4.58659 2.64624 4.55265 2.68018C4.47798 2.75315 4.40501 2.82782 4.33204 2.90418C4.28622 2.9517 4.2421 3.00091 4.19798 3.05012C4.13179 3.12309 4.06561 3.19606 4.00113 3.27073C3.95531 3.32333 3.91118 3.37764 3.86706 3.43024C3.80597 3.50491 3.74488 3.57958 3.68548 3.65595C3.65663 3.69328 3.62779 3.73231 3.59894 3.76964C3.55482 3.78831 3.51239 3.81037 3.47506 3.83413C3.14584 3.74419 2.9473 3.59994 2.89469 3.41667C2.95918 3.32672 3.02196 3.23509 3.08306 3.14175ZM1.9902 5.33596C2.00207 5.28165 2.00547 5.22735 2.00377 5.17135C2.00208 5.10178 2.03093 5.05086 2.07165 4.99826C2.23965 4.78104 2.40426 4.56383 2.57057 4.34492C2.58414 4.32626 2.59263 4.3042 2.59263 4.28213C2.59942 4.14977 2.60111 4.0157 2.6062 3.88334C2.6079 3.86297 2.61299 3.83922 2.62317 3.82225C2.70633 3.70006 2.78948 3.57789 2.87263 3.4557C2.93712 3.63558 3.13397 3.77303 3.44621 3.86297C3.3427 3.93934 3.26124 4.03607 3.20524 4.16504C3.10512 4.39413 2.95918 4.59437 2.77251 4.76237C2.70972 4.82007 2.65032 4.88286 2.59432 4.94735C2.57735 4.96771 2.56378 4.99826 2.56208 5.02372C2.56038 5.10008 2.56208 5.17644 2.56208 5.25111C2.3228 5.39196 2.1022 5.53281 1.89856 5.67197C1.9308 5.55997 1.96304 5.44796 1.9902 5.33596ZM1.83917 5.85355C1.87141 5.82979 1.8748 5.76869 1.88668 5.71778C2.09202 5.57523 2.31772 5.43269 2.56039 5.28845C2.56039 5.32239 2.56038 5.35632 2.55869 5.39026C2.55699 5.41062 2.55869 5.42759 2.56208 5.44117C2.54002 5.48359 2.51796 5.52602 2.4959 5.56844C2.41953 5.72457 2.34656 5.88069 2.27699 6.04191C2.19893 6.22179 2.12595 6.40337 2.05807 6.58495C2.03771 6.64095 2.01735 6.69525 1.99698 6.75125C1.94947 6.88361 1.90365 7.01767 1.86122 7.15173C1.84256 7.20943 1.82389 7.26713 1.80692 7.32653C1.75941 7.48604 1.71359 7.64725 1.67286 7.80847C1.66607 7.83562 1.65759 7.86108 1.6525 7.88653C1.60668 8.0732 1.56595 8.26157 1.52861 8.44823C1.52861 8.45163 1.52692 8.45332 1.52692 8.45672C1.41662 8.42956 1.31479 8.39902 1.21976 8.36508C1.18752 7.5658 1.25879 6.78689 1.42849 6.05379C1.50825 5.9893 1.5931 5.92481 1.68134 5.86033C1.73395 5.86372 1.80353 5.8807 1.83917 5.85355ZM1.58971 5.78226C1.59141 5.84505 1.5931 5.86033 1.63044 5.86373C1.56595 5.91294 1.49977 5.96045 1.43867 6.00967C1.47431 5.86203 1.51504 5.71778 1.55916 5.57354C1.58801 5.63802 1.58801 5.71099 1.58971 5.78226ZM1.46753 5.32069C1.44886 5.37499 1.47601 5.4259 1.51334 5.47002C1.52013 5.47851 1.51334 5.50566 1.52522 5.51923C1.53031 5.52432 1.53201 5.52942 1.5354 5.53451C1.48449 5.70082 1.43698 5.87051 1.39625 6.04361C1.05516 6.31852 0.795519 6.58664 0.619033 6.83949C0.793822 6.36603 1.00594 5.90106 1.25879 5.45136C1.32667 5.32918 1.39965 5.21038 1.47262 5.09329C1.50316 5.1425 1.50486 5.20869 1.46753 5.32069ZM1.40134 4.99656C1.40473 5.01013 1.40813 5.02541 1.41152 5.03898C1.41322 5.04407 1.41322 5.05087 1.41322 5.05596C1.41662 5.04917 1.42171 5.04238 1.4251 5.0356C1.43528 5.04408 1.44207 5.05256 1.45056 5.06274C1.37419 5.18323 1.30122 5.30711 1.22995 5.43269C0.949946 5.92821 0.72085 6.4424 0.537576 6.96677C0.520606 6.99731 0.505333 7.02616 0.49006 7.0567C0.715759 6.33039 1.02461 5.64141 1.40134 4.99656ZM0.393331 7.53017C0.445937 7.3418 0.505335 7.15682 0.571517 6.97185C0.736125 6.69524 1.01103 6.39997 1.38607 6.09282C1.22316 6.81403 1.15358 7.57598 1.18413 8.35829C0.697092 8.1801 0.422179 7.92047 0.393331 7.59126C0.389937 7.57089 0.393331 7.55053 0.393331 7.53017ZM0.362786 7.50641C0.362786 7.5115 0.361088 7.51828 0.361088 7.52337C0.350906 7.55731 0.344117 7.59295 0.333935 7.62689C0.344117 7.58786 0.352604 7.54714 0.362786 7.50641ZM0.366178 7.62859C0.413694 7.9561 0.695396 8.21744 1.18583 8.39223C1.20619 8.85211 1.2588 9.31878 1.34534 9.79055C1.33177 9.97891 1.32328 10.1673 1.31819 10.3539C1.31649 10.4015 1.31819 10.449 1.31649 10.4965C1.31479 10.6407 1.3165 10.7867 1.31989 10.9309C1.32159 10.9615 1.31989 10.992 1.31989 11.0226C1.3165 11.026 1.31479 11.0276 1.3114 11.031C1.24182 11.0938 1.17564 11.1566 1.11286 11.2177C1.10098 11.2296 1.09079 11.2398 1.07891 11.2517C1.01782 11.3127 0.961823 11.3738 0.909216 11.4332C0.900731 11.4434 0.890549 11.4536 0.882064 11.4638C0.829457 11.5249 0.780245 11.586 0.734427 11.6454C0.729336 11.6521 0.72594 11.6572 0.722546 11.6623C0.678425 11.7217 0.639397 11.7811 0.60376 11.8405C0.600367 11.8456 0.596969 11.8507 0.595272 11.8541C0.559636 11.9135 0.530786 11.9712 0.503634 12.0289C0.498543 12.0374 0.495151 12.0475 0.49006 12.056C0.466302 12.112 0.445941 12.1663 0.428971 12.2189C0.425577 12.2291 0.423877 12.2376 0.420483 12.2478C0.40521 12.3021 0.395028 12.3547 0.38824 12.4073C0.38824 12.4124 0.386546 12.4158 0.386546 12.4209C-0.047882 10.8325 -0.0512804 9.18981 0.366178 7.62859ZM0.23212 11.9254C0.276242 12.129 0.327152 12.3326 0.386546 12.5363C0.386546 12.538 0.386543 12.538 0.38824 12.5397C0.38824 12.5566 0.388242 12.5736 0.389939 12.5906C0.389939 12.5991 0.393332 12.6075 0.395029 12.6143C0.332241 12.3886 0.277939 12.1595 0.23212 11.9254ZM0.42388 12.4328C0.42388 12.426 0.425574 12.4175 0.425574 12.4107C0.430665 12.3598 0.442542 12.3089 0.456118 12.2563C0.459512 12.2461 0.461212 12.2376 0.464606 12.2274C0.479879 12.1748 0.500242 12.1222 0.522303 12.0679C0.525697 12.0594 0.530789 12.0509 0.534183 12.0441C0.58679 11.9304 0.656365 11.8117 0.744608 11.6912C0.749699 11.6827 0.756488 11.6759 0.761579 11.6674C0.804004 11.6097 0.851517 11.5503 0.902427 11.4926C0.910911 11.4824 0.921094 11.4723 0.929579 11.4621C0.982186 11.4027 1.03649 11.3433 1.09589 11.2822C1.10437 11.2737 1.11286 11.2652 1.12304 11.255C1.18583 11.1923 1.25201 11.1278 1.32328 11.0633C1.32498 11.0887 1.32667 11.1159 1.32837 11.1413C1.33686 11.306 1.34704 11.4689 1.36231 11.6318C1.36571 11.6623 1.3657 11.6912 1.3691 11.7217C1.38776 11.9135 1.41322 12.1035 1.44207 12.2919C1.45056 12.3445 1.45904 12.3954 1.46922 12.448C1.49298 12.5906 1.52013 12.7331 1.55068 12.874C1.56256 12.9317 1.57443 12.9894 1.58801 13.0454C1.62534 13.21 1.66777 13.3746 1.71359 13.5375C1.71868 13.5562 1.72207 13.5765 1.72886 13.5952C1.67965 13.5833 1.63383 13.5697 1.58631 13.5562C1.54219 13.5443 1.49467 13.5324 1.45395 13.5188C1.40304 13.5019 1.35892 13.4849 1.3131 13.4662C1.27577 13.4526 1.23504 13.4391 1.19771 13.4238C1.15358 13.4051 1.11455 13.3831 1.07382 13.3627C1.04158 13.3474 1.00764 13.3322 0.977094 13.3152C0.938064 13.2931 0.90582 13.2694 0.870183 13.2456C0.844729 13.2286 0.815881 13.2117 0.792123 13.1947C0.759881 13.1692 0.732727 13.1421 0.705576 13.1166C0.685212 13.098 0.661456 13.081 0.644487 13.0606C0.619032 13.0335 0.598665 13.0029 0.578302 12.9741C0.569817 12.9622 0.559639 12.9503 0.551154 12.9385C0.507033 12.8078 0.464604 12.6754 0.425574 12.5431C0.42218 12.5057 0.420486 12.4701 0.42388 12.4328ZM0.456118 12.8299C0.469694 12.8621 0.481575 12.896 0.500242 12.9266C0.500242 12.9266 0.500243 12.9283 0.50194 12.9283C0.507031 12.9368 0.513817 12.9452 0.520605 12.9554C1.02631 14.4437 1.89177 15.7656 3.04233 16.833C3.04233 16.8466 3.04063 16.8602 3.04063 16.8721C3.07966 17.2895 3.48524 17.6018 4.21495 17.7766C4.82926 18.3552 5.51483 18.8253 6.2683 19.1766C6.38539 19.2309 6.50248 19.2818 6.61957 19.3293C6.65691 19.3446 6.69424 19.3582 6.73158 19.3734C6.81303 19.4057 6.89449 19.4362 6.97764 19.4651C7.02176 19.4803 7.06419 19.4939 7.10831 19.5092C7.18637 19.5346 7.26613 19.5601 7.34419 19.5822C7.38831 19.5957 7.43243 19.6076 7.47656 19.6195C7.5614 19.6433 7.64625 19.6636 7.7311 19.684C7.76844 19.6925 7.80577 19.7026 7.8431 19.7111C7.93304 19.7315 8.02468 19.7485 8.11632 19.7637C8.11971 19.7637 8.12311 19.7654 8.1265 19.7671C8.28771 19.8062 8.47438 19.8299 8.67802 19.8452C8.70517 19.8554 8.73232 19.8673 8.75948 19.8774C8.77475 19.8825 8.79002 19.8876 8.80359 19.8927C4.82925 19.4108 1.56764 16.5785 0.456118 12.8299ZM9.32796 14.2197C9.24651 14.1688 9.16505 14.1196 9.09039 14.0585C9.01063 13.994 8.92408 13.977 8.82905 13.994C8.8019 13.9991 8.76966 14.0177 8.75438 14.0398C8.67972 14.1518 8.61184 14.2689 8.54056 14.3843C8.50153 14.4471 8.39123 14.4759 8.32505 14.4386C8.21305 14.3775 8.10274 14.3147 7.99243 14.2502C7.91607 14.2044 7.83971 14.1688 7.74977 14.1552C7.73449 14.1535 7.71583 14.1297 7.70734 14.1128C7.69886 14.0924 7.69377 14.0653 7.69716 14.0432C7.70904 13.9566 7.65813 13.9295 7.58686 13.9074C7.46807 13.8701 7.34928 13.8277 7.23049 13.7853C7.2254 13.7768 7.22031 13.7683 7.21522 13.7598C7.20843 13.7479 7.20164 13.7377 7.19485 13.7259C7.17279 13.6868 7.15073 13.6444 7.12698 13.6054C7.29328 13.5324 7.46128 13.4611 7.63098 13.3899C7.80577 13.3559 7.98395 13.322 8.16044 13.2846C8.20117 13.2762 8.24359 13.2677 8.28432 13.2592C8.44383 13.2252 8.60335 13.1913 8.76457 13.154C8.80699 13.1438 8.84941 13.1353 8.89014 13.1251C8.89523 13.1896 8.92069 13.2252 8.98687 13.2422C9.04457 13.2575 9.09718 13.2846 9.16166 13.3101C9.17693 13.2219 9.19899 13.137 9.20748 13.0505C9.30421 13.0267 9.39924 13.0046 9.49597 12.9809C9.52482 12.9741 9.55367 12.9656 9.58082 12.9588C9.61815 12.9503 9.65379 12.9402 9.69112 12.93C9.6996 12.9402 9.70809 12.952 9.71827 12.9605C9.85912 13.1014 9.9864 13.2541 10.095 13.4204C10.1086 13.4425 10.1442 13.4577 10.1714 13.4628C10.1951 13.4662 10.2189 13.4696 10.2426 13.4713C10.3326 13.7785 10.4225 14.0771 10.5108 14.3673C10.3665 14.3707 10.224 14.3724 10.0797 14.369C9.86252 14.3656 9.6453 14.3588 9.43827 14.2757C9.40433 14.2604 9.3636 14.2434 9.32796 14.2197ZM10.0017 19.9606C9.99827 19.9606 9.99488 19.9606 9.99318 19.9606C10.1374 19.9606 10.2817 19.9572 10.4259 19.9504C10.4734 19.9351 10.5192 19.9199 10.5668 19.9046C10.8841 19.9216 11.1963 19.8859 11.5018 19.7977C11.792 19.7128 12.0754 19.5805 12.3503 19.4023C12.4419 19.5482 12.5166 19.6195 12.5726 19.611C12.576 19.611 12.5777 19.6093 12.5811 19.6093C12.6439 19.5906 12.6744 19.4803 12.6778 19.2665C12.6948 19.2614 12.7135 19.2563 12.7304 19.2512C12.7712 19.2394 12.8136 19.2258 12.8543 19.2122C12.8577 19.2122 12.8594 19.2139 12.8628 19.2139C12.8984 19.219 12.9341 19.2292 12.968 19.2326C13.0308 19.2411 13.0919 19.2411 13.1547 19.2445C13.192 19.2462 13.2293 19.2512 13.265 19.2512C13.3261 19.2512 13.3855 19.2445 13.4449 19.2394C13.4788 19.236 13.5144 19.236 13.5484 19.2326C13.64 19.219 13.7299 19.2003 13.8182 19.1749C14.1101 19.09 14.3714 18.9322 14.5988 18.7082C15.32 18.4197 15.9734 18.0125 16.5419 17.4983C16.7234 17.3523 16.866 17.2098 16.9678 17.074C17.1816 16.8398 17.3819 16.5887 17.5634 16.3206C17.6653 16.1695 17.7603 16.0134 17.8502 15.8539C18.1947 15.4313 18.5053 14.9816 18.7751 14.5048C19.0551 14.0093 19.2842 13.4951 19.4675 12.9707C19.5082 12.9011 19.5404 12.8315 19.5676 12.7637C18.3695 16.9145 14.536 19.9606 10.0017 19.9606Z" fill="#009900"/>
<path d="M15.4711 1.70949C15.466 1.73664 15.4592 1.76548 15.4524 1.79263C15.466 1.80451 15.4745 1.81808 15.4779 1.83505C15.488 1.79942 15.4948 1.76549 15.4999 1.72817C15.4897 1.72308 15.4796 1.71628 15.4711 1.70949Z" fill="#009900"/>
</svg>
