<svg width="24" height="24" viewBox="0 0 24 24" fill="none" xmlns="http://www.w3.org/2000/svg">
<path d="M2.99948 15.5001C2.91248 15.5001 2.82348 15.4781 2.74248 15.4291L0.242478 13.9291C0.0054784 13.7871 -0.0705216 13.4801 0.0714784 13.2431C0.213478 13.0061 0.520478 12.9271 0.757478 13.0711L3.25748 14.5711C3.49448 14.7131 3.57048 15.0201 3.42848 15.2571C3.33448 15.4131 3.16848 15.5001 2.99948 15.5001Z" fill="#f36a62"/>
<path d="M11.316 5.50204C11.268 5.50204 11.219 5.49504 11.17 5.48104C9.39195 4.93704 7.27695 4.85404 4.88495 5.23604C3.87795 5.39404 2.85795 5.11504 2.08295 4.47004L0.179955 2.88404C-0.0320454 2.70704 -0.0610455 2.39204 0.115955 2.18004C0.292955 1.96904 0.606955 1.93804 0.819955 2.11604L2.72295 3.70204C3.27595 4.16304 4.00995 4.36504 4.72795 4.24804C7.27096 3.84504 9.53795 3.93604 11.462 4.52304C11.726 4.60404 11.875 4.88304 11.794 5.14704C11.729 5.36304 11.531 5.50204 11.316 5.50204Z" fill="#f36a62"/>
<path d="M15.251 21.0002C14.654 21.0002 14.067 20.7942 13.601 20.4212L11.176 18.3582C10.966 18.1792 10.94 17.8642 11.119 17.6532C11.298 17.4432 11.615 17.4182 11.824 17.5962L14.237 19.6492C14.516 19.8722 14.88 20.0002 15.251 20.0002C15.664 20.0002 16 19.6642 16 19.2512C16 19.0342 15.907 18.8292 15.744 18.6882L11.18 14.8842C10.968 14.7072 10.939 14.3922 11.116 14.1802C11.293 13.9702 11.607 13.9392 11.821 14.1172L16.372 17.9092C16.378 17.9142 16.385 17.9202 16.392 17.9262L17.443 18.8022C17.596 18.9302 17.792 19.0002 17.992 19.0002H18.14C18.614 19.0002 19 18.6142 19 18.1402C19 17.8902 18.895 17.6562 18.709 17.4932L13.18 12.8852C12.968 12.7082 12.939 12.3932 13.116 12.1812C13.294 11.9702 13.608 11.9402 13.821 12.1182L19.331 16.7102C19.341 16.7182 19.35 16.7262 19.359 16.7332L19.44 16.8002C19.595 16.9292 19.793 17.0002 19.996 17.0002H20.13C20.61 17.0002 21 16.6092 21 16.1302C21 15.8732 20.891 15.6332 20.7 15.4682L13.17 8.8762C12.962 8.6942 12.941 8.3792 13.124 8.1712C13.305 7.9622 13.621 7.9422 13.83 8.1242L21.357 14.7142C21.765 15.0682 22 15.5832 22 16.1262C22 17.1612 21.161 18.0002 20.13 18.0002H19.996C20 18.0452 20 18.0912 20 18.1372C20 19.1652 19.166 20.0002 18.14 20.0002H17.992C17.618 20.0002 17.254 19.8872 16.947 19.6792C16.756 20.4372 16.068 21.0002 15.251 21.0002Z" fill="#f36a62"/>
<path d="M12.5005 21.9999C12.1005 21.9999 11.7235 21.8439 11.4395 21.5609L10.1585 20.3659C9.95653 20.1779 9.94653 19.8609 10.1345 19.6599C10.3235 19.4569 10.6385 19.4469 10.8415 19.6359L12.1345 20.8429C12.3485 21.0559 12.6645 21.0439 12.8535 20.8549C13.1095 20.5989 13.2065 20.1039 13.0765 19.9739C12.8815 19.7789 12.8815 19.4619 13.0765 19.2669C13.2715 19.0719 13.5885 19.0719 13.7835 19.2669C14.3765 19.8599 14.1545 20.9669 13.5605 21.5619C13.2775 21.8439 12.9005 21.9999 12.5005 21.9999Z" fill="#f36a62"/>
<path d="M21.0002 15.4998C20.8302 15.4998 20.6652 15.4128 20.5712 15.2568C20.4292 15.0208 20.5063 14.7128 20.7423 14.5708L23.2423 13.0708C23.4793 12.9258 23.7862 13.0068 23.9282 13.2428C24.0702 13.4788 23.9932 13.7868 23.7572 13.9288L21.2572 15.4288C21.1772 15.4778 21.0882 15.4998 21.0002 15.4998Z" fill="#f36a62"/>
<path d="M8.93064 12.0001H8.53064C7.70364 12.0001 6.95964 11.5401 6.58964 10.8011C6.17064 9.96411 6.33364 8.95711 6.99564 8.29511L9.64464 5.64711C9.67364 5.61811 9.70564 5.59211 9.74064 5.57211C9.92264 5.46311 10.1076 5.34211 10.2966 5.21811C11.1646 4.64611 12.1476 4.00011 13.4976 4.00011C14.2806 4.00011 15.0016 4.23711 15.7646 4.48911C16.8516 4.84711 18.0786 5.25311 19.7826 5.02511L23.1726 2.12011C23.3826 1.94211 23.6976 1.96611 23.8776 2.17511C24.0576 2.38411 24.0336 2.70011 23.8236 2.88011L20.3236 5.88011C20.2526 5.94111 20.1656 5.98111 20.0736 5.99411C18.0636 6.30311 16.6156 5.82311 15.4526 5.43811C14.7376 5.20311 14.1206 5.00011 13.4976 5.00011C12.4466 5.00011 11.6326 5.53511 10.8456 6.05211C10.6626 6.17211 10.4846 6.28911 10.3086 6.39711L7.70264 9.00211C7.34664 9.35811 7.25864 9.90211 7.48364 10.3541C7.68264 10.7521 8.08364 11.0001 8.52964 11.0001H8.92964C9.20164 11.0001 9.45664 10.9101 9.66664 10.7391C9.85564 10.5851 10.0746 10.4021 10.3096 10.2061C11.5916 9.13411 12.6276 8.29211 13.3216 8.03211C13.5796 7.93211 13.8686 8.06611 13.9656 8.32411C14.0626 8.58311 13.9316 8.87111 13.6736 8.96811C13.0846 9.19011 11.8006 10.2631 10.9516 10.9741C10.7136 11.1731 10.4916 11.3591 10.2976 11.5161C9.91364 11.8281 9.42764 12.0001 8.93064 12.0001Z" fill="#f36a62"/>
<path d="M3.977 17.5C3.163 17.5 2.5 16.837 2.5 16.022V15.795C2.5 15.502 2.586 15.219 2.748 14.976L3.294 14.158C3.568 13.746 4.027 13.5 4.523 13.5C5.337 13.5 6 14.163 6 14.978V15.205C6 15.498 5.914 15.781 5.752 16.024L5.206 16.842C4.932 17.254 4.473 17.5 3.977 17.5ZM4.523 14.5C4.363 14.5 4.215 14.579 4.127 14.712L3.58 15.531C3.528 15.609 3.5 15.701 3.5 15.796V16.023C3.5 16.287 3.714 16.501 3.977 16.501C4.137 16.501 4.285 16.422 4.373 16.289L4.919 15.47C4.972 15.391 5 15.299 5 15.204V14.977C5 14.714 4.786 14.5 4.523 14.5Z" fill="#f36a62"/>
<path d="M5.511 19C4.663 19 4 18.337 4 17.522V17.326C4 17.008 4.105 16.692 4.295 16.438L5.307 15.09C5.584 14.72 6.026 14.499 6.489 14.499C7.337 14.5 8 15.163 8 15.978V16.174C8 16.492 7.895 16.808 7.705 17.062L6.693 18.41C6.416 18.779 5.974 19 5.511 19ZM6.523 15.5C6.339 15.5 6.197 15.571 6.107 15.69L5.095 17.039C5.034 17.121 5 17.223 5 17.326V17.522C5 17.786 5.214 18 5.477 18C5.661 18 5.803 17.929 5.893 17.81L6.905 16.461C6.966 16.379 7 16.277 7 16.174V15.978C7 15.714 6.786 15.5 6.523 15.5Z" fill="#f36a62"/>
<path d="M7.511 20C6.663 20 6 19.337 6 18.522V18.326C6 18.008 6.105 17.692 6.295 17.438L7.307 16.09C7.584 15.72 8.026 15.499 8.489 15.499C9.337 15.5 10 16.163 10 16.978V17.174C10 17.492 9.895 17.808 9.705 18.062L8.693 19.41C8.416 19.779 7.974 20 7.511 20ZM8.523 16.5C8.339 16.5 8.197 16.571 8.107 16.69L7.095 18.039C7.034 18.121 7 18.223 7 18.326V18.522C7 18.786 7.214 19 7.477 19C7.661 19 7.803 18.929 7.893 18.81L8.905 17.461C8.966 17.379 9 17.277 9 17.174V16.978C9 16.714 8.786 16.5 8.523 16.5Z" fill="#f36a62"/>
<path d="M9.511 21C8.663 21 8 20.337 8 19.522V19.326C8 19.008 8.105 18.692 8.295 18.438L9.307 17.09C9.584 16.72 10.026 16.499 10.489 16.499C11.338 16.499 12 17.162 12 17.977V18.173C12 18.491 11.895 18.807 11.705 19.061L10.693 20.409C10.416 20.779 9.974 21 9.511 21ZM10.523 17.5C10.339 17.5 10.197 17.571 10.107 17.69L9.095 19.039C9.034 19.121 9 19.223 9 19.326V19.522C9 19.786 9.214 20 9.477 20C9.661 20 9.803 19.929 9.893 19.81L10.905 18.461C10.966 18.379 11 18.277 11 18.174V17.978C11 17.714 10.786 17.5 10.523 17.5Z" fill="#f36a62"/>
</svg>
