<svg xmlns="http://www.w3.org/2000/svg" id="Layer_1" data-name="Layer 1" viewBox="0 0 68 68"><path d="M58.72,63.5H36.55a1,1,0,0,1-1-.8l-1.86-9.06a1.34,1.34,0,0,1,0-.4L36.94,37.5a1,1,0,0,1,1-.8h15.7a1,1,0,0,1,1,.8l5.1,24.8a1,1,0,0,1-1,1.2Zm-21.35-2H57.5L52.81,38.7H38.74l-3,14.74Z" fill="#f36a62"/><path d="M55.84,49.51H35.7a1,1,0,0,1-.77-.37,1,1,0,0,1-.2-.83l.92-4.5a1,1,0,0,1,1-.8H54.92a1,1,0,0,1,1,.8l.92,4.5a1,1,0,0,1-1,1.2Zm-18.91-2H54.62L54.1,45H37.44Z" fill="#f36a62"/><path d="M36.55,63.5H3a1,1,0,0,1-.77-.36A1,1,0,0,1,2,62.3l6.6-32.15a1,1,0,0,1,1-.8H29.94a1,1,0,0,1,1,.8L37.53,62.3a1,1,0,0,1-1,1.2Zm-32.32-2H35.32L29.13,31.35H10.42Z" fill="#f36a62"/><path d="M32.2,42.34H7.34A1,1,0,0,1,6.57,42a1,1,0,0,1-.21-.84l1-5.12a1,1,0,0,1,1-.8H31.15a1,1,0,0,1,1,.8l1,5.12a1,1,0,0,1-1,1.2Zm-23.63-2H31l-.65-3.12H9.21Z" fill="#f36a62"/><path d="M61,35.33a5,5,0,0,1-3.29-1.25,6.75,6.75,0,0,1-1.36.13,7.4,7.4,0,0,1-4.53-1.54,4.94,4.94,0,0,1-4.45,1,4,4,0,1,1-3.25-6.49,4.85,4.85,0,0,1,4.49-3,5.81,5.81,0,0,1,.72.05,7.46,7.46,0,0,1,14.46,2A5,5,0,0,1,61,35.33Zm-3-3.35a1,1,0,0,1,.75.34,3,3,0,0,0,5.2-2,3,3,0,0,0-1.62-2.64,1,1,0,0,1-.54-.89A5.45,5.45,0,0,0,51,25.67a1,1,0,0,1-.51.68,1,1,0,0,1-.84,0,2.84,2.84,0,0,0-3.84,2.11,1,1,0,0,1-.45.65,1,1,0,0,1-.79.12,2,2,0,1,0-.44,4,2.09,2.09,0,0,0,1.89-1.24,1,1,0,0,1,.57-.54,1,1,0,0,1,.79.05A2.91,2.91,0,0,0,51,30.69a1,1,0,0,1,.73-.42,1,1,0,0,1,.79.3,5.45,5.45,0,0,0,3.9,1.64,4.84,4.84,0,0,0,1.4-.19A1.26,1.26,0,0,1,58.05,32Z" fill="#f36a62"/><path d="M43.87,25.18a6.27,6.27,0,0,1-4.19-1.61,9.19,9.19,0,0,1-2.58.36,9.66,9.66,0,0,1-6.22-2.25,6.42,6.42,0,0,1-5.81,1.12,5.19,5.19,0,1,1-4.11-8,6.34,6.34,0,0,1,7.12-4.18,9.7,9.7,0,0,1,18.68,2.74,6.27,6.27,0,0,1-2.89,11.83ZM40,21.44a1,1,0,0,1,.74.33,4.32,4.32,0,0,0,3.18,1.41,4.27,4.27,0,0,0,1.55-8.24,1,1,0,0,1-.63-.91,7.7,7.7,0,0,0-15.11-1.94,1,1,0,0,1-.51.62,1,1,0,0,1-.8,0,4.18,4.18,0,0,0-1.44-.24,4.26,4.26,0,0,0-4.23,3.57,1,1,0,0,1-.45.68,1,1,0,0,1-.81.12,2.8,2.8,0,0,0-.73-.1,3.2,3.2,0,1,0,3,4.39,1,1,0,0,1,.56-.56,1,1,0,0,1,.8,0,4.26,4.26,0,0,0,1.89.44,4.22,4.22,0,0,0,3.19-1.43,1,1,0,0,1,.72-.33,1,1,0,0,1,.74.29,7.7,7.7,0,0,0,5.52,2.32,7.33,7.33,0,0,0,2.5-.43A1.07,1.07,0,0,1,40,21.44Z" fill="#f36a62"/></svg>