<svg width="24" height="24" viewBox="0 0 24 24" fill="none" xmlns="http://www.w3.org/2000/svg">
<path d="M23.367 20.31C23.357 20.3 23.347 20.29 23.336 20.281L15.335 13.55C16.412 12.094 17 10.318 17 8.5C17 3.813 13.187 0 8.5 0C3.813 0 0 3.813 0 8.5C0 13.187 3.813 17 8.5 17C10.319 17 12.093 16.412 13.55 15.335L20.311 23.366C20.719 23.774 21.261 24 21.839 24C22.416 24 22.959 23.775 23.367 23.368C24.21 22.525 24.21 21.154 23.367 20.31ZM22.66 22.659C22.219 23.098 21.426 23.065 21.047 22.691L14.004 14.322C13.904 14.205 13.764 14.144 13.621 14.144C13.508 14.144 13.395 14.182 13.3 14.26C11.955 15.382 10.25 16 8.499 16C4.363 16 0.999 12.636 0.999 8.5C0.999 4.364 4.363 1 8.499 1C12.635 1 15.999 4.364 15.999 8.5C15.999 10.251 15.381 11.956 14.259 13.301C14.083 13.512 14.111 13.826 14.321 14.004L22.674 21.031C23.112 21.484 23.108 22.211 22.66 22.659Z" fill="#f36a62"/>
<path d="M8.85278 4.14576C8.65778 3.95076 8.34078 3.95076 8.14578 4.14576L4.14578 8.14576C4.00378 8.28876 3.96078 8.50276 4.03778 8.68976C4.11478 8.87776 4.29778 8.99976 4.49978 8.99976H4.99978V12.4998C4.99978 12.7758 5.22378 12.9998 5.49978 12.9998H7.49978C7.77578 12.9998 7.99978 12.7758 7.99978 12.4998V9.99976H8.99978V12.4998C8.99978 12.7758 9.22378 12.9998 9.49978 12.9998H11.4998C11.7758 12.9998 11.9998 12.7758 11.9998 12.4998V8.99976H12.4998C12.7018 8.99976 12.8828 8.87776 12.9608 8.69076C13.0388 8.50376 12.9958 8.28876 12.8528 8.14576L8.85278 4.14576ZM10.9998 8.49976V11.9998H9.99978V9.49976C9.99978 9.22376 9.77578 8.99976 9.49978 8.99976H7.49978C7.22378 8.99976 6.99978 9.22376 6.99978 9.49976V11.9998H5.99978V8.49976C5.99978 8.28576 5.86478 8.10276 5.67578 8.03176L8.49978 5.20576L11.3238 8.03076C11.1348 8.10176 10.9998 8.28576 10.9998 8.49976Z" fill="#f36a62"/>
</svg>
