<svg width="120" height="120" viewBox="0 0 24 25" fill="none" xmlns="http://www.w3.org/2000/svg">
<path d="M18.7949 4.67481C18.7372 4.60524 18.666 4.54076 18.5794 4.48137C17.563 3.59054 16.3651 2.90164 15.0484 2.48083C15.0229 2.47235 14.9958 2.46046 14.9703 2.45198C14.9432 2.4435 14.916 2.43502 14.8889 2.42653C14.7871 2.3926 14.6836 2.36036 14.58 2.33151C14.5122 2.31285 14.4426 2.29757 14.3747 2.2806C14.312 2.26533 14.2492 2.24667 14.1864 2.23309C14.1066 2.21613 14.0269 2.20255 13.9471 2.18728C13.9285 2.18388 13.9081 2.17879 13.8895 2.1754C13.8844 2.1737 13.881 2.17201 13.8759 2.17201C13.7164 2.13468 13.5314 2.10923 13.3295 2.09565C12.8951 2.03796 12.4506 2.00403 12.0009 2.00403C11.782 2.00403 11.5648 2.0142 11.3476 2.02778C11.1287 2.02438 10.9115 2.04474 10.6977 2.09226C10.2769 2.14655 9.8646 2.22631 9.46246 2.33151C9.45228 2.32812 9.4421 2.32472 9.43362 2.32642C9.41665 2.32811 9.40138 2.3383 9.3878 2.35357C8.94833 2.47235 8.52073 2.61827 8.10671 2.79474C8.10331 2.79644 8.09822 2.79814 8.09483 2.79814C8.06259 2.81001 8.02696 2.81849 7.99472 2.83206C7.93533 2.85752 7.87764 2.88806 7.82164 2.9186C7.80298 2.92878 7.78431 2.93558 7.76565 2.94746C7.76395 2.94915 7.76056 2.95084 7.75886 2.95254C7.5773 3.03738 7.39914 3.13071 7.22437 3.22742C6.80356 3.44631 6.46589 3.6686 6.19949 3.86882C5.94327 4.0402 5.69893 4.22854 5.46986 4.43555C5.34599 4.53397 5.24249 4.63239 5.15425 4.72741C3.2148 6.55318 1.99988 9.13912 1.99988 12.0067C1.99988 17.5214 6.48625 22.0061 11.9992 22.0061C12.1892 22.0061 12.3793 21.9993 12.5676 21.9891C12.7373 21.9891 12.8527 21.9772 12.9528 21.9602C16.3956 21.6328 19.3345 19.5525 20.865 16.6238C20.8939 16.6543 20.9244 16.6458 20.9533 16.5898C21.0212 16.4558 21.7287 14.7573 21.8526 13.8257C21.8645 13.7324 21.8763 13.6306 21.8848 13.522C21.9595 13.0282 22.0002 12.5226 22.0002 12.0067C22.0002 9.11027 20.7649 6.50228 18.7949 4.67481ZM14.3374 21.3205C14.3357 21.3172 14.334 21.3138 14.3306 21.3104C14.4036 21.2815 14.4748 21.251 14.5461 21.2204C14.5139 21.2442 14.4833 21.2679 14.4511 21.29C14.4138 21.3002 14.3747 21.3104 14.3374 21.3205ZM14.3679 21.3477C14.3646 21.3494 14.3612 21.3528 14.3561 21.3545L14.3544 21.3511C14.3595 21.3494 14.3629 21.3477 14.3679 21.3477ZM14.3238 21.3579C14.3272 21.363 14.3289 21.3664 14.3323 21.3714C14.1236 21.5072 13.9081 21.6124 13.6909 21.6921C13.7062 21.6582 13.7316 21.6158 13.7842 21.5632C13.8284 21.5191 13.8742 21.4851 13.9217 21.4597C14.054 21.4274 14.1881 21.3952 14.3238 21.3579ZM14.239 21.346C14.2611 21.3375 14.2814 21.329 14.3035 21.3205C14.3052 21.3222 14.3069 21.3273 14.3069 21.3273C14.2831 21.3341 14.2611 21.3409 14.239 21.346ZM14.4443 21.2255C14.446 21.2238 14.4494 21.2238 14.4494 21.2238L14.4528 21.2221C14.4511 21.2238 14.4477 21.2255 14.4443 21.2255ZM14.6411 21.1882C14.6411 21.2052 14.6411 21.2204 14.6411 21.2357C14.6055 21.2459 14.5699 21.2561 14.5342 21.2662C14.5699 21.2408 14.6055 21.217 14.6411 21.1882ZM14.5919 21.1203C14.6174 21.0983 14.631 21.0813 14.6377 21.0677C14.6394 21.0898 14.6411 21.1135 14.6411 21.1339C14.6242 21.1305 14.6072 21.1254 14.5919 21.1203ZM14.4596 21.3222C14.5207 21.3053 14.5801 21.2883 14.6411 21.2713C14.6377 21.5106 14.597 21.5649 14.5682 21.5734L14.5648 21.5751C14.5224 21.5819 14.4579 21.5174 14.3747 21.385C14.4036 21.3647 14.4324 21.3426 14.4596 21.3222ZM14.58 16.6085C14.1983 16.5355 14.2594 16.3336 13.9454 16.1147C13.8589 16.0553 13.7978 16.0197 13.7401 15.9976C13.6264 15.5022 13.5026 14.9897 13.3736 14.4603C13.4177 14.4468 13.4619 14.4315 13.506 14.4179C13.618 14.384 13.7282 14.3483 13.8385 14.3127C13.9013 14.2923 13.9658 14.272 14.0286 14.2499C14.1287 14.216 14.2305 14.1837 14.3306 14.1498C14.3968 14.1278 14.4613 14.104 14.5274 14.0819C14.6259 14.048 14.7226 14.0141 14.821 13.9784C14.8872 13.9547 14.9533 13.9309 15.0195 13.9072C15.1162 13.8715 15.213 13.8359 15.308 13.8003C15.3725 13.7765 15.4369 13.7511 15.5014 13.7273C15.5998 13.69 15.6983 13.6509 15.7967 13.6119C15.8068 13.6085 15.8187 13.6034 15.8289 13.6C16.2192 13.5339 16.5993 13.4779 16.9692 13.4338C16.9946 13.5288 17.0218 13.6238 17.0455 13.7188C17.0591 13.7731 17.0727 13.8274 17.0862 13.8817C17.1219 14.026 17.1558 14.1702 17.1881 14.3127C17.1982 14.3568 17.2084 14.4026 17.2186 14.4468C17.2373 14.5367 17.2542 14.6249 17.2729 14.7132C17.1796 15.8331 16.9759 16.8902 16.6739 17.8336C16.3889 17.8132 15.9748 17.8845 15.7424 17.8845C15.4726 17.8845 15.5574 17.8794 15.5235 17.7335C15.4895 17.5876 15.6915 17.5706 15.7542 17.4925C15.8153 17.4145 15.6983 17.1209 15.6423 16.9869C15.5863 16.8528 15.6253 16.8749 15.3843 16.824C15.1434 16.7714 14.9635 16.6815 14.58 16.6085ZM12.7271 14.6181C12.5133 14.6792 12.2995 14.7386 12.0857 14.7963C12.0603 14.7081 12.0348 14.6198 12.0094 14.5316C12.023 14.5282 12.0365 14.5231 12.0501 14.5197C12.1027 14.5163 12.1485 14.5129 12.1757 14.5095C12.2554 14.4977 12.3369 14.4569 12.403 14.4128C12.5303 14.3755 12.6576 14.3365 12.7865 14.3008C12.7305 14.3432 12.6321 14.3127 12.6321 14.4162C12.6304 14.4994 12.6915 14.5638 12.7271 14.6181ZM12.0535 14.8031C11.2882 15.0067 10.5281 15.1815 9.78825 15.3257C10.4958 15.0372 11.2322 14.7742 11.9771 14.5401C12.0026 14.6283 12.028 14.7166 12.0535 14.8031ZM12.4777 14.3551C12.493 14.3399 12.5099 14.3263 12.5184 14.3144C12.5642 14.2533 12.5965 14.2414 12.549 14.1956C12.5015 14.1515 12.3301 14.0853 12.2198 14.0768C12.1129 14.0684 11.9839 14.0921 11.8923 14.1176C11.5818 13.018 11.2831 11.9151 11.0083 10.8444C11.0184 10.8071 11.032 10.763 11.0626 10.7087C11.1644 10.5288 11.1135 10.3999 11.1576 10.1131C11.2017 9.82633 11.2696 9.96717 11.3985 9.82633C11.4545 9.76525 11.5224 9.66174 11.6004 9.55315C11.7345 9.51243 11.8668 9.47169 12.0009 9.42927C12.4556 11.0141 12.8832 12.6244 13.2582 14.1311C12.9986 14.2024 12.739 14.2771 12.4777 14.3551ZM9.66608 2.61148C9.66778 2.61487 9.66947 2.61827 9.67287 2.62166C9.63893 2.63523 9.60499 2.65051 9.57106 2.66408C9.53373 2.67935 9.4947 2.69463 9.45737 2.7116C9.48961 2.68784 9.52016 2.66408 9.5524 2.64202C9.58973 2.63184 9.62875 2.62166 9.66608 2.61148ZM9.63214 2.58603C9.63723 2.58264 9.64063 2.57924 9.64572 2.57754C9.64741 2.57924 9.64741 2.58094 9.64911 2.58264C9.64402 2.58433 9.63893 2.58603 9.63214 2.58603ZM11.9754 2.16861C11.9144 2.2297 11.8312 2.32132 11.7922 2.40786C11.7006 2.40956 11.6072 2.41295 11.5156 2.41804C11.5156 2.40616 11.5173 2.39259 11.5173 2.38072C11.5173 2.20594 11.4732 2.27891 11.3544 2.26194C11.2645 2.24836 11.2526 2.35357 11.2119 2.43671C10.7164 2.47744 10.2226 2.55209 9.73056 2.66408C9.72547 2.6556 9.72207 2.64712 9.71698 2.63863C9.73395 2.63185 9.75092 2.62336 9.76959 2.61827C9.84085 2.59112 9.91212 2.56737 9.98338 2.54192C10.0258 2.52664 10.0682 2.51137 10.1089 2.4978C10.7622 2.34339 11.3951 2.2314 11.9754 2.16861ZM10.5433 2.36714C10.5518 2.36544 10.5603 2.36205 10.5688 2.36035C10.6451 2.33999 10.7198 2.32302 10.7962 2.30436C10.8538 2.29078 10.9132 2.27551 10.9709 2.26194C11.0473 2.24497 11.1253 2.23309 11.2034 2.21782C11.2611 2.20764 11.3188 2.19576 11.3748 2.18558C11.4528 2.1737 11.5309 2.16352 11.6089 2.15334C11.6666 2.14655 11.7226 2.13638 11.7803 2.13129C11.821 2.1262 11.8601 2.12449 11.9008 2.1211C11.9211 2.12619 11.9432 2.12959 11.9636 2.13468C11.5156 2.18558 11.0371 2.26194 10.5433 2.36714ZM12.7577 3.83658C12.8442 3.8841 13.0241 3.98082 13.2056 4.08262C13.153 4.11317 13.1021 4.14371 13.0461 4.17425C13.0427 4.16916 13.0393 4.16576 13.036 4.16067C12.9341 4.02662 12.8001 4.03172 12.6644 3.99778C12.5303 3.96385 12.4064 4.0368 12.3301 4.07583C12.2571 4.11486 12.2435 4.27266 12.2469 4.45761C12.1909 4.46949 12.1349 4.47967 12.0772 4.49155C12.0603 4.47458 12.0433 4.45762 12.0246 4.44065C11.9822 4.39823 11.9381 4.3592 11.8957 4.31847C11.8482 4.27436 11.8024 4.22855 11.7549 4.18613C11.7124 4.1471 11.6683 4.10976 11.6259 4.07243C11.5784 4.03171 11.5326 3.98929 11.4851 3.95027C11.4426 3.91464 11.4002 3.8807 11.3561 3.84507C11.3307 3.8247 11.3052 3.80435 11.2814 3.78398C11.3137 3.77889 11.3408 3.7738 11.3629 3.76531C11.4359 3.73647 11.407 3.63636 11.4138 3.53455C11.4189 3.43274 11.3239 3.42765 11.3578 3.36656C11.3917 3.30548 11.4986 3.39541 11.7226 3.41068C11.9466 3.42765 11.8244 3.40559 11.9245 3.35469C12.0263 3.30378 12.0314 3.29361 12.0823 3.16974C12.1231 3.07132 12.1315 3.06453 12.196 3.01532C12.4081 3.06792 12.6185 3.12731 12.8289 3.19518C12.7916 3.31735 12.722 3.45989 12.6694 3.53116C12.5965 3.63467 12.571 3.73647 12.7577 3.83658ZM15.0687 20.9795C15.0823 20.9727 15.0959 20.9659 15.1095 20.9574C15.1638 20.9557 15.2198 20.9523 15.2774 20.9489C15.1468 20.9931 15.0144 21.0372 14.8821 21.0762C14.8702 21.0796 14.8583 21.083 14.8464 21.0864C14.9194 21.0524 14.9941 21.0168 15.0687 20.9795ZM14.7599 21.0898C14.804 21.0525 14.8464 21.0083 14.8889 20.9693C14.9313 20.9659 14.9788 20.9642 15.028 20.9625C14.9398 21.0066 14.8498 21.0491 14.7599 21.0898ZM14.8872 21.1084C15.5913 20.9031 16.2599 20.6266 16.8911 20.2855C16.8691 20.3177 16.8504 20.3534 16.8283 20.3856C16.8266 20.3873 16.8249 20.3907 16.8232 20.3924C16.7995 20.4246 16.774 20.4501 16.7503 20.4806C16.2633 20.6961 15.7441 20.8896 15.2181 21.0592C15.1044 21.0796 14.9907 21.0966 14.877 21.1118C14.8804 21.1118 14.8838 21.1101 14.8872 21.1084ZM15.6355 20.8217C15.8272 20.6944 16.0173 20.4993 16.1615 20.3686C16.2039 20.3296 16.2327 20.2957 16.2565 20.2617C16.2735 20.2499 16.2904 20.238 16.3057 20.2261C16.377 20.1752 16.4465 20.1226 16.5161 20.07C16.5602 20.0361 16.606 20.0021 16.6502 19.9665C16.7231 19.9088 16.7944 19.8477 16.8674 19.7883C16.9064 19.7561 16.9454 19.7238 16.9827 19.6916C17.0795 19.6085 17.1745 19.5219 17.2678 19.4337C17.278 19.4235 17.2899 19.4133 17.3017 19.4031C17.3 19.4099 17.2983 19.4184 17.2949 19.4252C17.2916 19.4371 17.2882 19.4473 17.2831 19.4591C17.2474 19.5711 17.2084 19.6797 17.1643 19.7815C17.1609 19.79 17.1575 19.7968 17.1541 19.8053C17.11 19.9088 17.0625 20.0089 17.0099 20.1022C17.0065 20.1073 17.0048 20.1124 17.0014 20.1175C16.9776 20.1582 16.9522 20.1956 16.9267 20.2346C16.5144 20.4569 16.0817 20.652 15.6355 20.8217ZM11.9704 9.19681C12.1892 9.08991 12.2401 9.19003 12.4438 9.25621C12.3046 9.30202 12.1655 9.34783 12.0263 9.39195C12.0077 9.32747 11.989 9.26129 11.9704 9.19681ZM11.9941 9.40213C11.8736 9.43946 11.7549 9.4751 11.6344 9.51073C11.7226 9.39195 11.8261 9.27826 11.9398 9.21379C11.9585 9.27657 11.9771 9.33935 11.9941 9.40213ZM9.74753 2.7642C9.76959 2.80831 9.79504 2.85752 9.81879 2.91012C9.80013 2.90333 9.78146 2.89655 9.7628 2.88976C9.71698 2.87279 9.67286 2.85583 9.62705 2.84056C9.58633 2.82698 9.54561 2.8151 9.50319 2.80322C9.48282 2.79813 9.46246 2.79135 9.4421 2.78456C9.5456 2.77607 9.64742 2.76759 9.74753 2.7642ZM9.54391 2.74553C9.6016 2.73196 9.65929 2.71668 9.71529 2.7048C9.72038 2.71498 9.72547 2.72347 9.73056 2.73196C9.66947 2.73365 9.60669 2.74044 9.54391 2.74553ZM9.74753 2.69632C10.2277 2.58772 10.7096 2.51646 11.1898 2.47744C11.1813 2.48762 11.1728 2.49779 11.1627 2.50628C11.1236 2.53852 11.0863 2.6573 11.0558 2.77777C10.6231 2.73026 10.1921 2.7099 9.76619 2.73026C9.7594 2.71668 9.75432 2.7065 9.74753 2.69632ZM9.78316 2.7608C10.204 2.74214 10.6265 2.7625 11.0473 2.81001C11.0117 2.94915 10.9811 3.07641 10.9607 3.04926C10.9217 2.99836 10.7419 2.9763 10.6061 2.9763C10.4721 2.9763 10.1344 2.9763 10.1344 2.9763C10.1344 2.9763 10.0173 2.95593 9.8697 2.92708C9.8663 2.92539 9.8646 2.9254 9.86121 2.9237C9.83576 2.8677 9.80861 2.8117 9.78316 2.7608ZM10.9048 3.88239C11.071 3.8264 11.1712 3.80604 11.2407 3.79586C11.312 3.85186 11.3849 3.90954 11.4562 3.97063C11.4647 3.97742 11.4749 3.9859 11.4834 3.99439C11.6547 4.13862 11.8244 4.29302 11.9958 4.45931C12.0026 4.4661 12.0077 4.47119 12.0145 4.47797C12.023 4.48646 12.0331 4.49665 12.0416 4.50513C11.5699 4.60694 11.0914 4.72062 10.6095 4.84958C10.523 4.60015 10.4381 4.36598 10.3584 4.14709C10.3533 4.13182 10.3482 4.11995 10.3431 4.10637C10.5841 3.93839 10.6163 3.98081 10.9048 3.88239ZM12.0688 4.53058C12.0959 4.55772 12.1248 4.58657 12.1519 4.61372C11.6938 4.81564 11.2102 4.9972 10.7164 5.1601C10.6842 5.06338 10.6519 4.97006 10.6197 4.87673C11.1067 4.74947 11.592 4.63238 12.0688 4.53058ZM12.1061 4.52209C12.1536 4.51191 12.2011 4.50343 12.2486 4.49325C12.2486 4.5221 12.2486 4.54754 12.2486 4.5713C12.2266 4.58148 12.2062 4.59167 12.1841 4.60185C12.1774 4.59506 12.1723 4.58996 12.1655 4.58318C12.1451 4.56281 12.1265 4.54245 12.1061 4.52209ZM12.2469 4.60863C12.2452 4.6256 12.2435 4.64087 12.2401 4.65614C12.23 4.64596 12.2198 4.63578 12.2096 4.6256C12.2215 4.62051 12.2334 4.61542 12.2469 4.60863ZM12.493 9.27147C12.6779 9.32068 12.6881 9.26808 12.7967 9.16797C13.3295 8.98471 13.8555 8.78788 14.3646 8.57578C14.5614 8.53845 14.7565 8.50452 14.9517 8.47228C14.9567 8.48246 14.9635 8.49264 14.9686 8.50282C14.9907 8.54185 15.0127 8.58087 15.0331 8.6199C15.0857 8.71832 15.1383 8.81673 15.1892 8.91684C15.2113 8.95926 15.2333 8.99998 15.2554 9.04071C15.3046 9.13573 15.3521 9.23245 15.3996 9.32747C15.4234 9.37498 15.4471 9.4225 15.4709 9.47001C15.5167 9.56503 15.5625 9.66174 15.6083 9.75846C15.6321 9.80766 15.6558 9.85687 15.6796 9.90608C15.7237 10.0011 15.7661 10.0961 15.8085 10.1928C15.8323 10.2454 15.8561 10.298 15.8798 10.3506C15.9188 10.4406 15.9579 10.5339 15.9969 10.6255C16.0223 10.6849 16.0478 10.7426 16.0715 10.802C16.1072 10.8885 16.1428 10.9768 16.1768 11.065C16.2022 11.1295 16.2294 11.194 16.2548 11.2584C16.287 11.3433 16.3193 11.4281 16.3515 11.5147C16.377 11.5842 16.4041 11.6521 16.4296 11.7217C16.4601 11.8065 16.489 11.8914 16.5195 11.9779C16.5433 12.0475 16.5687 12.117 16.5925 12.1883C16.623 12.2765 16.6502 12.3665 16.679 12.4547C16.7011 12.5226 16.7248 12.5904 16.7452 12.6583C16.7723 12.7465 16.7978 12.8331 16.8249 12.9213C16.8453 12.9892 16.8674 13.0571 16.886 13.1249C16.8148 13.1555 16.7435 13.186 16.6722 13.2183C16.6027 13.2488 16.5331 13.2794 16.4635 13.3082C16.3922 13.3387 16.321 13.3676 16.2497 13.3964C16.1751 13.427 16.1021 13.4575 16.0274 13.4881C15.9596 13.5152 15.89 13.5424 15.8204 13.5695C15.0043 13.7086 14.1508 13.897 13.2922 14.1261C12.9172 12.6176 12.4896 11.009 12.0348 9.42249C12.1875 9.37328 12.3403 9.32238 12.493 9.27147ZM16.2667 7.88348C16.2344 7.83258 16.2056 7.78168 16.1801 7.73077C16.265 7.68496 16.3515 7.63914 16.4347 7.59332C16.5025 7.79694 16.567 8.00226 16.6281 8.21266C16.5399 8.22115 16.4499 8.23132 16.36 8.24151C16.3447 8.2432 16.3295 8.2449 16.3142 8.2466C16.3736 8.15158 16.3685 8.03959 16.2667 7.88348ZM16.2667 8.30429C16.2735 8.2975 16.2786 8.29071 16.2853 8.28393C16.36 8.27544 16.4381 8.26357 16.5127 8.25678C16.5246 8.25508 16.5365 8.25508 16.5484 8.25338C16.5789 8.24999 16.6077 8.2483 16.6383 8.2449C17.0795 9.77882 17.3051 11.3789 17.334 12.923C17.295 12.9417 17.2559 12.9604 17.2152 12.979C17.2118 12.9807 17.2101 12.9824 17.2067 12.9824C17.1117 13.0265 17.0167 13.0689 16.92 13.1114C16.8996 13.0401 16.8775 12.9688 16.8555 12.8976C16.83 12.8144 16.8063 12.7296 16.7791 12.6464C16.7571 12.5786 16.735 12.5124 16.7129 12.4445C16.6841 12.3546 16.6553 12.2663 16.6247 12.1781C16.6044 12.1187 16.584 12.061 16.5619 12.0016C16.528 11.9049 16.4958 11.8082 16.4601 11.7115C16.4465 11.6725 16.4313 11.6351 16.416 11.5961C16.153 10.8851 15.8561 10.1911 15.532 9.5243C15.5235 9.50563 15.515 9.48697 15.5048 9.46831C15.4488 9.35462 15.3928 9.24263 15.3351 9.13064C15.3199 9.1001 15.3046 9.06955 15.2893 9.03901C15.2367 8.9372 15.1841 8.83878 15.1298 8.73867C15.1078 8.69795 15.0874 8.65723 15.0653 8.6182C15.0382 8.5673 15.011 8.51979 14.9822 8.46888C15.3674 8.4044 15.7424 8.3518 16.1089 8.30598C16.1649 8.33992 16.2175 8.35349 16.2667 8.30429ZM16.6705 8.23982C16.752 8.23133 16.8351 8.22285 16.9166 8.21606C16.9386 8.21436 16.959 8.21266 16.981 8.21096C17.0913 8.20248 17.2016 8.19231 17.3102 8.18552C17.3374 8.18382 17.3645 8.18212 17.3917 8.18042C17.4918 8.17364 17.5936 8.16855 17.692 8.16346C17.7276 8.16176 17.7633 8.16176 17.7989 8.16006C17.8871 8.15667 17.9754 8.15328 18.0619 8.15158C18.106 8.14988 18.1467 8.15158 18.1909 8.14988C18.2672 8.14818 18.3436 8.14818 18.4182 8.14818C18.4658 8.14818 18.5116 8.14988 18.5591 8.14988C18.627 8.15158 18.6965 8.15158 18.7627 8.15328C18.8085 8.15497 18.8543 8.15836 18.9001 8.16006C18.951 8.16176 19.0019 8.16345 19.0512 8.16684C19.623 9.07803 20.0794 10.0707 20.3849 11.1227C20.3747 11.1295 20.3662 11.138 20.3577 11.1448C20.3356 11.1617 20.3136 11.1804 20.2898 11.1974C20.2559 11.2228 20.222 11.25 20.1863 11.2754C20.1626 11.2924 20.1405 11.311 20.1168 11.328C20.0811 11.3552 20.0421 11.3823 20.0048 11.4095C19.981 11.4264 19.9589 11.4434 19.9352 11.4604C19.8945 11.4892 19.8503 11.5181 19.8079 11.5486C19.7859 11.5639 19.7655 11.5774 19.7435 11.5927C19.6892 11.6283 19.6349 11.6657 19.5789 11.7013C19.567 11.7098 19.5551 11.7166 19.5432 11.7251C19.4737 11.7692 19.4024 11.815 19.3294 11.8591C19.3176 11.8659 19.304 11.8744 19.2921 11.8812C19.231 11.9185 19.1699 11.9558 19.1072 11.9932C19.0851 12.0067 19.0613 12.0203 19.0393 12.0339C18.9867 12.0644 18.9324 12.0967 18.8781 12.1272C18.8509 12.1425 18.8221 12.1594 18.7949 12.1747C18.744 12.2036 18.6914 12.2324 18.6405 12.2613C18.61 12.2782 18.5794 12.2952 18.5489 12.3105C18.4963 12.3393 18.4437 12.3682 18.3894 12.3953C18.3589 12.4123 18.3266 12.4292 18.2961 12.4445C18.2418 12.4734 18.1858 12.5022 18.1315 12.5311C18.0992 12.548 18.0687 12.5633 18.0365 12.5803C17.9788 12.6091 17.9194 12.6396 17.8583 12.6685C17.8278 12.6838 17.7972 12.699 17.7667 12.7143C17.7005 12.7466 17.6343 12.7788 17.5664 12.811C17.541 12.8229 17.5172 12.8348 17.4918 12.8467C17.4511 12.8653 17.4086 12.8857 17.3679 12.9044C17.334 11.3653 17.11 9.77034 16.6705 8.23982ZM15.6864 8.32466H15.6813C15.498 8.35011 15.3131 8.37896 15.1264 8.4095C15.0789 8.41798 15.0314 8.42476 14.9839 8.43325C14.9788 8.43325 14.9737 8.43494 14.9703 8.43494C14.9534 8.4044 14.9364 8.37386 14.9194 8.34162C15.1247 8.25169 15.3199 8.16006 15.5099 8.06674C15.7084 8.07353 15.9019 8.09049 15.9545 8.14479C15.9884 8.17872 16.0308 8.23132 16.0783 8.27205C15.946 8.29071 15.8187 8.30599 15.6864 8.32466ZM14.9347 8.44173C14.7921 8.46548 14.6479 8.49094 14.5037 8.51809C14.631 8.46379 14.7616 8.41288 14.8872 8.35689C14.9041 8.38573 14.9194 8.41288 14.9347 8.44173ZM14.3679 8.54184C14.3272 8.55033 14.2848 8.55882 14.2441 8.5656C14.3629 8.5147 14.4613 8.49603 14.5376 8.46888C14.4816 8.49433 14.4256 8.51809 14.3679 8.54184ZM14.6055 8.44173C14.6191 8.43494 14.631 8.42646 14.6428 8.41628C14.7379 8.33823 14.5919 8.27035 14.4189 8.24151C14.2441 8.21266 14.1881 8.06674 13.9913 7.95984C13.7944 7.85294 14.0642 7.66799 14.0931 7.56109C14.1219 7.45589 14.0422 7.51527 13.8453 7.43722C13.6485 7.35916 13.7435 7.37614 13.6264 7.35917C13.5077 7.3422 13.2107 7.55091 13.0529 7.56109C12.8951 7.57297 13.002 7.46606 13.1038 7.33032C13.2056 7.19627 13.2447 7.18439 13.4126 7.10634C13.5806 7.02828 13.6875 7.08938 14.0863 7.17931C14.127 7.18779 14.1609 7.19457 14.1932 7.20136C14.2305 7.25905 14.2678 7.31505 14.3035 7.37274C14.312 7.38631 14.3204 7.3982 14.3289 7.41177C14.3883 7.50679 14.4477 7.6052 14.5071 7.70362C14.5274 7.73755 14.5478 7.76979 14.5699 7.80542C14.6293 7.90553 14.6886 8.00735 14.7463 8.10746C14.765 8.1414 14.7854 8.17364 14.804 8.20758C14.8261 8.2466 14.8481 8.28732 14.8702 8.32804C14.7837 8.36707 14.6937 8.4044 14.6055 8.44173ZM12.8612 8.89987C13.036 8.85915 13.209 8.81842 13.3804 8.78109C13.4483 8.8286 13.4669 8.81842 13.6875 8.73189C13.7486 8.70813 13.7927 8.69456 13.8301 8.68438C13.8521 8.67929 13.8742 8.67589 13.8962 8.6708C13.9777 8.65893 14.0167 8.6708 14.1185 8.62499C14.1508 8.6182 14.183 8.61141 14.2135 8.60632C13.7673 8.78788 13.3108 8.95757 12.8476 9.11876C12.924 9.03901 12.8917 8.97114 12.8612 8.89987ZM13.2769 8.70813C13.3057 8.72679 13.3261 8.74037 13.3448 8.75395C13.3023 8.76413 13.2616 8.77261 13.2192 8.78109C13.1768 8.79127 13.1344 8.79976 13.0902 8.80994C13.0105 8.82861 12.9291 8.84896 12.8493 8.86763C12.8425 8.84727 12.8357 8.82861 12.834 8.80825C12.8222 8.69626 13.0919 8.59105 13.2769 8.70813ZM15.9799 13.5407C16.0885 13.4965 16.1954 13.4524 16.304 13.4083C16.3515 13.3879 16.4007 13.3693 16.4482 13.3489C16.5993 13.2861 16.7486 13.2217 16.8962 13.1555C16.8996 13.1674 16.903 13.1792 16.9064 13.1894C16.9267 13.2607 16.9437 13.3303 16.9641 13.3998C16.6434 13.4388 16.3125 13.4864 15.9765 13.5407H15.9799ZM16.9267 13.1419C16.9505 13.1317 16.9726 13.1215 16.9963 13.1114C17.0676 13.0791 17.1388 13.0469 17.2101 13.0146C17.2474 12.9977 17.2848 12.9807 17.3221 12.962C17.3255 12.9603 17.3289 12.9587 17.3323 12.957C17.334 13.091 17.3357 13.2267 17.334 13.3608C17.222 13.3727 17.11 13.3845 16.9963 13.3981C16.9743 13.3116 16.9522 13.2284 16.9267 13.1419ZM17.3357 13.393C17.3323 13.7969 17.3153 14.1973 17.2865 14.5893C17.2746 14.5367 17.2644 14.4824 17.2525 14.4281C17.2423 14.384 17.2322 14.3382 17.222 14.294C17.1897 14.1481 17.1541 14.0022 17.1185 13.8546C17.1066 13.8037 17.093 13.7528 17.0795 13.7018C17.0557 13.6102 17.0319 13.5186 17.0065 13.427C17.1168 13.4168 17.2271 13.4032 17.3357 13.393ZM17.2983 14.8285C17.3085 14.8811 17.3204 14.9337 17.3306 14.9863C17.3357 15.0186 17.3408 15.0508 17.3476 15.0814C17.373 15.229 17.3968 15.3732 17.4188 15.5174C17.4256 15.5683 17.4341 15.6176 17.4409 15.6685C17.4612 15.8093 17.4782 15.9484 17.4935 16.0859C17.4969 16.1181 17.502 16.1504 17.5037 16.1809C17.5206 16.3472 17.5342 16.5101 17.5444 16.6696C17.5461 16.7069 17.5478 16.7442 17.5495 16.7816C17.5563 16.9054 17.5614 17.0293 17.563 17.1498C17.5647 17.1939 17.5647 17.238 17.5647 17.2821C17.5664 17.3924 17.5647 17.4993 17.5614 17.6045C17.3611 17.6928 17.1524 17.7776 16.9471 17.8607C16.9115 17.8658 16.8657 17.8675 16.8012 17.8523C16.774 17.8455 16.7418 17.8421 16.7096 17.8387C17.0014 16.9241 17.2016 15.906 17.2983 14.8285ZM17.5427 17.9829C17.5393 18.0389 17.5376 18.0966 17.5325 18.1509V18.1577C17.4714 18.1051 17.4035 18.0491 17.3323 17.988C17.4018 17.9863 17.4748 17.9829 17.5427 17.9829ZM17.2933 17.9558C17.2814 17.9456 17.2678 17.9337 17.2559 17.9235C17.1847 17.8607 17.1405 17.837 17.1066 17.8285C17.2576 17.7657 17.412 17.7029 17.5614 17.6385C17.5614 17.6537 17.5614 17.6707 17.5614 17.686C17.5614 17.6995 17.5614 17.7131 17.5614 17.7284C17.558 17.8048 17.5512 17.8777 17.5478 17.9507C17.4646 17.949 17.3781 17.9541 17.2933 17.9558ZM17.4307 19.0332C17.4375 19.0027 17.4426 18.9705 17.4477 18.9416C17.4714 18.9145 17.4986 18.8839 17.5359 18.8449C17.6937 18.682 17.7327 18.604 17.7378 18.4512C17.7412 18.3681 17.6666 18.2799 17.5597 18.1831C17.5613 18.1679 17.563 18.1526 17.5647 18.1373C17.5698 18.0864 17.5732 18.0338 17.5766 17.9829C17.8973 17.9863 18.1841 18.0135 18.4216 18.0678C18.4149 18.0762 18.4081 18.0847 18.4013 18.0949C18.3283 18.1916 18.2537 18.2883 18.179 18.3834C18.14 18.4326 18.1009 18.4801 18.0602 18.5276C17.9856 18.6175 17.9092 18.7041 17.8328 18.7906C17.7921 18.8364 17.7531 18.8805 17.7107 18.9246C17.6241 19.0197 17.5342 19.1113 17.4426 19.2012C17.4171 19.2267 17.3934 19.2521 17.3679 19.2759C17.3815 19.225 17.3934 19.1707 17.4069 19.1181C17.4171 19.0909 17.4239 19.0638 17.4307 19.0332ZM17.093 19.1876C17.2865 19.0909 17.3509 19.0451 17.4069 18.9857C17.4035 19.0044 17.4002 19.0265 17.3951 19.0451C17.3934 19.0553 17.39 19.0638 17.3883 19.074C17.3679 19.1622 17.3425 19.2453 17.3187 19.3285C17.3051 19.3421 17.2899 19.3556 17.2746 19.3692C17.1847 19.4541 17.0947 19.5389 17.0014 19.6203C16.9624 19.6543 16.9234 19.6865 16.8843 19.7205C16.8131 19.7815 16.7401 19.8426 16.6671 19.902C16.623 19.9376 16.5772 19.9733 16.5314 20.0072C16.4618 20.0615 16.3905 20.1158 16.3193 20.1684C16.3142 20.1718 16.3074 20.1769 16.3023 20.1803C16.3583 20.0666 16.3634 19.9529 16.4567 19.7747C16.5976 19.505 16.6077 19.656 16.6875 19.5219C16.7672 19.3896 16.7791 19.3455 17.093 19.1876ZM17.0218 20.1447C17.0286 20.1328 17.0353 20.1226 17.0421 20.1107C17.0913 20.0208 17.1371 19.9275 17.1796 19.8291C17.1864 19.8138 17.1931 19.7985 17.1999 19.7832C17.2407 19.6848 17.278 19.5813 17.3136 19.4744C17.3187 19.4557 17.3255 19.4388 17.3306 19.4201C17.3374 19.3981 17.3459 19.376 17.3526 19.3522C17.3849 19.32 17.4171 19.2861 17.4494 19.2538C17.5257 19.1792 17.6004 19.1028 17.675 19.0248C17.7192 18.9789 17.7616 18.9297 17.8057 18.8822C17.8736 18.8076 17.9397 18.7329 18.0059 18.6565C18.05 18.6056 18.0925 18.553 18.1366 18.5004C18.1994 18.4241 18.2604 18.3477 18.3215 18.2697C18.3639 18.2154 18.4064 18.1594 18.4488 18.1034C18.4556 18.0932 18.4624 18.0847 18.4708 18.0745C18.8781 18.173 19.1055 18.3477 19.1275 18.5768C19.1275 18.5853 19.1258 18.5938 19.1275 18.6006C18.4963 19.2233 17.7819 19.7595 16.9963 20.1939C17.0014 20.1803 17.0116 20.1633 17.0218 20.1447ZM18.4454 18.0389C18.2027 17.9829 17.9092 17.9541 17.58 17.9507C17.5834 17.8879 17.5868 17.8234 17.5902 17.7589C17.5902 17.7437 17.5919 17.7284 17.5919 17.7114C17.5936 17.6826 17.5936 17.652 17.5936 17.6232C18.1994 17.3534 18.7474 17.0785 19.2327 16.8036C19.209 16.8477 19.1852 16.8936 19.1598 16.9377C19.1309 16.9869 19.1038 17.0378 19.0749 17.087C18.9867 17.2363 18.8967 17.3839 18.8017 17.5282C18.8 17.5299 18.8 17.5316 18.7983 17.5333C18.7016 17.6792 18.6015 17.8234 18.4997 17.9643C18.4827 17.9897 18.4641 18.0135 18.4454 18.0389ZM17.5953 17.5859C17.597 17.4807 17.5987 17.3721 17.597 17.2635C17.597 17.2227 17.5953 17.182 17.5953 17.143C17.5919 17.0225 17.5885 16.8987 17.5817 16.7731C17.58 16.7324 17.5783 16.6916 17.5749 16.6509C17.5647 16.4897 17.5512 16.3268 17.5342 16.1605C17.5325 16.1385 17.5291 16.1147 17.5257 16.0927C17.5104 15.9467 17.4918 15.7974 17.4697 15.6481C17.4629 15.6006 17.4561 15.5514 17.4494 15.5022C17.4273 15.3562 17.4035 15.2086 17.3764 15.0593C17.3713 15.0288 17.3662 14.9982 17.3611 14.9677C17.3459 14.8794 17.3272 14.7912 17.3085 14.703C17.3442 14.272 17.3645 13.8342 17.3679 13.3879C18.5964 13.2658 19.6671 13.281 20.4391 13.4609C20.4205 13.5542 20.4035 13.6476 20.3815 13.7409C20.3679 13.8054 20.3526 13.8715 20.3373 13.936C20.3102 14.0514 20.2796 14.1651 20.2491 14.2788C20.2321 14.3382 20.2169 14.3992 20.1999 14.4586C20.1609 14.5944 20.1184 14.7301 20.0743 14.8642C20.0625 14.8998 20.0523 14.9354 20.0404 14.9694C19.9844 15.1374 19.9233 15.3019 19.8588 15.4665C19.8402 15.514 19.8198 15.5599 19.8011 15.6074C19.7536 15.7245 19.7044 15.8432 19.6518 15.9586C19.6264 16.018 19.5975 16.0757 19.5704 16.1334C19.5212 16.2386 19.472 16.3421 19.4194 16.4439C19.3905 16.5016 19.36 16.561 19.3294 16.6187C19.3074 16.6628 19.2819 16.7035 19.2582 16.7476C18.7712 17.031 18.2129 17.311 17.5953 17.5859ZM17.3679 13.3574C17.3679 13.22 17.3679 13.0808 17.3662 12.9434C17.4086 12.923 17.4511 12.9044 17.4918 12.884C17.5325 12.8653 17.5732 12.845 17.614 12.8263C17.6649 12.8025 17.7158 12.7771 17.7667 12.7533C17.8074 12.733 17.8481 12.7126 17.8888 12.6923C17.9363 12.6685 17.9856 12.6447 18.0331 12.621C18.0738 12.6006 18.1128 12.5803 18.1535 12.5599C18.201 12.5361 18.2469 12.5124 18.2927 12.4869C18.3317 12.4666 18.3707 12.4462 18.4081 12.4259C18.4539 12.4021 18.498 12.3783 18.5421 12.3529C18.5794 12.3325 18.6168 12.3122 18.6541 12.2918C18.6982 12.268 18.7423 12.2426 18.7848 12.2188C18.8204 12.1985 18.856 12.1781 18.8917 12.1578C18.9358 12.1323 18.9782 12.1085 19.0206 12.0831C19.0545 12.0627 19.0885 12.0441 19.1207 12.0237C19.1665 11.9966 19.209 11.9694 19.2531 11.944C19.2819 11.927 19.3108 11.91 19.3379 11.8914C19.3939 11.8557 19.4499 11.8218 19.5042 11.7862C19.5195 11.7777 19.533 11.7675 19.5483 11.759C19.6162 11.7149 19.6824 11.6708 19.7468 11.6283C19.7689 11.6131 19.791 11.5978 19.813 11.5825C19.8554 11.5537 19.8979 11.5248 19.9386 11.496C19.964 11.479 19.9878 11.4604 20.0132 11.4434C20.0489 11.4179 20.0862 11.3908 20.1218 11.3653C20.1473 11.3467 20.171 11.328 20.1948 11.3093C20.2287 11.2839 20.261 11.2584 20.2932 11.233C20.317 11.2143 20.3407 11.1957 20.3645 11.177C20.373 11.1702 20.3815 11.1634 20.3899 11.1566C20.4833 11.479 20.5596 11.8014 20.6207 12.1238C20.6207 12.1306 20.6207 12.1374 20.619 12.1442C20.6054 12.324 20.5885 12.5022 20.5664 12.6804C20.5613 12.7177 20.5562 12.7533 20.5511 12.7907C20.5325 12.9315 20.5121 13.0723 20.4867 13.2132C20.4765 13.2743 20.4646 13.3353 20.4527 13.3964C20.451 13.4083 20.4476 13.4202 20.4459 13.4321C19.6705 13.2505 18.5981 13.2352 17.3679 13.3574ZM19.0919 8.16854C19.1377 8.17194 19.1801 8.17533 19.2242 8.17872C19.2836 8.18381 19.343 8.18721 19.4007 8.1923C19.4465 8.19739 19.4889 8.20249 19.533 8.20758C19.589 8.21436 19.645 8.21945 19.6976 8.22624C19.7418 8.23303 19.7825 8.23981 19.8232 8.2466C19.8741 8.25508 19.9267 8.26187 19.9776 8.27205C20.0183 8.27883 20.0574 8.28902 20.0964 8.2975C20.1422 8.30768 20.1897 8.31616 20.2355 8.32635C20.2372 8.33313 20.2389 8.33823 20.2406 8.34502C20.2796 8.47907 20.3136 8.61311 20.3458 8.74716C20.3543 8.7828 20.3628 8.82012 20.3713 8.85575C20.4035 8.99659 20.4341 9.13742 20.4612 9.27995C20.4612 9.28335 20.4629 9.28505 20.4629 9.28845C20.4884 9.42759 20.5121 9.56842 20.5325 9.70755C20.5376 9.74488 20.5427 9.78222 20.5477 9.81785C20.5664 9.95529 20.5834 10.0927 20.597 10.2319C20.597 10.237 20.5986 10.242 20.5986 10.2471C20.6122 10.3897 20.6224 10.5322 20.6309 10.673C20.6326 10.7104 20.6343 10.7494 20.636 10.7867C20.6377 10.8241 20.6377 10.8614 20.6394 10.9004C20.6275 10.9106 20.6139 10.9225 20.602 10.9327C20.5715 10.9598 20.541 10.9853 20.5087 11.0124C20.4884 11.0294 20.468 11.0463 20.4459 11.065C20.4324 11.0752 20.4188 11.0871 20.4052 11.0972C20.11 10.0724 19.662 9.08482 19.0919 8.16854ZM20.2644 8.2992C20.2406 8.21945 20.2152 8.14139 20.1897 8.06164C20.1643 7.98359 20.1422 7.90384 20.1151 7.82748C20.0879 7.74604 20.0557 7.66629 20.0251 7.58654C19.998 7.51358 19.9725 7.43892 19.9437 7.36595C19.9114 7.28451 19.8758 7.20476 19.8402 7.12501C19.8113 7.05544 19.7825 6.98587 19.7519 6.91799C19.7146 6.83655 19.6739 6.7568 19.6332 6.67705C19.6026 6.61427 19.5721 6.54809 19.5398 6.48531C19.4957 6.40216 19.4499 6.32071 19.4024 6.23927C19.3702 6.18158 19.3413 6.12388 19.3074 6.06789C19.2531 5.97626 19.1954 5.88633 19.1377 5.7964C19.1105 5.75228 19.0851 5.70816 19.0562 5.66574C19.007 5.59108 18.9527 5.51812 18.9018 5.44516C18.9375 5.34505 18.9561 5.24833 18.9595 5.155C20.0455 6.1697 20.9024 7.43382 21.4165 8.88969C21.4063 8.87781 21.3979 8.86763 21.3877 8.85575L21.386 8.85406C21.3419 8.80655 21.2926 8.76073 21.2366 8.71831L21.235 8.71662C21.179 8.6742 21.1179 8.63347 21.05 8.59445L21.0466 8.59275C20.9787 8.55372 20.9058 8.51808 20.826 8.48415L20.8209 8.48246C20.7412 8.44852 20.6563 8.41628 20.5664 8.38744C20.563 8.38744 20.5613 8.38574 20.5596 8.38404C20.4697 8.3552 20.373 8.32804 20.2729 8.30429C20.2695 8.30089 20.2661 8.3009 20.2644 8.2992ZM18.8815 5.41462C18.873 5.40274 18.8662 5.39086 18.8577 5.38068C18.834 5.34674 18.8102 5.31281 18.7864 5.27888C18.6931 5.15331 18.5964 5.02945 18.4963 4.90897C18.3368 4.71723 18.1705 4.53737 17.9991 4.36429C18.3249 4.59845 18.6354 4.85297 18.929 5.12616C18.929 5.21779 18.9171 5.31281 18.8815 5.41462ZM18.89 5.4757C18.8934 5.48079 18.8967 5.48589 18.9001 5.49098C18.951 5.56224 19.0019 5.6335 19.0495 5.70816C19.0851 5.76246 19.119 5.82015 19.1547 5.87615C19.2005 5.95081 19.248 6.02547 19.2938 6.10183C19.3294 6.16121 19.36 6.224 19.3939 6.28508C19.4363 6.35974 19.4788 6.4344 19.5178 6.51245C19.55 6.57693 19.5806 6.64141 19.6128 6.70759C19.6501 6.78395 19.6892 6.8603 19.7248 6.93835C19.7553 7.00453 19.7825 7.0741 19.8113 7.14197C19.8453 7.22003 19.8792 7.29808 19.9114 7.37953C19.9403 7.4508 19.9657 7.52545 19.9929 7.59842C20.0217 7.67647 20.0523 7.75453 20.0794 7.83428C20.1049 7.91063 20.1286 7.98869 20.1524 8.06674C20.1761 8.1414 20.2016 8.21606 20.2237 8.29072C20.2101 8.28733 20.1948 8.28563 20.1829 8.28224C20.0896 8.26188 19.9912 8.24321 19.8894 8.22624C19.8571 8.22115 19.8232 8.21605 19.7893 8.21096C19.6756 8.194 19.5602 8.17872 19.4397 8.16684C19.4312 8.16515 19.4228 8.16515 19.4143 8.16346C19.3023 8.15158 19.1869 8.14309 19.0681 8.1363C18.7322 7.60011 18.3521 7.08768 17.933 6.60578C18.4301 6.20534 18.7542 5.82185 18.89 5.4757ZM19.0257 8.13292C19.0223 8.13292 19.0189 8.13292 19.0138 8.13292C18.9765 8.13122 18.9375 8.12952 18.8984 8.12782C18.7831 8.12273 18.666 8.11934 18.5455 8.11764C18.515 8.11764 18.4861 8.11594 18.4556 8.11594C18.3096 8.11425 18.1586 8.11595 18.0042 8.12104C17.9669 8.12273 17.9279 8.12442 17.8888 8.12442C17.7633 8.12782 17.6343 8.13461 17.5054 8.1414C17.4646 8.1431 17.4239 8.14649 17.3815 8.14818C17.2186 8.15836 17.054 8.17025 16.8843 8.18552C16.8572 8.18721 16.8283 8.19061 16.7995 8.194C16.752 8.19909 16.7045 8.20249 16.657 8.20758C16.5942 7.99378 16.528 7.78337 16.4584 7.57636C17.0286 7.25736 17.5155 6.93835 17.9007 6.62953C18.3147 7.09785 18.6897 7.60181 19.0257 8.13292ZM16.4516 7.54412C16.0105 6.23248 15.4285 5.07525 14.7497 4.16915C14.7345 4.14879 14.7175 4.13013 14.7022 4.10977C14.7514 4.10468 14.7989 4.09959 14.8481 4.09619C15.9663 4.74098 17.0014 5.59448 17.8837 6.60578C17.502 6.91291 17.0184 7.22851 16.4516 7.54412ZM14.6802 4.08093C14.6428 4.03342 14.6072 3.9876 14.5699 3.94179C14.6462 3.98251 14.7243 4.02663 14.8006 4.06905C14.7599 4.07244 14.7192 4.07584 14.6802 4.08093ZM14.6411 4.08431C14.502 4.09789 14.3595 4.11486 14.2169 4.13183C14.1406 3.99778 13.9896 3.88579 14.1321 3.8281C14.3187 3.75344 14.4121 4.01983 14.4833 3.89257C14.4867 3.89427 14.4901 3.89597 14.4952 3.89767C14.5427 3.95875 14.5919 4.02153 14.6411 4.08431ZM13.8284 2.8168C13.7486 2.71499 13.6841 2.63524 13.6332 2.57076C13.937 2.61997 14.239 2.67936 14.5359 2.75402C14.5325 2.90334 14.4528 3.07132 14.3018 3.24948C14.1694 3.1867 14.1168 3.18501 13.8284 2.8168ZM13.6841 4.39313C13.7944 4.51191 14.1134 4.55264 14.2322 4.33375C14.2644 4.27436 14.256 4.21667 14.2305 4.16237C14.3764 4.1437 14.5224 4.12844 14.6632 4.11317C14.6836 4.13862 14.7039 4.16237 14.7226 4.18951C15.3996 5.09392 15.9799 6.24946 16.4211 7.56109C16.3379 7.60691 16.2497 7.65441 16.1632 7.70022C16.0953 7.56957 16.0342 7.45419 15.9222 7.42704C15.7593 7.38801 15.6982 7.35917 15.6982 7.35917C15.6982 7.35917 15.4743 7.21324 15.3776 7.29808C15.2825 7.38292 15.0518 7.52885 15.006 7.57975C14.9601 7.63066 14.9941 7.70871 15.006 7.88348C15.0178 8.05825 14.9669 8.05825 15.2248 8.06334C15.2893 8.06504 15.3623 8.06504 15.4352 8.06844C15.2622 8.15158 15.084 8.23472 14.8991 8.31617C14.8787 8.27884 14.8583 8.24151 14.8363 8.20418C14.7871 8.11764 14.7362 8.0328 14.6869 7.94796C14.6581 7.89875 14.631 7.84955 14.6021 7.80204C14.5529 7.72059 14.5037 7.64084 14.4545 7.56109C14.4239 7.51019 14.3934 7.45928 14.3612 7.41007C14.3187 7.3439 14.2763 7.27772 14.2339 7.21324C14.4833 7.25905 14.5207 7.22851 14.8363 7.26584C15.2079 7.30995 15.0212 7.32184 15.14 7.22681C15.2588 7.13179 15.3487 7.03508 15.4437 6.93497C15.5387 6.83316 15.5557 6.7551 15.4149 6.59221C15.274 6.42931 15.3029 6.34447 15.2231 6.27151C15.1451 6.19854 14.8414 5.97966 14.6106 5.82186C14.3798 5.66405 14.4765 5.71496 14.3917 5.52322C14.3069 5.33148 14.3069 5.27039 14.2407 5.13634C14.1728 5.00229 14.2186 4.9446 14.1168 4.87842C14.015 4.81055 13.9488 4.97345 13.847 5.05829C13.7452 5.14313 13.6621 5.13125 13.5484 5.08034C13.4364 5.02944 13.4364 4.92933 13.3804 4.69347C13.3244 4.45762 13.3465 4.48477 13.2684 4.41859C13.2311 4.38635 13.1988 4.3575 13.1632 4.32187C13.2786 4.30151 13.3923 4.28454 13.506 4.26757C13.5925 4.31678 13.6553 4.36259 13.6841 4.39313ZM13.1412 4.29133C13.1191 4.26588 13.0936 4.23703 13.0648 4.20139C13.1242 4.16915 13.1802 4.13522 13.2379 4.10299C13.3193 4.1488 13.3974 4.19631 13.4669 4.23873C13.36 4.2557 13.2514 4.27266 13.1412 4.29133ZM9.74074 2.59452C9.72716 2.59961 9.71529 2.60469 9.70171 2.60978C9.70001 2.60808 9.69832 2.603 9.69832 2.603C9.72207 2.59621 9.74413 2.59112 9.76789 2.58434C9.75771 2.58943 9.74922 2.59112 9.74074 2.59452ZM9.70002 2.67256C9.64911 2.68444 9.5999 2.69632 9.549 2.7099C9.55918 2.7065 9.56936 2.70141 9.57954 2.69802C9.61687 2.68275 9.65251 2.66747 9.68984 2.6539C9.69323 2.65899 9.69662 2.66578 9.70002 2.67256ZM9.36235 2.74214C9.36235 2.72517 9.36235 2.7099 9.36235 2.69632C9.39459 2.68614 9.42853 2.67766 9.46077 2.66748C9.42683 2.69123 9.39459 2.71669 9.36235 2.74214ZM9.41835 2.8134C9.47943 2.82867 9.53882 2.84564 9.6016 2.8643C9.62196 2.87109 9.64402 2.87958 9.66438 2.88806C9.56597 2.8677 9.46925 2.84564 9.39289 2.82528C9.38271 2.82189 9.37423 2.81679 9.36405 2.8134C9.36405 2.80831 9.36404 2.80153 9.36235 2.79644C9.38101 2.80153 9.39968 2.80831 9.41835 2.8134ZM9.87139 4.50003C10.0173 4.22685 10.0563 4.30151 10.316 4.12165C10.3991 4.34563 10.4873 4.58827 10.579 4.85637C10.2956 4.93273 10.0122 5.01247 9.72886 5.09732C9.72207 5.04132 9.71359 4.97514 9.68475 4.90557C9.60669 4.70196 9.72547 4.77492 9.87139 4.50003ZM10.5908 4.88691C10.6231 4.97854 10.6553 5.07356 10.6893 5.17028C10.5569 5.2127 10.4246 5.25511 10.2922 5.29414C10.243 5.2619 10.204 5.23306 10.1938 5.2127C10.1548 5.14483 10.0309 5.2127 9.86291 5.24664C9.76449 5.267 9.74923 5.21439 9.73735 5.12786C10.019 5.04471 10.3041 4.96327 10.5908 4.88691ZM10.6994 5.20252C10.7673 5.40444 10.8386 5.61994 10.9115 5.84222C10.8776 5.80998 10.842 5.77604 10.8097 5.71834C10.7198 5.55545 10.7147 5.62842 10.6519 5.54358C10.6112 5.48928 10.4483 5.39425 10.3261 5.3162C10.45 5.28057 10.5756 5.24324 10.6994 5.20252ZM10.7283 5.19234C11.2271 5.02944 11.7158 4.84449 12.1774 4.63917C12.1943 4.65614 12.2096 4.67481 12.2266 4.69177C12.2096 4.7325 12.1825 4.76643 12.1349 4.80886C12.028 4.90388 12.0331 5.01077 12.0162 5.2636C11.9992 5.51643 11.9873 5.57751 11.9042 5.68441C11.8193 5.79131 11.6395 5.84221 11.5275 5.94233C11.4155 6.04413 11.4766 6.19515 11.4596 6.39198C11.4426 6.58882 11.4206 6.543 11.3816 6.65669C11.3595 6.72286 11.3069 6.75171 11.2322 6.74153C11.1593 6.50737 11.0863 6.2766 11.015 6.05771C11.0083 5.98305 10.9896 5.93894 10.9641 5.9033C10.8844 5.65726 10.8046 5.41801 10.7283 5.19234ZM11.015 6.16461C11.0744 6.34786 11.1338 6.53791 11.1966 6.73643C11.1508 6.72456 11.0982 6.69911 11.0388 6.65839C10.864 6.53622 10.9998 6.44119 11.015 6.16461ZM13.2684 14.1651C13.2905 14.2567 13.3142 14.3466 13.3363 14.4383C13.3244 14.4417 13.3125 14.4451 13.3007 14.4485C13.2582 14.384 13.1802 14.2635 13.0003 14.2516C12.9969 14.2516 12.9749 14.2516 12.946 14.255C13.0512 14.2245 13.1598 14.1939 13.2684 14.1651ZM13.299 14.1566C14.1032 13.9428 14.9007 13.7646 15.6677 13.6289C15.6389 13.6408 15.6117 13.6509 15.5829 13.6628C15.5201 13.6866 15.4556 13.7103 15.3911 13.7358C15.3046 13.768 15.2197 13.8003 15.1332 13.8325C15.0789 13.8529 15.0229 13.8715 14.9686 13.8919C14.8736 13.9258 14.7769 13.9615 14.6802 13.9954C14.6377 14.0107 14.5953 14.0243 14.5529 14.0395C14.4426 14.0785 14.3323 14.1159 14.222 14.1532C14.2034 14.16 14.1847 14.1651 14.166 14.1719C14.032 14.216 13.8962 14.2618 13.7622 14.3042C13.7537 14.3076 13.7469 14.3093 13.7384 14.311C13.6146 14.35 13.489 14.3891 13.3651 14.4281C13.3448 14.3365 13.3227 14.2465 13.299 14.1566ZM14.6819 21.0032C14.7124 20.988 14.7684 20.9795 14.838 20.9727C14.7837 21.0219 14.7294 21.0762 14.6734 21.122C14.6717 21.0881 14.67 21.0491 14.6666 21.0117C14.67 21.0083 14.6751 21.0066 14.6819 21.0032ZM14.7803 21.195C14.7446 21.2052 14.7107 21.2153 14.6751 21.2255C14.6751 21.2103 14.6751 21.1933 14.6751 21.1763C14.7107 21.1848 14.7446 21.1882 14.7803 21.195ZM14.765 21.1593C14.8414 21.1509 14.9177 21.1424 14.9924 21.1322C14.9449 21.1475 14.8957 21.161 14.8481 21.1763C14.8448 21.1763 14.8414 21.1746 14.838 21.1746C14.8142 21.1695 14.7905 21.1644 14.765 21.1593ZM15.2299 21.0915C15.4811 21.0474 15.7288 20.9897 15.9697 20.9201C16.153 20.8658 16.3346 20.8064 16.511 20.7385C16.4839 20.7623 16.4584 20.7894 16.4313 20.8115C16.4041 20.8336 16.377 20.8505 16.3481 20.8692C16.3074 20.8997 16.265 20.9303 16.2226 20.9574C16.1903 20.9778 16.1547 20.9931 16.1208 21.01C16.0817 21.0304 16.0427 21.0541 16.0003 21.0711C15.9647 21.0864 15.9256 21.0966 15.8883 21.1101C15.8476 21.1237 15.8068 21.1407 15.7644 21.1526C15.7254 21.1627 15.6847 21.1678 15.6456 21.1763C15.6015 21.1848 15.5591 21.195 15.515 21.2001C15.4743 21.2052 15.4319 21.2052 15.3894 21.2086C15.3436 21.212 15.2995 21.2153 15.252 21.2153C15.2096 21.2153 15.1638 21.2103 15.1213 21.2069C15.0738 21.2035 15.0246 21.2018 14.9754 21.1967C14.9584 21.195 14.9398 21.1899 14.9211 21.1882C15.0246 21.156 15.1281 21.1254 15.2299 21.0915ZM15.4641 21.0134C15.89 20.8692 16.3074 20.7097 16.7062 20.5366C16.679 20.5689 16.6536 20.6045 16.6264 20.6333C16.6128 20.6486 16.5976 20.6588 16.584 20.6741C16.2243 20.8166 15.851 20.9303 15.4641 21.0134ZM16.7791 20.5044C17.3238 20.2634 17.7904 20.0123 18.162 19.7663C17.7073 20.1226 17.2033 20.4144 16.662 20.6401C16.7028 20.596 16.7418 20.5519 16.7791 20.5044ZM16.8215 20.4484C16.8283 20.4399 16.8351 20.4297 16.8419 20.4212C16.847 20.4144 16.8521 20.4094 16.8555 20.4026C16.8911 20.3534 16.925 20.3025 16.9573 20.2499C17.4154 19.9987 17.8532 19.712 18.2672 19.3913C18.5676 19.1588 18.8492 18.9094 19.1173 18.6464C19.1088 18.7617 19.0562 18.8873 18.9629 19.0197C18.8119 19.186 18.6541 19.3438 18.4878 19.4914C18.0941 19.8053 17.5257 20.1328 16.8215 20.4484ZM19.153 18.6141C19.3498 18.4207 19.5381 18.2188 19.7163 18.0101C19.6569 18.1068 19.5975 18.2035 19.5347 18.2985C19.3939 18.5055 19.2429 18.7041 19.0817 18.8907C19.1326 18.7923 19.1547 18.7007 19.153 18.6141ZM19.153 18.5717C19.1275 18.3325 18.8967 18.1509 18.4861 18.0491C18.5302 17.9897 18.5727 17.9269 18.6168 17.8658C18.6575 17.8081 18.6965 17.7504 18.7372 17.6928C18.7932 17.6096 18.8475 17.5248 18.9018 17.4399C18.9392 17.3822 18.9765 17.3229 19.0121 17.2635C19.0664 17.1735 19.119 17.0836 19.1716 16.992C19.2039 16.9343 19.2378 16.8783 19.27 16.8189C19.2802 16.8002 19.2904 16.7833 19.3006 16.7646C19.7944 16.4812 20.2186 16.1979 20.5647 15.9213C20.4018 16.6034 20.1507 17.2465 19.8164 17.8353C19.6077 18.0949 19.3871 18.3392 19.153 18.5717ZM20.6071 15.8907C20.6377 15.867 20.6631 15.8432 20.6903 15.8195C20.7276 15.9892 20.7581 16.147 20.7734 16.2827C20.7785 16.3251 20.7836 16.3625 20.7887 16.3981C20.7734 16.4269 20.7581 16.4558 20.7429 16.4829C20.5002 16.9122 20.227 17.3178 19.9284 17.6996C20.2304 17.1379 20.4578 16.5321 20.6071 15.8907ZM20.6173 15.8415C20.6309 15.7788 20.6411 15.7143 20.6546 15.6498C20.6648 15.6956 20.675 15.7397 20.6852 15.7838C20.6614 15.8025 20.6411 15.8212 20.6173 15.8415ZM20.7853 13.7205C20.6512 13.9445 20.4375 14.0344 20.4375 14.2601C20.4375 14.4841 20.4256 14.5978 20.5274 15.0797C20.5647 15.2544 20.602 15.4173 20.636 15.57C20.6173 15.6719 20.6003 15.7737 20.5766 15.8738C20.2355 16.147 19.8164 16.4286 19.3277 16.712C19.3634 16.6458 19.3973 16.578 19.4312 16.5101C19.4567 16.4609 19.4838 16.4117 19.5076 16.3608C19.584 16.2047 19.6569 16.0468 19.7265 15.8873C19.8045 15.7075 19.8775 15.5259 19.9454 15.3444C19.9657 15.2884 19.9861 15.2341 20.0065 15.1781C20.054 15.0457 20.0998 14.9117 20.1422 14.7776C20.1609 14.7199 20.1795 14.6623 20.1965 14.6029C20.244 14.4434 20.2898 14.2822 20.3306 14.1227C20.3373 14.0955 20.3458 14.0701 20.3526 14.0429C20.3984 13.8563 20.4391 13.6679 20.4765 13.4813C20.4765 13.4779 20.4782 13.4762 20.4782 13.4728C20.5885 13.4999 20.6903 13.5305 20.7853 13.5644C20.787 13.617 20.7853 13.6662 20.787 13.7188C20.787 13.7188 20.787 13.7188 20.7853 13.7205ZM20.4867 13.4388C20.4934 13.3998 20.4985 13.3591 20.507 13.3201C20.5325 13.1809 20.5545 13.0418 20.5749 12.901C20.5834 12.8399 20.5919 12.7805 20.6003 12.7194C20.619 12.5701 20.6343 12.4208 20.6479 12.2714C20.7208 12.6939 20.7683 13.1131 20.787 13.5271C20.6903 13.4948 20.5936 13.466 20.4867 13.4388ZM20.6462 11.6012C20.6428 11.7336 20.636 11.8659 20.6275 11.9983C20.5698 11.7115 20.5019 11.423 20.4188 11.1346C20.4324 11.1244 20.4442 11.1142 20.4578 11.1023C20.4816 11.0837 20.5036 11.065 20.5257 11.0463C20.5545 11.0226 20.5834 10.9971 20.6122 10.9734C20.6224 10.9649 20.6343 10.9547 20.6445 10.9445C20.6462 10.9802 20.6462 11.0158 20.6479 11.0514C20.6512 11.1719 20.6513 11.2907 20.6496 11.4112C20.6479 11.4739 20.6479 11.5367 20.6462 11.6012ZM20.6394 10.3014C20.636 10.2709 20.636 10.2421 20.6326 10.2115C20.6139 10.0198 20.5885 9.82972 20.5596 9.64138C20.5511 9.58877 20.5427 9.53787 20.5325 9.48697C20.5087 9.34444 20.4816 9.2019 20.451 9.05937C20.4391 9.00168 20.4273 8.94399 20.4137 8.88799C20.3764 8.7234 20.3339 8.55882 20.2898 8.39592C20.2847 8.37726 20.2813 8.35689 20.2746 8.33822C20.3238 8.3501 20.3696 8.36368 20.4154 8.37726C20.4612 8.38914 20.507 8.40101 20.5511 8.41628C20.6003 8.43155 20.6428 8.45022 20.6886 8.46718C20.7276 8.48246 20.77 8.49603 20.8074 8.5113C20.8498 8.52997 20.8871 8.55032 20.9261 8.56899C20.9601 8.58596 20.9957 8.60124 21.0279 8.6199C21.0653 8.64026 21.0958 8.66401 21.1297 8.68607C21.1569 8.70473 21.1874 8.7217 21.2129 8.74037C21.2451 8.76412 21.2706 8.79128 21.2977 8.81673C21.3181 8.83539 21.3419 8.85406 21.3605 8.87442C21.3877 8.90327 21.4063 8.9338 21.4284 8.96265C21.4369 8.97453 21.4471 8.98471 21.4538 8.99659C21.498 9.12724 21.5404 9.2596 21.5794 9.39195C21.5811 9.42758 21.5811 9.46322 21.5777 9.50055C21.5777 9.50734 21.576 9.51582 21.576 9.52261C21.5709 9.57351 21.559 9.62441 21.5455 9.67531C21.5421 9.6855 21.5404 9.69567 21.537 9.70416C21.5217 9.75676 21.503 9.80936 21.4793 9.86366C21.4759 9.87214 21.4708 9.88063 21.4674 9.88911C21.442 9.94511 21.4114 10.0028 21.3775 10.0622L21.3758 10.0639C21.3419 10.1216 21.3011 10.181 21.2587 10.2404C21.2519 10.2488 21.2468 10.2573 21.24 10.2658C21.1976 10.3235 21.1501 10.3812 21.1009 10.4389C21.0907 10.4508 21.0822 10.4609 21.0721 10.4728C21.0212 10.5322 20.9652 10.5899 20.9075 10.651C20.8973 10.6612 20.8888 10.6696 20.8786 10.6798C20.8158 10.7426 20.7497 10.8054 20.6801 10.8699C20.6784 10.8444 20.6767 10.8173 20.675 10.7918C20.6665 10.6272 20.6546 10.4643 20.6394 10.3014ZM21.4878 8.98301C21.4861 8.98132 21.4861 8.97962 21.4844 8.97793C20.9787 7.48982 20.1134 6.16801 18.9629 5.10071C18.9629 5.08714 18.9646 5.07356 18.9646 5.06168C18.9578 4.98023 18.9307 4.90388 18.8967 4.83091C20.076 5.96608 20.9787 7.38631 21.4878 8.98301ZM18.8085 4.74777C18.8764 4.84449 18.9205 4.94969 18.9307 5.06508V5.07016C18.593 4.75964 18.2299 4.47119 17.8447 4.20649C18.1077 4.27436 18.3232 4.3609 18.4929 4.46271C18.5998 4.55603 18.705 4.65105 18.8085 4.74777ZM17.2576 3.55321C17.6496 3.79755 18.0229 4.06735 18.3758 4.36259C18.2112 4.28115 18.0178 4.21157 17.7887 4.15727C17.614 3.99268 17.4307 3.83997 17.244 3.69405C17.2576 3.63296 17.2644 3.58206 17.2576 3.55321ZM17.239 3.7212C17.2848 3.75684 17.3289 3.79586 17.373 3.83149C17.4426 3.88748 17.5121 3.94348 17.58 4.00287C17.614 4.03341 17.6462 4.06395 17.6801 4.09449C17.5291 3.99438 17.373 3.89936 17.2152 3.80773C17.2237 3.77719 17.2322 3.74835 17.239 3.7212ZM17.2033 3.84507C17.3594 3.93669 17.5155 4.03172 17.6666 4.13183C17.4986 4.0962 17.317 4.07074 17.1253 4.04869C17.1524 3.9859 17.1796 3.91464 17.2033 3.84507ZM16.1547 2.96102C16.1106 2.94066 16.0682 2.9203 16.024 2.90164C16.0173 2.89825 16.0122 2.89485 16.0054 2.89146C16.0546 2.91352 16.1038 2.93727 16.1547 2.96102ZM15.5981 4.12335C15.8764 4.48646 16.0274 4.58657 16.3227 4.91576C16.6179 5.24494 16.7197 5.46382 16.8623 5.38746C17.0048 5.31111 17.166 5.26869 17.1405 5.04132C17.1151 4.81395 17.166 4.72063 17.0642 4.52719C16.9624 4.33375 16.9132 4.31678 17.0133 4.23193C17.0404 4.20818 17.0761 4.15049 17.11 4.07923C17.3357 4.10298 17.5478 4.13691 17.7395 4.18103C17.7819 4.20988 17.8244 4.24042 17.8668 4.26927C17.8804 4.28115 17.8939 4.29302 17.9058 4.30659C17.9499 4.34902 17.9923 4.39653 18.0348 4.44065C18.0958 4.50343 18.1586 4.56452 18.2163 4.63069C18.2587 4.67651 18.2978 4.72571 18.3402 4.77322C18.3979 4.83939 18.4556 4.90388 18.5116 4.97175C18.5523 5.02096 18.5896 5.07186 18.6286 5.12276C18.6829 5.19233 18.7372 5.26021 18.7898 5.33148C18.817 5.36881 18.8424 5.40783 18.8696 5.44516C18.7406 5.79131 18.4148 6.17819 17.916 6.58203C17.3645 5.95081 16.7486 5.3739 16.0732 4.86315C15.6966 4.57809 15.308 4.32018 14.9143 4.09111C15.1298 4.07244 15.3385 4.05887 15.5421 4.05038C15.5608 4.07414 15.5778 4.09789 15.5981 4.12335ZM14.5784 2.7659C14.5868 2.78286 14.5936 2.79813 14.6021 2.8168C14.6869 3.01023 14.7616 3.09508 14.9907 3.33942C15.1943 3.55831 15.2978 3.7246 15.5184 4.01814C15.3063 4.02833 15.0908 4.04189 14.8668 4.06225C14.748 3.99438 14.6293 3.92821 14.5088 3.86543C14.5054 3.86203 14.502 3.85864 14.4986 3.85355C14.502 3.84337 14.5054 3.83318 14.5088 3.81961C14.5851 3.54133 14.8465 3.63467 14.5088 3.38184C14.429 3.32245 14.373 3.28851 14.3255 3.26476C14.4765 3.0849 14.5597 2.91521 14.5648 2.7625C14.5716 2.7625 14.575 2.7642 14.5784 2.7659ZM13.1734 2.11771C13.4686 2.15165 13.7588 2.19915 14.0456 2.26024C14.0608 2.30945 14.1117 2.41805 14.2594 2.48931C14.3968 2.55549 14.4698 2.59622 14.5325 2.68275C14.5342 2.69124 14.5359 2.69972 14.5376 2.7082V2.7133C14.2271 2.63524 13.9132 2.57415 13.5976 2.52494C13.4194 2.30945 13.3821 2.30097 13.1717 2.19237C13.0953 2.15335 12.9749 2.12789 12.8408 2.11262C12.9545 2.11262 13.0665 2.11432 13.1734 2.11771ZM12.8069 2.68275C12.9664 2.84225 12.8578 2.93558 12.8578 3.06284C12.8578 3.09168 12.851 3.12561 12.8425 3.16294C12.6406 3.09847 12.4387 3.04247 12.2367 2.99156C12.2435 2.98647 12.2503 2.97969 12.2588 2.9729C12.3827 2.87109 12.3097 2.88806 12.2978 2.83206C12.286 2.77607 11.8702 2.83715 11.7141 2.85412C11.5563 2.87109 11.5954 2.82019 11.5173 2.78116C11.4494 2.74723 11.4986 2.6047 11.5139 2.45538C11.6021 2.45029 11.6921 2.44689 11.7803 2.4452C11.7769 2.45707 11.7718 2.46895 11.7701 2.48083C11.7532 2.64033 11.9636 2.61488 12.0484 2.64033C12.1332 2.66579 12.6474 2.52156 12.8069 2.68275ZM12.0128 2.11431C12.0213 2.11431 12.028 2.11262 12.0365 2.11262C12.0348 2.11431 12.0314 2.11771 12.0297 2.11941C12.023 2.11602 12.0179 2.11601 12.0128 2.11431ZM12.4828 2.09395C12.476 2.09395 12.4709 2.09395 12.4641 2.09395C12.4743 2.09395 12.4845 2.09395 12.4947 2.09395C12.4913 2.09226 12.4879 2.09226 12.4828 2.09395ZM12.0009 2.04645C12.1638 2.04645 12.325 2.05153 12.4845 2.05832C12.3963 2.06001 12.3097 2.06172 12.2215 2.06511C12.2062 2.06511 12.1892 2.06511 12.174 2.06681C12.084 2.0719 11.9924 2.08038 11.9025 2.08887C11.8312 2.0736 11.7583 2.06341 11.687 2.05493C11.7922 2.05154 11.8957 2.04645 12.0009 2.04645ZM11.4376 2.06341C11.5512 2.0685 11.6666 2.07869 11.7803 2.09905C11.7752 2.09905 11.7718 2.09904 11.7667 2.10074C11.6547 2.11262 11.5428 2.12959 11.4308 2.14655C11.407 2.14995 11.3833 2.15164 11.3578 2.15674C11.2543 2.1737 11.1525 2.19407 11.0507 2.21443C11.0184 2.22122 10.9845 2.22631 10.9523 2.23309C10.8572 2.25346 10.7605 2.2789 10.6655 2.30266C10.6265 2.31284 10.5858 2.32133 10.5467 2.33151C10.4653 2.35357 10.3838 2.37902 10.3024 2.40447C10.2481 2.42144 10.1955 2.43501 10.1412 2.45198C10.1259 2.45707 10.1089 2.46386 10.0937 2.46895C9.95623 2.50119 9.8188 2.53683 9.67966 2.57416C9.67626 2.56906 9.67456 2.56397 9.67117 2.56058C9.9732 2.36375 10.2871 2.228 10.6095 2.14655C10.8827 2.10753 11.1576 2.08038 11.4376 2.06341ZM10.3737 2.18219C10.1276 2.26534 9.88666 2.38072 9.6542 2.53173C9.6016 2.45029 9.55579 2.39429 9.51676 2.36035C9.79673 2.28909 10.0835 2.2297 10.3737 2.18219ZM9.39968 2.39429C9.42683 2.38751 9.45228 2.37902 9.47943 2.37223C9.51846 2.39599 9.56766 2.45368 9.62705 2.5504C9.59651 2.57076 9.56597 2.59112 9.53543 2.61318C9.47604 2.62845 9.41834 2.64711 9.35896 2.66408C9.36405 2.50967 9.38101 2.43332 9.39968 2.39429ZM9.36065 2.40617C9.34029 2.46386 9.33011 2.55039 9.32841 2.67256C9.28769 2.68444 9.24527 2.69632 9.20455 2.7082C9.1231 2.61487 9.10783 2.50628 9.10783 2.50628C8.86688 2.57076 8.6429 2.64033 8.4291 2.7133C8.73113 2.59621 9.04165 2.49271 9.36065 2.40617ZM9.32841 2.75572C9.29618 2.74893 9.26393 2.74383 9.2317 2.73874C9.23 2.73704 9.23 2.73705 9.2283 2.73535C9.26054 2.72517 9.29448 2.71668 9.32672 2.7065C9.32841 2.72177 9.32841 2.73875 9.32841 2.75572ZM7.57221 12.1085C7.87085 12.2036 7.7402 12.0407 7.9489 11.9236C8.15761 11.8048 8.34765 11.8557 8.75319 11.9457C9.15873 12.0356 8.98905 12.0695 9.10783 12.2494C9.2266 12.4292 9.28769 12.5633 9.40647 12.7771C9.52524 12.9909 9.6033 13.0011 9.73735 12.9349C9.8714 12.867 9.88836 12.7669 9.94605 12.6091C10.002 12.4513 9.91212 12.3105 9.87309 12.1204C9.83406 11.9287 9.86121 11.9355 9.83915 11.7777C9.81709 11.6199 9.91212 11.4061 10.002 11.2771C10.092 11.1481 10.5026 11.0531 10.7775 11.0124C10.9251 10.992 10.9675 10.9564 10.9913 10.9021C11.2628 11.9575 11.558 13.0452 11.8635 14.1278C11.7633 14.1634 11.5886 14.2635 11.5445 14.2397C11.5445 14.2397 11.446 14.2601 11.4325 14.3331C11.4189 14.406 11.4376 14.4451 11.4698 14.4892C11.4902 14.518 11.7277 14.5265 11.9296 14.5231C11.144 14.7708 10.3703 15.0508 9.62705 15.3596C9.44379 15.3936 9.26224 15.4258 9.08068 15.4564C9.00262 15.2663 9.08747 15.2103 9.04674 14.9965C9.00772 14.7827 8.93985 14.9745 8.78883 14.8625C8.76847 14.8472 8.74471 14.837 8.71756 14.8285C8.67514 14.7471 8.63442 14.664 8.59369 14.5808C8.57503 14.5418 8.55467 14.5028 8.53431 14.4637C8.4834 14.3619 8.43589 14.2567 8.38668 14.1532C8.36632 14.1108 8.34596 14.0684 8.3256 14.0259C8.30015 13.9733 8.27639 13.919 8.25264 13.8647C8.34426 13.7307 8.44776 13.6034 8.44437 13.5305C8.43928 13.4151 8.28657 13.4524 8.08635 13.4931C8.0592 13.4287 8.03035 13.3625 8.0032 13.298C7.97945 13.242 7.95569 13.186 7.93194 13.13C7.89291 13.035 7.85558 12.9383 7.81655 12.8433C7.7945 12.7873 7.77074 12.7313 7.74868 12.6753C7.71135 12.5786 7.67572 12.4818 7.64008 12.3851C7.61802 12.3274 7.59597 12.2714 7.5756 12.2138C7.56033 12.1747 7.54676 12.134 7.53318 12.0933C7.54676 12.0967 7.55694 12.1035 7.57221 12.1085ZM9.88497 16.9071C9.92909 16.9733 9.97321 17.0395 10.019 17.104C10.058 17.1617 10.0971 17.2193 10.1361 17.277C10.1378 17.2787 10.1378 17.2787 10.1395 17.2804C10.0173 17.3415 9.99866 17.3721 9.82219 17.6537C9.61348 17.9846 9.7611 18.2154 9.72717 18.4343C9.69323 18.6532 9.71019 18.7091 9.82897 18.721C9.94775 18.7329 10.0648 18.9688 10.4025 19.2216C10.674 19.4252 10.5891 19.4354 10.7232 19.6322C10.2464 19.7103 9.78316 19.7748 9.34029 19.8189C9.31993 19.7934 9.29957 19.7697 9.2809 19.7425C8.60388 18.8381 8.02356 17.6826 7.58239 16.3709C7.88952 16.2013 8.22209 16.0299 8.57503 15.8619C8.64969 15.9909 8.57163 16.0485 8.62593 16.1317C8.6938 16.2335 8.89573 16.1826 9.11461 16.3166C9.3335 16.4507 9.46925 16.6034 9.6033 16.7154C9.66778 16.7697 9.72377 16.7646 9.77298 16.729C9.77468 16.7307 9.77467 16.7324 9.77637 16.7341C9.812 16.7918 9.84764 16.8494 9.88497 16.9071ZM9.79673 16.7086C9.83915 16.6696 9.87648 16.6102 9.91042 16.5525C9.98847 16.4185 10.0733 16.3438 10.1853 16.4405C10.2973 16.5372 10.3703 16.5915 10.3872 16.8002C10.4042 17.0089 10.4093 17.1481 10.2125 17.2448C10.1955 17.2533 10.1819 17.2601 10.1683 17.2669C10.0428 17.0836 9.9189 16.8987 9.79673 16.7086ZM3.4269 8.05656C3.5287 7.97511 3.6407 7.89196 3.75778 7.80712C3.68651 8.09897 3.45235 8.55712 3.28606 8.87612C3.32 8.59954 3.36411 8.32465 3.4269 8.05656ZM3.39635 8.04128C3.0553 8.31617 2.79568 8.58426 2.61921 8.83709C2.79399 8.36368 3.00609 7.89875 3.25891 7.4491C3.50156 7.0198 3.77474 6.61427 4.07338 6.23248C3.77305 6.79413 3.54567 7.39989 3.39635 8.04128ZM4.18707 12.3529C4.14465 12.3817 4.10223 12.4106 4.06151 12.4394C4.03775 12.4564 4.01569 12.4734 3.99194 12.4886C3.958 12.5124 3.92406 12.5378 3.89013 12.5616C3.85619 12.492 3.82226 12.4292 3.77644 12.3834C3.66445 12.2647 3.5847 11.9796 3.63561 11.8099C3.68651 11.6419 3.79341 11.6012 3.91727 11.6979C4.04114 11.7929 4.19895 11.9117 4.15822 12.1255C4.14804 12.1951 4.16162 12.2714 4.18707 12.3529ZM3.40144 12.828C3.42011 12.8467 3.44387 12.8687 3.47101 12.8925C3.44387 12.9162 3.41672 12.9383 3.38957 12.962C3.37939 12.9705 3.36751 12.9807 3.35733 12.9892C3.35563 12.9536 3.35563 12.9179 3.35393 12.8823C3.35393 12.8501 3.35393 12.8161 3.35393 12.7839C3.3709 12.7975 3.38787 12.811 3.40144 12.828ZM3.39805 12.996C3.42859 12.9688 3.45914 12.9434 3.49138 12.9162C3.49307 12.9145 3.49647 12.9128 3.49647 12.9128C3.54398 12.9519 3.59828 12.996 3.65936 13.0384C3.958 13.992 4.3805 14.9083 4.91161 15.7635C4.84883 15.7601 4.78774 15.7533 4.72496 15.7482C4.68424 15.7448 4.64182 15.7431 4.60279 15.738C4.54849 15.7329 4.49589 15.7261 4.44159 15.7194C4.39578 15.7143 4.34827 15.7092 4.30415 15.7024C4.25664 15.6956 4.21252 15.6871 4.16501 15.6803C4.1175 15.6736 4.06829 15.6668 4.02248 15.6583C3.98006 15.6498 3.94103 15.6413 3.90031 15.6328C3.85449 15.6226 3.80868 15.6142 3.76456 15.604C3.76287 15.5972 3.76117 15.5921 3.75947 15.5853C3.72045 15.4513 3.68651 15.3172 3.65427 15.1832C3.64579 15.1475 3.6373 15.1102 3.62882 15.0746C3.59658 14.9337 3.56434 14.7912 3.53889 14.6504C3.53889 14.6504 3.53889 14.647 3.53719 14.6453C3.51004 14.5045 3.48798 14.3636 3.46762 14.2211C3.46253 14.1855 3.45744 14.1481 3.45235 14.1125C3.43368 13.9733 3.41672 13.8342 3.40314 13.6934C3.40314 13.69 3.40144 13.6866 3.40144 13.6815C3.38787 13.539 3.37769 13.3964 3.3692 13.2539C3.36751 13.2166 3.36581 13.1792 3.36411 13.1419C3.36242 13.1046 3.36242 13.0655 3.36072 13.0282C3.3726 13.018 3.38617 13.0079 3.39805 12.996ZM8.12368 14.1362C8.13216 14.0616 8.17628 13.9784 8.23058 13.8953C8.30863 14.0684 8.38838 14.238 8.47152 14.4077C8.48 14.4264 8.49019 14.4467 8.49867 14.4654C8.54788 14.5672 8.59879 14.6673 8.64969 14.7675C8.65817 14.7844 8.66666 14.7997 8.67344 14.8167C8.48001 14.7742 8.16101 14.8167 7.96078 14.798C7.71305 14.7759 7.98284 14.5961 8.06768 14.4603C8.15083 14.328 8.09992 14.345 8.12368 14.1362ZM9.56767 20.1056C9.72038 20.1854 9.87309 20.2583 10.0258 20.3296C9.9749 20.372 9.92569 20.4128 9.88157 20.4552C9.77467 20.3432 9.67117 20.2278 9.56767 20.1056ZM11.088 21.4512C10.5382 21.4037 9.99696 21.3104 9.46925 21.178C9.47264 20.9778 9.61687 20.747 9.87988 20.4993C10.2668 20.898 10.6723 21.217 11.088 21.4512ZM9.85782 20.4772C9.59142 20.7284 9.4438 20.9642 9.43701 21.1695C8.3256 20.8862 7.27527 20.4212 6.33523 19.7985C7.06317 19.9512 8.03035 19.9699 9.13837 19.8698C9.25715 19.9376 9.37592 20.0038 9.4964 20.0666C9.61348 20.2108 9.73395 20.3483 9.85782 20.4772ZM9.20285 19.863C9.24187 19.8596 9.2826 19.8545 9.32163 19.8511C9.35896 19.8986 9.39629 19.9444 9.43362 19.9919C9.35726 19.9495 9.2809 19.9071 9.20285 19.863ZM9.15364 19.8358C8.03544 19.191 7.00038 18.3376 6.11804 17.3263C6.50152 17.0191 6.98512 16.7035 7.55185 16.3879C7.99302 17.6995 8.57503 18.8568 9.25375 19.7629C9.26903 19.7832 9.28599 19.8019 9.30127 19.8223C9.25036 19.8256 9.20115 19.8307 9.15364 19.8358ZM7.37538 15.7211C7.46022 15.7126 7.54506 15.7041 7.6316 15.6939C7.67911 15.6888 7.72662 15.6837 7.77243 15.6769C7.92515 15.6583 8.08126 15.6396 8.23737 15.6176C8.26451 15.6142 8.29166 15.6108 8.31881 15.6074C8.3239 15.6074 8.33069 15.6057 8.33578 15.6057C8.39008 15.6566 8.44268 15.7092 8.49358 15.7618C8.51903 15.7889 8.5394 15.8127 8.55467 15.8347C8.20343 16.0027 7.87255 16.1724 7.56882 16.3421C7.50095 16.1368 7.43647 15.9315 7.37538 15.7211ZM7.88103 15.3155C8.0066 15.3308 8.15422 15.4394 8.30184 15.5734C7.98284 15.6176 7.66893 15.6583 7.3652 15.6888C7.30751 15.4869 7.25321 15.285 7.20231 15.0831C7.29733 15.1917 7.70626 15.2952 7.88103 15.3155ZM7.53997 16.3557C6.96984 16.6747 6.48286 16.9937 6.09768 17.3025C5.68875 16.8325 5.31375 16.3302 4.97778 15.7991H4.98118C5.01172 15.8008 5.04226 15.8025 5.07281 15.8025C5.18819 15.8076 5.30697 15.811 5.42744 15.8144C5.46477 15.8144 5.5004 15.8161 5.53773 15.8161C5.68535 15.8178 5.83637 15.8161 5.99248 15.8127C6.01623 15.8127 6.03999 15.811 6.06205 15.811C6.19779 15.8076 6.33693 15.8008 6.47946 15.7923C6.52358 15.7906 6.566 15.7872 6.61012 15.7855C6.84767 15.7703 7.09371 15.7499 7.34314 15.7262C7.40423 15.9383 7.4704 16.1487 7.53997 16.3557ZM6.06714 17.3263C5.57337 17.7267 5.24927 18.1102 5.11353 18.4563C5.10844 18.4478 5.10335 18.441 5.09656 18.4326C5.04905 18.363 4.99815 18.2951 4.95233 18.2239C4.915 18.1662 4.87937 18.1051 4.84204 18.0474C4.79792 17.9744 4.75041 17.9049 4.70799 17.8302C4.67236 17.7691 4.64012 17.7063 4.60618 17.6453C4.56546 17.5706 4.52304 17.4959 4.48231 17.4213C4.44838 17.3568 4.41953 17.2906 4.38729 17.2244C4.34996 17.1481 4.31094 17.0734 4.2753 16.9954C4.24476 16.9275 4.21592 16.8579 4.18707 16.7884C4.15313 16.7103 4.1192 16.634 4.08865 16.5542C4.05981 16.4812 4.03436 16.4066 4.00721 16.3336C3.97836 16.2556 3.94782 16.1775 3.92067 16.0978C3.89522 16.0214 3.87146 15.9433 3.84771 15.8653C3.82395 15.7906 3.7985 15.716 3.77644 15.6413C3.87995 15.6651 3.98854 15.6854 4.10053 15.7041C4.12938 15.7092 4.15992 15.7126 4.19046 15.7177C4.29057 15.7329 4.39408 15.7465 4.49928 15.7584C4.52643 15.7618 4.55188 15.7652 4.57903 15.7669C4.69442 15.7788 4.8115 15.7889 4.93197 15.7957C5.26794 16.3336 5.64803 16.8461 6.06714 17.3263ZM5.12032 18.5174C5.1322 18.5344 5.14577 18.553 5.15765 18.57C5.17801 18.5972 5.19498 18.626 5.21534 18.6532C5.30866 18.7787 5.40538 18.9026 5.50549 19.0231C5.66499 19.2148 5.83128 19.3947 6.00266 19.5677C5.67687 19.3336 5.36636 19.0791 5.07281 18.8059C5.07281 18.7142 5.08638 18.6192 5.12032 18.5174ZM3.73911 15.6328C3.76287 15.7126 3.78832 15.7906 3.81377 15.8704C3.83922 15.9484 3.86128 16.0282 3.88843 16.1045C3.91558 16.186 3.94782 16.264 3.97666 16.3438C4.00381 16.4184 4.02927 16.4931 4.05981 16.5661C4.09205 16.6458 4.12598 16.7239 4.15992 16.8019C4.19046 16.8732 4.21931 16.9445 4.25155 17.014C4.28888 17.0955 4.3296 17.1735 4.36863 17.2516C4.40087 17.3161 4.43141 17.3822 4.46365 17.4467C4.50777 17.5299 4.55528 17.6113 4.60109 17.6928C4.63333 17.7504 4.66387 17.8081 4.69611 17.8641C4.74702 17.9507 4.80132 18.0338 4.85561 18.1187C4.88616 18.1679 4.9167 18.2188 4.94724 18.2663C4.99645 18.3409 5.05075 18.4139 5.10165 18.4869C5.06602 18.587 5.04735 18.6837 5.04396 18.777C3.958 17.7623 3.10111 16.4982 2.58697 15.0423C2.59715 15.0542 2.60564 15.0644 2.61582 15.0763L2.61752 15.078C2.66163 15.1255 2.71084 15.1696 2.76684 15.2137C2.76853 15.2154 2.76853 15.2154 2.77023 15.2171C2.82622 15.2595 2.88731 15.3003 2.95518 15.3393C2.95688 15.341 2.95858 15.341 2.96027 15.3427C3.02814 15.3817 3.10111 15.4173 3.17916 15.4513C3.18086 15.453 3.18425 15.453 3.18595 15.4547C3.264 15.4886 3.34884 15.5191 3.43877 15.548C3.44217 15.5497 3.44556 15.5497 3.44896 15.5514C3.53889 15.5802 3.63391 15.6074 3.73572 15.6311C3.73572 15.6311 3.73572 15.6311 3.73911 15.6328ZM5.07281 18.8619C5.41047 19.1724 5.77359 19.4608 6.15877 19.7255C5.48513 19.5525 5.10844 19.2572 5.07281 18.8686C5.07281 18.8653 5.07281 18.8619 5.07281 18.8619ZM6.13671 19.6628C6.12314 19.6509 6.10956 19.639 6.09598 19.6254C6.05017 19.5796 6.00605 19.5321 5.96024 19.4846C5.90085 19.4235 5.84146 19.3641 5.78547 19.303C5.74135 19.2538 5.69893 19.2029 5.65481 19.152C5.60051 19.0892 5.54282 19.0264 5.49022 18.962C5.4478 18.9094 5.40708 18.8551 5.36635 18.8008C5.31545 18.7346 5.26285 18.6701 5.21194 18.6022C5.1848 18.5649 5.15934 18.5259 5.13219 18.4886C5.26115 18.1424 5.58694 17.7555 6.0858 17.3517C6.63727 17.9829 7.25321 18.5598 7.92854 19.0706C8.30524 19.3556 8.6938 19.6135 9.08746 19.8426C7.96417 19.941 6.98511 19.9173 6.26057 19.7527C6.21985 19.7221 6.17913 19.6916 6.13671 19.6628ZM7.08353 20.2923C7.83352 20.6978 8.62254 21.0032 9.43531 21.2102C9.43531 21.2153 9.43531 21.2204 9.43531 21.2272C9.45228 21.4156 9.59482 21.5666 9.84934 21.6735C9.83916 21.6718 9.82728 21.6701 9.8171 21.6667C9.7611 21.6548 9.7068 21.6395 9.65251 21.626C9.57785 21.6073 9.50149 21.5903 9.42683 21.57C9.36914 21.553 9.30975 21.5343 9.25206 21.5157C9.18079 21.4936 9.10952 21.4733 9.03995 21.4495C8.97208 21.4257 8.90591 21.4003 8.83803 21.3748C8.77864 21.3528 8.71756 21.3324 8.65817 21.3087C8.53261 21.2578 8.40704 21.2035 8.28148 21.1458C8.14573 21.083 8.01169 21.0151 7.88103 20.9455C7.83352 20.9201 7.78771 20.8913 7.74189 20.8658C7.65875 20.82 7.5756 20.7742 7.49585 20.7233C7.43986 20.6893 7.38556 20.6503 7.33126 20.6147C7.26169 20.5706 7.19212 20.5264 7.12425 20.4789C7.06995 20.4416 7.01905 20.4009 6.96645 20.3635C6.90027 20.3143 6.8324 20.2668 6.76623 20.2159C6.71532 20.1752 6.66611 20.1328 6.61691 20.0921C6.55243 20.0395 6.48795 19.9869 6.42516 19.9326C6.39123 19.902 6.35899 19.8715 6.32675 19.8409C6.5694 19.9987 6.82222 20.1514 7.08353 20.2923ZM9.46755 21.2238V21.2187C10.0258 21.3596 10.5959 21.4512 11.1695 21.497C11.368 21.6022 11.5682 21.6888 11.7684 21.7549C11.7718 21.7668 11.7769 21.777 11.7854 21.7889C11.4223 21.8194 11.0863 21.8279 10.786 21.8143C10.7266 21.8092 10.6672 21.8058 10.6078 21.799C10.5552 21.794 10.5043 21.7855 10.4517 21.7787C10.3703 21.7685 10.2905 21.7583 10.2091 21.7447C10.1785 21.7397 10.148 21.7329 10.1174 21.7278C9.71529 21.626 9.48961 21.4529 9.46755 21.2238ZM11.2628 21.5038C11.4426 21.5157 11.6225 21.5225 11.8041 21.5242C11.7837 21.6056 11.7701 21.6718 11.7667 21.7159C11.5971 21.6616 11.4291 21.5886 11.2628 21.5038ZM11.8142 21.816C11.8193 21.8211 11.8261 21.8245 11.8329 21.8296C11.8261 21.8296 11.821 21.8313 11.8142 21.8313C11.7633 21.8347 11.7124 21.8347 11.6615 21.8347C11.6259 21.8364 11.5903 21.8364 11.5529 21.8381C11.6378 21.833 11.726 21.8245 11.8142 21.816ZM11.8125 21.4885C11.5971 21.4851 11.3833 21.4767 11.1695 21.4597C10.7334 21.2255 10.3075 20.8946 9.90363 20.4772C9.95114 20.4331 10.002 20.389 10.058 20.3449C10.6638 20.6215 11.2797 20.8302 11.8974 20.9744C11.8923 21.0066 11.8889 21.0389 11.8889 21.0711C11.8855 21.1916 11.8465 21.3528 11.8125 21.4885ZM10.092 20.316C10.3007 20.1497 10.5637 19.9801 10.864 19.8087L10.8657 19.8104C11.2085 20.1922 11.6191 20.2431 11.8261 20.406C11.9941 20.5383 11.9347 20.7436 11.9025 20.9354C11.2899 20.7911 10.6825 20.5841 10.092 20.316ZM10.0597 20.3025C9.87479 20.2176 9.69153 20.1294 9.50997 20.0327C9.46077 19.9716 9.41156 19.9105 9.36235 19.846C9.80522 19.8002 10.2668 19.7391 10.7436 19.6611C10.769 19.6967 10.8012 19.7357 10.8437 19.7832C10.5365 19.958 10.2718 20.1328 10.0597 20.3025ZM9.1214 15.6515C9.13498 15.6769 9.15025 15.7041 9.16382 15.7295C9.18249 15.7618 9.20115 15.794 9.21982 15.8246C9.14516 15.7703 9.12989 15.716 9.1214 15.6515ZM9.11631 15.5751C9.11292 15.57 9.11122 15.5667 9.10952 15.5616C9.10613 15.5378 9.09934 15.514 9.08916 15.4869C9.21642 15.4648 9.34369 15.4428 9.47264 15.419C9.47604 15.419 9.47773 15.4173 9.48113 15.4173C9.35726 15.4699 9.23679 15.5225 9.11631 15.5751ZM7.12256 11.9626C7.3686 11.8829 7.29903 11.9847 7.49246 12.0763C7.50943 12.1255 7.5264 12.1747 7.54336 12.2222C7.55864 12.2663 7.5773 12.3105 7.59257 12.3546C7.7368 12.7415 7.89121 13.1232 8.05411 13.4999C8.05071 13.4999 8.04732 13.5016 8.04393 13.5016C7.82504 13.5457 7.85218 13.5695 7.65535 13.6357C7.45852 13.7036 7.43137 13.9106 7.34144 14.1244C7.25151 14.3382 7.21758 14.1854 7.02754 14.2533C7.02754 14.2533 7.02414 14.2533 7.02245 14.255C6.87991 13.5373 6.7815 12.8144 6.7255 12.095C6.90367 12.0016 6.84767 12.0508 7.12256 11.9626ZM6.3013 13.035C6.31148 12.6804 6.31827 12.7211 6.3013 12.4835C6.28603 12.2613 6.5151 12.1985 6.69157 12.1102C6.74756 12.8263 6.84598 13.5458 6.98851 14.2618C6.8307 14.294 6.78828 14.1447 6.63218 13.9716C6.46419 13.7867 6.50322 13.8376 6.39632 13.6628C6.29112 13.4898 6.29112 13.3896 6.3013 13.035ZM4.82168 5.11768C4.81828 5.12107 4.81659 5.12446 4.81489 5.12786C4.8098 5.13295 4.80301 5.13973 4.79792 5.14482C4.80471 5.13464 4.81319 5.12616 4.82168 5.11768ZM4.85222 13.9683C4.87428 14.2041 4.96421 14.1871 5.234 14.3619C5.5038 14.5367 5.9823 14.7776 6.16725 14.7607C6.3522 14.7437 6.49813 14.7318 6.71872 14.7437C6.90706 14.7539 7.06656 14.9083 7.15649 15.0237C7.21079 15.2477 7.26848 15.4716 7.33296 15.6939C6.85107 15.7414 6.38953 15.772 5.95685 15.7821C5.95685 15.7821 5.95175 15.7821 5.94836 15.7821C5.84655 15.7838 5.74644 15.7855 5.64803 15.7855C5.62936 15.7855 5.609 15.7855 5.59033 15.7855C5.5021 15.7855 5.41556 15.7838 5.33072 15.7804C5.30357 15.7804 5.27473 15.7805 5.24588 15.7788C5.16952 15.7771 5.09656 15.772 5.0236 15.7686C5.00154 15.7669 4.97778 15.7669 4.95573 15.7652C4.43141 14.9287 4.00381 14.0242 3.70178 13.0672C3.87655 13.1877 4.07847 13.298 4.20574 13.3048C4.42462 13.3167 4.14974 13.1198 4.04793 12.9111C3.99363 12.7975 3.95121 12.6872 3.9054 12.5904C3.93594 12.5667 3.96818 12.5446 4.00042 12.5209C4.02417 12.5039 4.04623 12.4869 4.06999 12.47C4.11071 12.4411 4.15313 12.4123 4.19555 12.3834C4.25325 12.5395 4.36354 12.7075 4.46195 12.8772C4.61976 13.147 4.62485 13.1691 4.69272 13.3879C4.76229 13.6085 4.83016 13.7324 4.85222 13.9683ZM4.62654 5.793C4.60449 6.08486 4.32282 6.1137 4.21083 6.26981C4.09884 6.42592 4.15483 6.81449 4.17689 6.98417C4.19895 7.15216 4.06999 7.22512 3.89013 7.19797C3.71027 7.16913 3.79511 7.36086 3.77814 7.68156C3.77644 7.70531 3.76965 7.73755 3.76456 7.7664C3.65088 7.84785 3.54058 7.92929 3.43877 8.01074C3.60167 7.32862 3.8528 6.68554 4.18707 6.09674C4.31772 5.93724 4.45517 5.78282 4.5943 5.63181C4.61636 5.66404 4.63333 5.71325 4.62654 5.793ZM4.57224 5.60296C4.47383 5.70647 4.37881 5.81337 4.28718 5.92196C4.34657 5.82525 4.40596 5.72853 4.46874 5.6335C4.48571 5.60805 4.50607 5.5826 4.52304 5.55715C4.53831 5.57072 4.55528 5.58599 4.57224 5.60296ZM4.52134 5.44856C4.49589 5.48758 4.4925 5.51303 4.50268 5.5317C4.48232 5.56055 4.46195 5.58769 4.44159 5.61654C4.33978 5.76756 4.24476 5.92366 4.15483 6.08316C3.81038 6.50567 3.49986 6.95533 3.23007 7.43213C2.95009 7.9276 2.72102 8.44173 2.53777 8.96605C2.5208 8.99659 2.50553 9.02544 2.49026 9.05598C2.90937 7.70702 3.61185 6.48361 4.52134 5.44856ZM2.39354 9.52939C2.44614 9.34104 2.50553 9.1561 2.5717 8.97114C2.73629 8.69456 3.01118 8.39931 3.38617 8.09218C3.3217 8.37555 3.27588 8.66741 3.24194 8.96265C3.22158 9.00337 3.19952 9.04241 3.18425 9.07634C3.01627 9.40722 3.15541 9.3631 3.15032 9.69398C3.14862 9.8416 3.11468 10.0792 3.09263 10.3201C2.66503 10.1436 2.42238 9.8976 2.39354 9.59217C2.39014 9.57011 2.39354 9.54975 2.39354 9.52939ZM2.363 9.50563C2.363 9.51072 2.3613 9.51752 2.3613 9.52261C2.35112 9.55654 2.34433 9.59217 2.33415 9.62611C2.34433 9.58708 2.35112 9.54636 2.363 9.50563ZM2.36639 9.62781C2.4105 9.93324 2.65824 10.1776 3.08753 10.3523C3.06038 10.6442 3.04851 10.9377 3.12147 11.0854C3.25552 11.3603 3.17747 11.9287 3.11638 12.2765C3.06548 12.5616 3.19443 12.6515 3.32169 12.7533C3.32169 12.8127 3.32169 12.8721 3.32339 12.9298C3.32509 12.9603 3.32339 12.9909 3.32339 13.0214C3.32 13.0248 3.3183 13.0265 3.31491 13.0299C3.24534 13.0927 3.17916 13.1555 3.11638 13.2166C3.1045 13.2284 3.09432 13.2386 3.08244 13.2505C3.02136 13.3116 2.96536 13.3727 2.91276 13.4321C2.90428 13.4422 2.8941 13.4524 2.88561 13.4626C2.83301 13.5237 2.7838 13.5848 2.73799 13.6442C2.7329 13.651 2.72951 13.656 2.72611 13.6611C2.682 13.7205 2.64297 13.7799 2.60734 13.8393C2.60394 13.8444 2.60055 13.8495 2.59885 13.8529C2.56322 13.9123 2.53437 13.97 2.50722 14.0276C2.50213 14.0361 2.49874 14.0463 2.49365 14.0548C2.46989 14.1108 2.44953 14.1651 2.43256 14.2177C2.42917 14.2279 2.42747 14.2363 2.42408 14.2465C2.40881 14.3008 2.39863 14.3534 2.39184 14.406C2.39184 14.4111 2.39014 14.4145 2.39014 14.4196C1.95237 12.8314 1.94897 11.1889 2.36639 9.62781ZM2.23234 13.9258C2.27646 14.1294 2.32736 14.3331 2.38675 14.5367C2.38675 14.5367 2.38675 14.5384 2.38845 14.5401C2.38845 14.557 2.38845 14.574 2.39014 14.591C2.39014 14.5995 2.39354 14.6079 2.39524 14.6147C2.33245 14.3874 2.27815 14.1583 2.23234 13.9258ZM2.42408 14.4315C2.42408 14.4247 2.42578 14.4162 2.42578 14.4094C2.43087 14.3585 2.44275 14.3076 2.45632 14.255C2.45971 14.2448 2.46141 14.2363 2.4648 14.2262C2.48007 14.1736 2.50044 14.121 2.5225 14.0667C2.52589 14.0582 2.53098 14.0497 2.53437 14.0429C2.58697 13.9292 2.65654 13.8105 2.74478 13.69C2.74987 13.6815 2.75666 13.6747 2.76175 13.6662C2.80417 13.6085 2.85168 13.5491 2.90258 13.4897C2.91107 13.4796 2.92125 13.4694 2.92973 13.4592C2.98233 13.3998 3.03663 13.3404 3.09602 13.2793C3.1045 13.2709 3.11299 13.2624 3.12317 13.2522C3.18595 13.1894 3.25212 13.1249 3.32339 13.0605C3.32509 13.0859 3.32679 13.1131 3.32848 13.1385C3.33697 13.3031 3.34715 13.466 3.36242 13.6289C3.36581 13.6594 3.36581 13.6883 3.3692 13.7188C3.38787 13.9106 3.41332 14.1006 3.44217 14.2889C3.45065 14.3416 3.45914 14.3925 3.46932 14.4451C3.49307 14.5876 3.52022 14.7301 3.55077 14.871C3.56264 14.9286 3.57452 14.9863 3.5881 15.0423C3.62543 15.2069 3.66784 15.3715 3.71366 15.5344C3.71875 15.5531 3.72214 15.5734 3.72893 15.5921C3.67972 15.5802 3.63391 15.5667 3.5864 15.5531C3.54228 15.5412 3.49477 15.5293 3.45405 15.5157C3.40314 15.4988 3.35902 15.4818 3.31321 15.4631C3.27588 15.4496 3.23516 15.436 3.19783 15.4207C3.15371 15.4021 3.11468 15.38 3.07396 15.3596C3.04172 15.3444 3.00778 15.3291 2.97724 15.3121C2.93821 15.2901 2.90597 15.2663 2.87034 15.2426C2.84489 15.2256 2.81604 15.2086 2.79229 15.1917C2.76005 15.1662 2.7329 15.1391 2.70575 15.1136C2.68539 15.0949 2.66163 15.078 2.64466 15.0576C2.61921 15.0305 2.59885 14.9999 2.57849 14.9711C2.57001 14.9592 2.55983 14.9473 2.55134 14.9354C2.50723 14.8048 2.4648 14.6724 2.42578 14.5401C2.42238 14.5044 2.42069 14.4688 2.42408 14.4315ZM12.0009 21.9585C7.49246 21.9585 3.67633 18.945 2.45632 14.8285C2.4699 14.8608 2.48177 14.8947 2.50044 14.9253L2.50213 14.927C2.50722 14.9354 2.51401 14.9439 2.5208 14.9541C3.02645 16.4422 3.89182 17.764 5.04226 18.8313C5.04226 18.8449 5.04057 18.8585 5.04057 18.8703C5.07959 19.2878 5.48513 19.6 6.21476 19.7747C6.82901 20.3534 7.51452 20.8234 8.26791 21.1746C8.38499 21.2289 8.50207 21.2798 8.61915 21.3273C8.65648 21.3426 8.6938 21.3562 8.73113 21.3714C8.81258 21.4037 8.89403 21.4342 8.97717 21.4631C9.02129 21.4784 9.06371 21.4919 9.10783 21.5072C9.18588 21.5326 9.26563 21.5581 9.34369 21.5802C9.3878 21.5937 9.43192 21.6056 9.47604 21.6175C9.56088 21.6412 9.64572 21.6616 9.73056 21.682C9.76789 21.6905 9.80522 21.7006 9.84255 21.7091C9.93248 21.7295 10.0241 21.7464 10.1157 21.7617C10.1191 21.7617 10.1225 21.7634 10.1259 21.7651C10.3143 21.8109 10.5348 21.8381 10.7809 21.8499C10.842 21.855 10.9048 21.8601 10.9658 21.8635C11.0066 21.8652 11.049 21.8669 11.0897 21.8703C11.1762 21.8737 11.2628 21.8771 11.3493 21.8771C11.39 21.8771 11.4325 21.8771 11.4732 21.8771C11.5648 21.8771 11.6581 21.8737 11.7498 21.8703C11.7837 21.8686 11.8193 21.8686 11.8533 21.8652C11.8601 21.8652 11.8668 21.8635 11.8736 21.8635C11.9432 21.9009 12.0433 21.9348 12.1723 21.9585C12.118 21.9569 12.0603 21.9585 12.0009 21.9585ZM12.2995 15.7262C11.9687 15.6651 11.9059 15.8331 11.704 15.8602C11.502 15.889 11.6429 15.6973 11.6191 15.5565C11.5971 15.4156 11.4104 15.4784 11.1745 15.5514C10.9387 15.6243 10.8997 15.6464 10.7079 15.8042C10.5162 15.962 10.5331 16.035 10.3872 16.1028C10.2413 16.1707 10.1293 15.9281 9.99356 15.85C9.85951 15.772 9.9206 15.8551 9.79164 15.9569C9.66268 16.057 9.49131 15.9807 9.27921 15.8636C9.25884 15.828 9.23848 15.794 9.21812 15.7584C9.21134 15.7465 9.20454 15.7363 9.19776 15.7245C9.1757 15.6854 9.15364 15.643 9.12989 15.604C9.29617 15.531 9.46416 15.4597 9.63384 15.3885C9.80861 15.3545 9.98678 15.3206 10.1632 15.2833C10.204 15.2748 10.2464 15.2663 10.2871 15.2578C10.4466 15.2239 10.6061 15.19 10.7673 15.1526C10.8165 15.1425 10.864 15.1306 10.9132 15.1204C11.1084 15.0763 11.3035 15.0288 11.4986 14.9796C11.5275 14.9728 11.5563 14.9643 11.5835 14.9575C11.7413 14.9185 11.9008 14.8761 12.0603 14.8336C12.1485 15.1408 12.2368 15.4377 12.3233 15.7295C12.3165 15.7295 12.308 15.7279 12.2995 15.7262ZM12.3623 15.7397C12.2758 15.4462 12.1858 15.1441 12.0942 14.8268C12.0976 14.8268 12.0993 14.8251 12.1027 14.8251C12.1553 14.8116 12.2062 14.798 12.2588 14.7827C12.42 14.7386 12.5812 14.6894 12.7424 14.6436C12.7441 14.6453 12.7458 14.6487 12.7475 14.6504C12.7696 14.7098 12.795 14.7369 12.9155 14.703C13.0359 14.669 13.1683 14.608 13.2464 14.574C13.3108 14.5469 13.3312 14.5214 13.3142 14.4773C13.3244 14.4739 13.3329 14.4722 13.3431 14.4688C13.4703 14.9897 13.5908 15.4954 13.7045 15.9841C13.5671 15.9416 13.433 15.9654 13.0122 15.9009C12.4285 15.8127 12.5982 15.7906 12.3623 15.7397ZM13.6706 21.738C13.9013 21.6548 14.1287 21.5428 14.3476 21.3986C14.4392 21.5445 14.5139 21.6158 14.5699 21.6073C14.5733 21.6073 14.575 21.6056 14.5784 21.6056C14.6411 21.5869 14.6717 21.4767 14.6751 21.2629C14.692 21.2578 14.7107 21.2527 14.7277 21.2476C14.7684 21.2357 14.8108 21.2221 14.8515 21.2086C14.8549 21.2086 14.8566 21.2102 14.86 21.2102C14.8957 21.2153 14.9313 21.2255 14.9652 21.2289C15.028 21.2374 15.0891 21.2374 15.1519 21.2408C15.1892 21.2425 15.2265 21.2476 15.2622 21.2476C15.3233 21.2476 15.3826 21.2408 15.442 21.2357C15.476 21.2323 15.5116 21.2323 15.5455 21.2289C15.6372 21.2153 15.7271 21.1967 15.8153 21.1712C16.1072 21.0864 16.3685 20.9286 16.5959 20.7046C17.317 20.4161 17.9703 20.0089 18.5387 19.4948C18.5727 19.4676 18.6032 19.4405 18.6337 19.415C17.2373 20.6673 15.4878 21.5343 13.5518 21.8381C13.6383 21.8109 13.6536 21.7821 13.6706 21.738ZM18.6812 19.3726C18.7966 19.2691 18.8917 19.1673 18.9663 19.0689C19.1801 18.8347 19.3803 18.5836 19.5619 18.3155C19.6637 18.1645 19.7587 18.0084 19.8487 17.8489C20.1931 17.4264 20.5036 16.9767 20.7734 16.4999C20.7836 16.4829 20.7904 16.466 20.8006 16.449C20.8124 16.5033 20.8243 16.5457 20.8396 16.5763C20.2898 17.6334 19.5551 18.5802 18.6812 19.3726ZM20.8209 13.6526C20.8209 13.6272 20.8209 13.6017 20.8209 13.5763C20.8294 13.5797 20.8379 13.5831 20.8464 13.5865C20.8379 13.6085 20.8311 13.6306 20.8209 13.6526ZM21.5166 11.2601C21.4148 11.5639 21.1128 11.8438 21.0788 12.2036C21.0449 12.5633 20.899 12.5175 20.8871 12.9111C20.8786 13.2064 20.9024 13.3879 20.8566 13.5542C20.843 13.5491 20.8311 13.5441 20.8175 13.539C20.7972 13.0791 20.7446 12.6125 20.658 12.1408C20.6716 11.9524 20.6801 11.7658 20.6852 11.5774C20.6869 11.5299 20.6852 11.4824 20.6869 11.4332C20.6886 11.289 20.6869 11.1448 20.6835 11.0005C20.6818 10.97 20.6835 10.9394 20.6835 10.9089C20.6869 10.9055 20.6886 10.9038 20.692 10.9004C20.7615 10.8376 20.8277 10.7748 20.8888 10.7138C20.9007 10.7019 20.9126 10.69 20.9227 10.6798C20.9821 10.6187 21.0398 10.5594 21.0907 10.5C21.1009 10.4881 21.1094 10.4779 21.1196 10.4677C21.1722 10.4066 21.2214 10.3472 21.2655 10.2879C21.2706 10.2811 21.274 10.2743 21.2791 10.2675C21.3215 10.2081 21.3605 10.1504 21.3962 10.0927C21.3995 10.0876 21.4029 10.0825 21.4063 10.0758C21.442 10.0181 21.4708 9.96038 21.4963 9.90269C21.5014 9.89251 21.5047 9.88402 21.5098 9.87384C21.5336 9.81954 21.554 9.76525 21.5692 9.71095C21.5726 9.70077 21.5743 9.69059 21.5777 9.68041C21.593 9.62781 21.6032 9.57351 21.6083 9.52261C21.6083 9.51752 21.6099 9.51242 21.6099 9.50903C21.6999 9.83651 21.7678 10.1657 21.8204 10.4949C21.7559 10.6476 21.5947 11.0226 21.5166 11.2601Z" fill="#009900"/>
<path d="M8.34012 14.2122C8.55593 14.3058 8.85318 14.2529 9.09546 14.1185C9.33774 13.9841 9.34996 13.917 9.59428 14.0656C9.83859 14.2142 9.92818 14.3628 10.0849 14.5115C10.2417 14.6601 10.3232 14.7273 10.6204 14.7008C10.9177 14.6743 11.2129 14.6743 10.9971 14.316C10.9971 14.316 10.8077 14.0921 10.1745 13.8437C9.54134 13.5953 9.13619 13.4467 8.73103 13.5423C8.32587 13.636 8.20574 13.7765 8.20574 13.9149C8.20574 14.0534 8.12431 14.1165 8.34012 14.2122Z" fill="#009900"/>
<path d="M10.5371 14.9595C10.5371 14.9595 10.5513 14.8862 10.2541 14.8312C9.95684 14.7783 9.88966 14.7233 9.71456 14.7579C9.53947 14.7925 9.45193 14.8312 9.49264 14.9188C9.53336 15.0063 9.60666 15.161 9.78176 15.2017C9.95685 15.2425 10.0464 15.214 10.2195 15.1875C10.6491 15.1244 10.5717 14.8902 10.5371 14.9595Z" fill="#009900"/>
<path d="M14.308 15.4095C14.2367 15.3789 14.1532 15.3647 14.1329 15.3219C14.1329 15.3219 14.1186 15.2303 14.0392 15.2771C13.9578 15.324 13.9619 15.3484 13.9944 15.4665C14.029 15.5846 14.082 15.7067 14.1125 15.8574C14.1431 16.008 14.2143 16.2076 14.2673 16.2218C14.3222 16.2361 14.3446 16.3094 14.3792 16.1587C14.4138 16.006 14.4668 15.7983 14.4423 15.6436C14.4199 15.4868 14.3792 15.44 14.308 15.4095Z" fill="#009900"/>
</svg>
