<svg width="24" height="24" viewBox="0 0 24 24" fill="none" xmlns="http://www.w3.org/2000/svg">
<g clip-path="url(#clip0_1890_1159)">
<path d="M11.495 18.994L5.90597 19.925L5.73197 18.94L3.07997 3.90999L20.094 1.07499L22.197 12.988C22.244 13.26 22.504 13.444 22.776 13.393C23.048 13.345 23.23 13.086 23.181 12.814L20.993 0.412991C20.946 0.142991 20.687 -0.0420093 20.419 0.00699069L14.146 1.05299L1.54297 0.00299069C1.40797 -0.0130093 1.27497 0.0349907 1.17297 0.123991C1.07097 0.211991 1.00897 0.337991 1.00197 0.472991L0.00196978 18.473C-0.0130302 18.738 0.18197 18.969 0.44597 18.998L4.81397 19.483L5.00897 20.587C5.04897 20.829 5.25997 21 5.49897 21C5.52597 21 5.55397 20.998 5.58197 20.993L11.66 19.98C11.932 19.935 12.117 19.677 12.071 19.405C12.025 19.133 11.766 18.946 11.495 18.994ZM18.499 13C15.466 13 12.999 15.467 12.999 18.5C12.999 21.533 15.466 24 18.499 24C21.532 24 23.999 21.533 23.999 18.5C23.999 15.467 21.532 13 18.499 13ZM18.859 21.85C18.759 21.95 18.629 22 18.499 22C18.369 22 18.249 21.95 18.149 21.86C18.049 21.76 17.999 21.64 17.999 21.5C17.999 21.37 18.049 21.24 18.149 21.15C18.339 20.96 18.659 20.96 18.849 21.14C18.949 21.24 18.999 21.37 18.999 21.5C18.999 21.63 18.949 21.75 18.859 21.85ZM19 18.908L18.999 19.5C18.999 19.776 18.775 20 18.499 20C18.223 20 17.999 19.775 17.999 19.5L18 18.5C18 18.263 18.167 18.059 18.399 18.011L18.508 17.99C19.525 17.802 19.999 17.487 19.999 17C19.999 16.458 19.311 16 18.498 16C17.715 16 17.041 16.424 16.998 16.946C16.975 17.221 16.736 17.433 16.458 17.402C16.183 17.379 15.979 17.137 16.002 16.862C16.09 15.801 17.164 15 18.498 15C19.877 15 20.999 15.897 20.999 17C20.999 17.955 20.327 18.596 19 18.908Z" fill="#f36a62"/>
</g>
<defs>
<clipPath id="clip0_1890_1159">
<rect width="24" height="24" fill="white"/>
</clipPath>
</defs>
</svg>
