<svg width="24" height="24" viewBox="0 0 24 24" fill="none" xmlns="http://www.w3.org/2000/svg">
<path d="M13.3366 11.3202C13.36 11.4844 13.5007 11.6065 13.6667 11.6065C13.6826 11.6065 13.6986 11.6054 13.7144 11.6033C13.8967 11.5771 14.0231 11.4081 13.9971 11.226C13.6361 8.69994 10.8657 7.97924 10.7481 7.94994C10.57 7.90665 10.3905 8.01521 10.346 8.19278C10.3014 8.37052 10.4087 8.55085 10.5859 8.59659C10.6104 8.60261 13.0387 9.23331 13.3366 11.3202Z" fill="#f36a62"/>
<path d="M21.6667 11.9399C21.042 11.9378 20.4255 12.0822 19.8667 12.3616C19.6772 12.4495 19.4826 12.526 19.284 12.5906C19.1662 10.8173 18.3368 9.16695 16.984 8.01428C14.0594 5.54765 9.35726 5.69999 8 5.79993V5.16663C8 4.61438 7.55225 4.16663 7 4.16663H5.66667C5.11442 4.16663 4.66667 4.61438 4.66667 5.16663H2V9.83329H4.66667C4.66667 10.3855 5.11442 10.8333 5.66667 10.8333H7C7.55225 10.8333 8 10.3855 8 9.83329V9.18665C9.48633 9.36226 9.94694 10.7239 10.036 12.0439C9.59994 11.7459 9.08105 11.5929 8.55306 11.6066C7.91406 11.5979 7.29313 11.819 6.80339 12.2293C6.4266 12.5569 5.94222 12.7342 5.44303 12.7267C4.95085 12.7404 4.46452 12.6165 4.03874 12.3693C3.51921 12.0755 2.93001 11.927 2.33333 11.9399C2.14925 11.9399 2 12.0892 2 12.2732V14.2732C2.00195 14.2913 2.00553 14.3092 2.01074 14.3266C2.00553 14.344 2.00195 14.3619 2 14.38C2 14.5641 2.14925 14.7133 2.33333 14.7133C2.83236 14.7059 3.31657 14.8828 3.69336 15.2102C4.18311 15.6209 4.80404 15.8419 5.44303 15.8333C6.08203 15.8418 6.70296 15.6207 7.19303 15.2102C7.979 14.5475 9.12826 14.5475 9.91439 15.2102C10.4045 15.6207 11.0256 15.8418 11.6647 15.8333C12.3286 15.8287 12.9743 15.615 13.5096 15.2223C14.3867 14.5433 15.612 14.5433 16.4889 15.2223C17.5835 16.0374 19.0832 16.0374 20.1777 15.2223C20.606 14.8961 21.1284 14.7176 21.6667 14.7133C21.8507 14.7133 22 14.5641 22 14.38C21.998 14.3619 21.9945 14.344 21.9893 14.3266C21.9945 14.3092 21.998 14.2913 22 14.2732V12.2732C22 12.0892 21.8507 11.9399 21.6667 11.9399ZM2.66667 9.16663V5.83329H4.66667V9.16663H2.66667ZM7.33333 9.83329C7.33333 10.0174 7.18408 10.1666 7 10.1666H5.66667C5.48258 10.1666 5.33333 10.0174 5.33333 9.83329V5.16663C5.33333 4.98254 5.48258 4.83329 5.66667 4.83329H7C7.18408 4.83329 7.33333 4.98254 7.33333 5.16663V9.83329ZM8 8.51526V6.47164C9.20426 6.38228 13.8149 6.21366 16.554 8.52388C17.7865 9.58036 18.5345 11.0939 18.6253 12.7146C18.5334 12.722 18.4377 12.7267 18.3333 12.7267C18.1792 12.7275 18.0252 12.7138 17.8737 12.6857C17.1934 9.24703 14.5513 8.32792 14.4403 8.29032C14.2655 8.23206 14.0765 8.32678 14.0184 8.50159C13.9601 8.67655 14.0549 8.86552 14.2297 8.92362C14.2523 8.93095 16.3877 9.67769 17.1187 12.3852C17.028 12.3326 16.9383 12.2767 16.846 12.2185C15.7511 11.4036 14.2511 11.4036 13.1564 12.2185C12.9284 12.3735 12.6836 12.5022 12.4266 12.6023C12.424 11.8634 12.2673 11.1333 11.9666 10.4583C11.8846 10.2934 11.6844 10.2264 11.5195 10.3084C11.3547 10.3906 11.2876 10.5908 11.3696 10.7557C11.6383 11.3759 11.7716 12.0463 11.7607 12.7223C11.7274 12.7223 11.6994 12.7264 11.6663 12.7264C11.3371 12.7368 11.0107 12.6598 10.721 12.5029C10.7 10.11 9.71696 8.67655 8 8.51526ZM19.8223 14.658C18.9455 15.3362 17.7212 15.3362 16.8444 14.658C15.7495 13.8429 14.2495 13.8429 13.1546 14.658C12.7259 14.9838 12.2031 15.1622 11.6647 15.1666C11.1654 15.1741 10.6807 14.9972 10.3037 14.6696C9.28467 13.8393 7.82259 13.8393 6.80371 14.6696C6.42692 14.9974 5.94222 15.1743 5.44303 15.1666C4.94385 15.1741 4.45964 14.9972 4.08301 14.6696C3.6792 14.3354 3.18734 14.1253 2.66667 14.0646V12.623C3.04378 12.6593 3.40869 12.7755 3.7373 12.964C4.257 13.2578 4.84619 13.406 5.44303 13.3934C6.08203 13.4018 6.70296 13.1809 7.19303 12.7706C7.97884 12.1075 9.12826 12.1075 9.91406 12.7706C10.4043 13.1809 11.0254 13.4018 11.6647 13.3934C12.3286 13.3888 12.9744 13.1749 13.5096 12.782C14.387 12.1038 15.6117 12.1038 16.4889 12.782C17.0239 13.1753 17.6694 13.3891 18.3333 13.3934C18.9587 13.3958 19.5757 13.2513 20.1349 12.9716C20.5099 12.7832 20.916 12.6643 21.3333 12.6209V14.0642C20.7879 14.1324 20.2684 14.3367 19.8223 14.658Z" fill="#f36a62"/>
<path d="M21.6667 15.9399C20.9897 15.9477 20.3354 16.1847 19.8107 16.6123C19.3971 16.9624 18.875 17.1583 18.3333 17.1666C17.7951 17.1626 17.2726 16.984 16.8444 16.658C15.7495 15.8429 14.2495 15.8429 13.1546 16.658C12.7259 16.9839 12.2031 17.1622 11.6647 17.1666C11.1654 17.1741 10.6807 16.9972 10.3037 16.6696C9.28467 15.8393 7.82259 15.8393 6.80371 16.6696C6.42692 16.9974 5.94222 17.1743 5.44303 17.1666C4.93978 17.1702 4.45557 16.9757 4.09473 16.625C3.61686 16.1797 2.98649 15.9345 2.33333 15.9399C2.14925 15.9399 2 16.0892 2 16.2732V18.2732C2 18.4573 2.14925 18.6066 2.33333 18.6066C2.83643 18.6032 3.32064 18.7977 3.68132 19.1482C4.15934 19.5936 4.78971 19.8388 5.44303 19.8333C6.08203 19.8418 6.70296 19.6207 7.19303 19.2103C7.979 18.5475 9.12826 18.5475 9.91439 19.2103C10.4045 19.6207 11.0256 19.8418 11.6647 19.8333C12.3286 19.8287 12.9743 19.615 13.5096 19.2223C14.3867 18.5433 15.612 18.5433 16.4889 19.2223C17.0239 19.6154 17.6694 19.8292 18.3333 19.8333C19.0103 19.8255 19.6646 19.5885 20.1893 19.1609C20.6027 18.8107 21.1248 18.6149 21.6667 18.6066C21.8507 18.6066 22 18.4573 22 18.2732V16.2732C22 16.0892 21.8507 15.9399 21.6667 15.9399ZM21.3333 17.958C20.7762 18.0355 20.2503 18.2615 19.8107 18.6123C19.3971 18.9624 18.875 19.1583 18.3333 19.1666C17.7951 19.1626 17.2726 18.984 16.8444 18.658C15.7495 17.8429 14.2495 17.8429 13.1546 18.658C12.7259 18.9839 12.2031 19.1622 11.6647 19.1666C11.1654 19.1741 10.6807 18.9972 10.3037 18.6696C9.28467 17.8393 7.82259 17.8393 6.80371 18.6696C6.42692 18.9974 5.94222 19.1743 5.44303 19.1666C4.93978 19.1702 4.45557 18.9757 4.09473 18.625C3.69841 18.2614 3.19987 18.0286 2.66667 17.9583V16.6333C3.04671 16.7055 3.39844 16.8839 3.68132 17.1476C4.15918 17.5932 4.78971 17.8385 5.44303 17.8333C6.08203 17.8418 6.70296 17.6207 7.19303 17.2103C7.979 16.5475 9.12826 16.5475 9.91439 17.2103C10.4045 17.6207 11.0256 17.8418 11.6647 17.8333C12.3286 17.8287 12.9743 17.615 13.5096 17.2223C14.3867 16.5433 15.612 16.5433 16.4889 17.2223C17.0239 17.6154 17.6694 17.8292 18.3333 17.8333C19.0103 17.8255 19.6646 17.5885 20.1893 17.1609C20.5207 16.8916 20.9137 16.709 21.3333 16.6297V17.958Z" fill="#f36a62"/>
<path d="M3.66671 6.60657C3.48263 6.60657 3.33337 6.75582 3.33337 6.9399V8.27323C3.33337 8.45732 3.48263 8.60657 3.66671 8.60657C3.85079 8.60657 4.00004 8.45732 4.00004 8.27323V6.9399C4.00004 6.75582 3.85079 6.60657 3.66671 6.60657Z" fill="#f36a62"/>
</svg>
