<svg width="24" height="24" viewBox="0 0 24 24" fill="none" xmlns="http://www.w3.org/2000/svg">
<path fill-rule="evenodd" clip-rule="evenodd" d="M4.24841 12.0566C4.24841 11.824 4.43699 11.6354 4.66962 11.6354C8.40135 11.6354 10.2685 11.6428 11.2031 11.6503C11.67 11.654 11.906 11.6577 12.026 11.6606C12.0853 11.662 12.1199 11.6633 12.1414 11.6645C12.1508 11.665 12.1652 11.6659 12.1807 11.6677L12.181 11.6678C12.1865 11.6684 12.2075 11.6709 12.2332 11.6773L12.2333 11.6773C12.2431 11.6797 12.2791 11.6886 12.3213 11.7097C12.3416 11.7199 12.3867 11.7442 12.432 11.79C12.456 11.8143 12.486 11.8505 12.5104 11.9001C12.5226 11.9271 12.5375 11.9702 12.5416 11.9857C12.5507 12.0356 12.5538 12.0863 12.1326 12.0863L12.5538 12.0863C12.5538 12.3189 12.3652 12.5075 12.1326 12.5075C12.118 12.5075 12.1036 12.5068 12.0894 12.5053C12.0782 12.5048 12.0538 12.5039 12.0059 12.5028C11.8928 12.5001 11.6623 12.4964 11.1964 12.4927C10.2652 12.4852 8.40086 12.4778 4.66962 12.4778C4.43699 12.4778 4.24841 12.2892 4.24841 12.0566ZM12.0964 12.5057C12.0963 12.5057 12.096 12.5057 12.0953 12.5056C12.0961 12.5057 12.0964 12.5057 12.0964 12.5057Z" fill="#f36a62"/>
<path fill-rule="evenodd" clip-rule="evenodd" d="M6.86172 21.2603L5.21618 12.3346C5.15861 12.5546 4.95275 12.651 4.95275 12.3832C4.95275 12.1153 4.7469 12.2118 4.68933 12.4317L6.37531 21.5767C6.39873 21.7038 6.50952 21.796 6.63873 21.796H11.0051C11.1429 21.796 11.2582 21.6915 11.2717 21.5544L12.1707 12.4285L11.6376 12.376L10.7623 21.2603H6.86172Z" fill="#f36a62"/>
<path fill-rule="evenodd" clip-rule="evenodd" d="M5.19482 14.0463V13.5701H11.8151L11.8151 14.0463H5.19482Z" fill="#f36a62"/>
<path fill-rule="evenodd" clip-rule="evenodd" d="M11.5776 15.2029V15.6791H5.52138L5.52136 15.2029H11.5776Z" fill="#f36a62"/>
<path fill-rule="evenodd" clip-rule="evenodd" d="M5.78857 17.1635V16.6873H11.4292L11.4292 17.1635H5.78857Z" fill="#f36a62"/>
<path fill-rule="evenodd" clip-rule="evenodd" d="M10.6258 18.6774C9.97918 18.6627 8.68257 18.6478 6.08533 18.6478V18.1716C8.68338 18.1716 9.98442 18.1865 10.6367 18.2014C10.9622 18.2088 11.1289 18.2163 11.2157 18.2223C11.258 18.2252 11.287 18.2281 11.3081 18.2314C11.3168 18.2328 11.3355 18.236 11.3566 18.2432C11.3656 18.2463 11.3907 18.2552 11.4181 18.2747C11.4325 18.2848 11.4555 18.3035 11.4762 18.3333C11.4869 18.3487 11.4977 18.3682 11.5057 18.3915C11.5098 18.4032 11.513 18.4157 11.5153 18.4288C11.5163 18.4354 11.5175 18.4454 11.5178 18.4488C11.5185 18.4589 11.5187 18.4691 11.2806 18.4691C11.0425 18.4691 11.0427 18.4793 11.0434 18.4894C11.0437 18.4928 11.0449 18.5028 11.046 18.5094C11.0482 18.5225 11.0515 18.535 11.0555 18.5466C11.0636 18.57 11.0743 18.5894 11.085 18.6049C11.1057 18.6346 11.1286 18.6532 11.1428 18.6632C11.1699 18.6824 11.1944 18.691 11.2021 18.6937C11.2128 18.6973 11.2212 18.6993 11.225 18.7001C11.2293 18.7011 11.2321 18.7015 11.2329 18.7017C11.2329 18.7017 11.2329 18.7017 11.2328 18.7016C11.2314 18.7015 11.2186 18.6998 11.1832 18.6974C11.1076 18.6922 10.9497 18.6849 10.6258 18.6774Z" fill="#f36a62"/>
<path fill-rule="evenodd" clip-rule="evenodd" d="M11.1322 19.7747V20.2509H6.35256L6.35254 19.7747H11.1322Z" fill="#f36a62"/>
<path fill-rule="evenodd" clip-rule="evenodd" d="M6.35376 12.1156L6.82634 12.0571L7.98415 21.4085C7.92625 21.5955 7.74786 21.6759 7.74786 21.4378C7.74786 21.1997 7.56946 21.2802 7.51157 21.4671L6.35376 12.1156Z" fill="#f36a62"/>
<path fill-rule="evenodd" clip-rule="evenodd" d="M8.99523 21.4005L8.51928 21.4157L8.22241 12.1236C8.43817 11.879 8.69562 12.0792 8.46038 12.116C8.22514 12.1528 8.4826 12.3531 8.69836 12.1084L8.99523 21.4005Z" fill="#f36a62"/>
<path fill-rule="evenodd" clip-rule="evenodd" d="M10.0334 12.1366L10.5092 12.1547L10.153 21.5062C10.063 21.3107 9.85224 21.2676 9.91505 21.4972C9.97786 21.7269 9.76705 21.6837 9.67712 21.4882L10.0334 12.1366Z" fill="#f36a62"/>
<path fill-rule="evenodd" clip-rule="evenodd" d="M6.22087 10.383C6.43762 10.6079 6.67111 10.733 6.91427 10.7985C7.21581 10.8798 7.54258 10.8722 7.8899 10.8309C8.05554 10.8112 8.22205 10.7844 8.39138 10.7571C8.39919 10.7559 8.40701 10.7546 8.41484 10.7534C8.59077 10.725 8.76986 10.6966 8.94594 10.6775C9.20724 10.6492 9.47316 10.6402 9.72899 10.6872C9.76259 10.5057 9.88432 10.2752 10.1455 9.97366C10.3464 9.74182 10.6372 9.45955 11.053 9.11585C10.1401 9.15732 8.97567 8.9498 7.76898 8.48879C7.76676 8.49539 7.76442 8.50233 7.76197 8.50963C7.71883 8.63799 7.65345 8.83205 7.538 9.05515C7.32427 9.46812 6.94326 9.97258 6.22087 10.383ZM7.80944 8.37997C7.80944 8.38002 7.80909 8.3807 7.80836 8.3819C7.80906 8.38053 7.80943 8.37993 7.80944 8.37997ZM10.0762 10.7974C10.0758 10.7886 10.0763 10.7766 10.0787 10.7606C10.0919 10.675 10.1612 10.501 10.4155 10.2075C10.6668 9.91736 11.0861 9.52502 11.7708 9.00276C11.8373 8.95198 11.8597 8.86176 11.8245 8.78578C11.7893 8.70979 11.7061 8.66844 11.6243 8.68634C10.7224 8.88363 9.28932 8.71014 7.75776 8.1011C7.72196 8.08687 7.67983 8.08204 7.63666 8.09282C7.59606 8.10296 7.56664 8.12385 7.54779 8.14115C7.51394 8.17223 7.49462 8.21002 7.48491 8.23037C7.46495 8.27216 7.4455 8.33011 7.42698 8.38528C7.4258 8.38881 7.42461 8.39234 7.42343 8.39585C7.38106 8.52193 7.32284 8.69385 7.22081 8.891C7.01855 9.28183 6.63903 9.78126 5.86036 10.1706L5.94022 10.3303L5.79895 10.4395C6.10087 10.83 6.44903 11.043 6.82136 11.1434C7.18836 11.2422 7.56865 11.2288 7.93206 11.1856C8.10528 11.165 8.27847 11.1371 8.44595 11.1101C8.45452 11.1087 8.46307 11.1073 8.47161 11.106C8.64853 11.0775 8.81884 11.0505 8.98436 11.0326C9.30821 10.9975 9.59468 10.9999 9.8443 11.0847C9.85363 11.0925 9.86326 11.0995 9.87309 11.1059C9.8934 11.119 9.92493 11.1356 9.96369 11.1417C9.97441 11.1433 9.99058 11.145 10.0099 11.1433C10.0272 11.1417 10.0616 11.1364 10.0969 11.1124C10.1387 11.0839 10.1701 11.0364 10.1751 10.9789C10.1794 10.9303 10.1631 10.8937 10.1538 10.8764C10.1355 10.8426 10.1108 10.8224 10.1018 10.8153C10.0931 10.8084 10.0844 10.8025 10.0762 10.7974ZM10.0806 10.8189C10.0806 10.819 10.0801 10.8183 10.0794 10.8168C10.0804 10.8181 10.0807 10.8189 10.0806 10.8189Z" fill="#f36a62"/>
<path fill-rule="evenodd" clip-rule="evenodd" d="M10.591 8.33158C10.6065 8.37242 10.6242 8.41693 10.6445 8.46336C10.7315 8.66255 10.8773 8.92763 11.1108 9.08328L11.3089 8.78612C11.1645 8.68987 11.0527 8.50556 10.9718 8.32039C10.9329 8.23128 10.904 8.14896 10.8831 8.0871C10.8805 8.07962 10.878 8.07209 10.8755 8.0647C10.8684 8.04348 10.8616 8.02337 10.8562 8.00858C10.8529 7.99949 10.8474 7.98468 10.8405 7.97069L10.8405 7.97067C10.8379 7.96544 10.8293 7.94807 10.8142 7.93013C10.807 7.92167 10.7891 7.90164 10.7594 7.88606C10.725 7.86799 10.6678 7.85347 10.6059 7.87959L10.6059 7.87959C10.5092 7.92047 10.4343 7.98997 10.3764 8.04366C10.372 8.04776 10.3677 8.05177 10.3634 8.05567C10.2988 8.11534 10.2323 8.17492 10.1336 8.23173C9.93714 8.34475 9.58493 8.46184 8.84964 8.46102L8.84924 8.81816C9.61913 8.81902 10.0409 8.69707 10.3117 8.54129C10.4372 8.46907 10.5243 8.3928 10.591 8.33158Z" fill="#f36a62"/>
<path d="M7.76624 5.94741L17.2959 5.97455C18.0999 6.90202 19.4469 10.0471 19.5485 10.7716L14.8021 11.0091C14.6686 9.45053 13.9264 7.99584 13.8225 7.77319L7.76624 5.94741Z" fill="#f36a62"/>
<path fill-rule="evenodd" clip-rule="evenodd" d="M7.61907 5.92549C7.62995 5.85242 7.6928 5.79839 7.76668 5.7986L17.2963 5.82574C17.3393 5.82586 17.3802 5.84458 17.4084 5.87707C17.8264 6.35934 18.372 7.3966 18.8212 8.38775C19.0473 8.88674 19.2517 9.37998 19.4062 9.7949C19.5589 10.2049 19.668 10.5516 19.6959 10.7509C19.7017 10.7923 19.6899 10.8342 19.6633 10.8664C19.6367 10.8986 19.5977 10.9181 19.556 10.9202L14.8096 11.1577C14.7296 11.1617 14.6608 11.1017 14.6539 11.0218C14.5316 9.59512 13.8876 8.25322 13.7165 7.89668C13.7165 7.89667 13.7165 7.89666 13.7165 7.89665L7.7233 6.08988C7.65257 6.06856 7.60819 5.99857 7.61907 5.92549ZM8.78505 6.09912L13.8654 7.63071C13.906 7.64294 13.9394 7.67187 13.9573 7.71025C13.964 7.72453 13.9735 7.74423 13.9854 7.76903C14.1499 8.11102 14.7807 9.42284 14.9365 10.8534L19.3678 10.6317C19.3229 10.4546 19.2403 10.2022 19.1273 9.89876C18.9755 9.49123 18.7739 9.00438 18.5501 8.51061C18.1159 7.55266 17.6082 6.59042 17.2265 6.12316L8.78505 6.09912Z" fill="#f36a62"/>
<path d="M14.7642 11.3344L13.1433 21.7564L16.8687 14.8999L18.5099 21.7836L19.5012 11.4795L14.7642 11.3344Z" fill="#f36a62"/>
<path fill-rule="evenodd" clip-rule="evenodd" d="M14.6171 11.3115C14.6286 11.2373 14.6936 11.1833 14.7687 11.1856L19.5057 11.3308C19.5468 11.332 19.5856 11.3503 19.6128 11.3811C19.64 11.412 19.6532 11.4528 19.6493 11.4937L18.6579 21.7978C18.6509 21.8702 18.5926 21.927 18.52 21.932C18.4475 21.937 18.3819 21.8889 18.365 21.8181L16.8139 15.3122L13.274 21.8275C13.2394 21.8911 13.1641 21.9206 13.0955 21.8974C13.027 21.8742 12.985 21.8051 12.9962 21.7336L14.6171 11.3115ZM14.8909 11.4871L13.4221 20.9314L16.7378 14.8288C16.7672 14.7747 16.827 14.7442 16.8881 14.7523C16.9492 14.7605 16.999 14.8054 17.0133 14.8654L18.4472 20.8797L19.3378 11.6234L14.8909 11.4871Z" fill="#f36a62"/>
<path d="M15.3928 5.75C16.4119 5.75 17.2381 4.92386 17.2381 3.90476C17.2381 2.88567 16.4119 2.05952 15.3928 2.05952C14.3737 2.05952 13.5476 2.88567 13.5476 3.90476C13.5476 4.92386 14.3737 5.75 15.3928 5.75Z" fill="#f36a62"/>
</svg>
